<svg width="34" height="34" viewBox="0 0 34 34" fill="none" xmlns="http://www.w3.org/2000/svg">
<path d="M28.3333 15.5818H31.1666C31.1666 8.31433 25.6799 2.83325 18.4025 2.83325V5.66659C24.157 5.66659 28.3333 9.83583 28.3333 15.5818Z" fill="white"/>
<path d="M18.4167 11.3333C21.396 11.3333 22.6667 12.604 22.6667 15.5833H25.5C25.5 11.0145 22.9855 8.49993 18.4167 8.49993V11.3333ZM23.2645 19.0442C22.9923 18.7968 22.6346 18.6648 22.2669 18.6762C21.8992 18.6875 21.5504 18.8413 21.294 19.1051L17.9039 22.5915C17.0879 22.4357 15.4474 21.9243 13.7587 20.2398C12.07 18.5498 11.5586 16.905 11.407 16.0947L14.8906 12.7032C15.1547 12.4469 15.3087 12.098 15.3201 11.7302C15.3315 11.3624 15.1993 11.0047 14.9515 10.7326L9.71695 4.97668C9.46909 4.70377 9.12461 4.53823 8.75667 4.51522C8.38872 4.4922 8.0263 4.61353 7.74637 4.85343L4.6722 7.48985C4.42727 7.73566 4.28109 8.06282 4.26137 8.40926C4.24012 8.76343 3.83495 17.1529 10.3403 23.6611C16.0155 29.3348 23.1243 29.7499 25.0821 29.7499C25.3683 29.7499 25.544 29.7414 25.5907 29.7386C25.9371 29.7192 26.2641 29.5724 26.5087 29.3263L29.1437 26.2508C29.3838 25.971 29.5053 25.6087 29.4826 25.2408C29.4599 24.8728 29.2946 24.5282 29.0219 24.2802L23.2645 19.0442Z" fill="white"/>
</svg>
