<svg width="34" height="34" viewBox="0 0 34 34" fill="none" xmlns="http://www.w3.org/2000/svg">
<path d="M17 2.125C13.9014 2.12866 10.9308 3.36119 8.73974 5.55223C6.5487 7.74327 5.31617 10.7139 5.31251 13.8125C5.3088 16.3447 6.13593 18.8081 7.66701 20.825C7.66701 20.825 7.98576 21.2447 8.03782 21.3053L17 31.875L25.9664 21.2999C26.0132 21.2436 26.333 20.825 26.333 20.825L26.3341 20.8218C27.8644 18.8058 28.6911 16.3435 28.6875 13.8125C28.6839 10.7139 27.4513 7.74327 25.2603 5.55223C23.0692 3.36119 20.0986 2.12866 17 2.125ZM17 18.0625C16.1594 18.0625 15.3377 17.8132 14.6388 17.3462C13.9399 16.8792 13.3952 16.2155 13.0735 15.4389C12.7519 14.6623 12.6677 13.8078 12.8317 12.9834C12.9957 12.1589 13.4004 11.4017 13.9948 10.8073C14.5892 10.2129 15.3465 9.80815 16.1709 9.64416C16.9953 9.48018 17.8498 9.56434 18.6264 9.88601C19.403 10.2077 20.0668 10.7524 20.5338 11.4513C21.0008 12.1502 21.25 12.9719 21.25 13.8125C21.2486 14.9392 20.8004 16.0194 20.0037 16.8162C19.2069 17.6129 18.1268 18.0611 17 18.0625Z" fill="white"/>
</svg>
