<svg width="42" height="50" viewBox="0 0 42 50" fill="none" xmlns="http://www.w3.org/2000/svg">
<path d="M0.992459 49.6232H41.0075C41.5561 49.6232 42 49.1788 42 48.6307C42 43.207 39.6904 38.2175 35.8722 34.7248C39.5363 18.6088 39.4464 8.68163 35.5848 4.40875C33.0794 1.63678 29.6541 2.06856 28.0074 2.2784C27.8029 2.30411 27.6227 2.32884 27.4715 2.34236C26.2008 1.77349 20.1316 -0.776085 15.5356 0.234337C12.8024 0.835224 8.9982 2.46307 6.39781 6.80463C2.76641 12.8665 2.67464 22.2694 6.10755 34.7443C2.30148 38.236 0 43.2169 0 48.6307C-1.23139e-07 49.1788 0.443882 49.6232 0.992459 49.6232ZM8.09976 7.82475C10.3377 4.08986 13.6107 2.68982 15.962 2.17281C20.3477 1.21372 26.7891 4.21199 26.8531 4.24205C27.203 4.4083 27.6091 4.32976 28.2565 4.24784C29.7714 4.05641 32.303 3.73662 34.1126 5.7395C36.3821 8.25142 38.1848 15.0912 34.1547 33.3232C32.6208 32.2217 30.9072 31.3323 29.0416 30.7177C28.5492 30.5544 28.0143 30.8034 27.8146 31.2808C27.7312 31.4799 25.7298 36.152 21 36.152C16.2702 36.152 14.2698 31.4799 14.1874 31.2837C13.9906 30.8015 13.4537 30.5529 12.9594 30.7177C11.0719 31.3395 9.33859 32.2409 7.79116 33.3604C4.74141 21.8619 4.83836 13.2699 8.09976 7.82475ZM12.7743 32.8906C13.7134 34.5742 16.2586 38.137 21 38.137C25.7414 38.137 28.2875 34.5742 29.2257 32.8906C35.4055 35.2754 39.6022 41.034 39.986 47.6383H2.014C2.39784 41.034 6.5945 35.2759 12.7743 32.8906Z" fill="white"/>
<path d="M15.2259 25.5734C16.6964 26.7347 18.2778 27.3547 19.9264 27.4162C19.992 27.4189 20.0575 27.4201 20.1238 27.4201C21.6038 27.4201 23.1397 26.7992 24.6917 25.5726C26.0661 24.4836 27.2776 22.9407 28.199 21.1071C28.5219 20.6351 30.1657 18.0869 29.6143 15.9274C29.3841 15.0264 28.7888 14.3045 27.893 13.8394C27.6924 13.7352 27.4583 13.7156 27.2409 13.7867C19.7378 16.2391 17.263 10.3859 17.1623 10.138C17.0376 9.82591 16.7587 9.63907 16.3735 9.63293C16.0259 9.64295 15.7222 9.86395 15.6175 10.183C15.3434 11.0172 14.3077 13.2712 12.8254 13.6802C11.3621 14.0846 10.3352 15.1774 10.2098 16.4636C10.0132 18.484 11.4628 20.7293 11.7178 21.1056C12.6384 22.9392 13.8499 24.4833 15.2259 25.5734ZM13.1098 20.2768C12.7127 19.7079 11.7098 17.9401 11.84 16.6105C11.9151 15.8371 12.6615 15.3639 13.2769 15.1936C14.8208 14.7677 15.878 13.335 16.4989 12.1911C17.9198 14.1815 21.2298 17.2493 27.3959 15.3943C27.7243 15.6287 27.9273 15.9224 28.0248 16.301C28.3684 17.6399 27.2624 19.6249 26.8077 20.2768C26.7853 20.3083 26.7654 20.3422 26.7486 20.3764C25.9263 22.0266 24.8555 23.4031 23.652 24.3568C22.3326 25.3993 21.1323 25.8844 19.9904 25.8432C18.7061 25.7952 17.4531 25.2951 16.2656 24.3572C15.0613 23.4027 13.9905 22.0262 13.1698 20.3768C13.1522 20.3422 13.1323 20.3083 13.1098 20.2768Z" fill="white"/>
</svg>
