<svg width="44" height="37" viewBox="0 0 44 37" fill="none" xmlns="http://www.w3.org/2000/svg">
<path d="M28.1391 8.43176L25.7594 7.73653H36.0785C36.8902 7.73653 37.6445 7.42218 38.1958 6.85751C38.763 6.29035 39.0757 5.53524 39.0757 4.73107C39.0757 3.07865 37.7309 1.73475 36.0785 1.73475H21.4893C20.8336 0.666177 19.673 0 18.3896 0H10.8414C8.152 0 5.61764 1.04784 3.70243 2.95307C1.80011 4.86579 0.752686 7.40056 0.752686 10.0892C0.752686 15.6569 5.27834 20.1867 10.8414 20.1867H19.1751L22.4791 21.153C22.7419 21.2295 23.0126 21.2686 23.2841 21.2686C24.549 21.2686 25.68 20.4204 26.0359 19.2062C26.163 18.7718 26.1714 18.3339 26.0984 17.9156C26.1334 17.9169 26.1679 17.923 26.2031 17.923C27.4555 17.923 28.5865 17.0773 28.9557 15.8581C29.1757 15.1013 29.0685 14.3257 28.7188 13.6831C29.3591 13.3235 29.8644 12.7261 30.0876 11.9878C30.3013 11.2526 30.2165 10.4784 29.8489 9.80726C29.4805 9.13365 28.8734 8.64466 28.1391 8.43176ZM36.0785 3.4379C36.7921 3.4379 37.3725 4.01837 37.3725 4.73107C37.3725 5.08035 37.237 5.408 36.9842 5.66082C36.7496 5.90115 36.4278 6.03338 36.0785 6.03338H22.0342V3.64498C22.0342 3.5746 22.018 3.50755 22.0141 3.4379H36.0785ZM14.5039 15.8323C14.2889 16.5675 14.3729 17.3425 14.7409 18.0145C14.833 18.1829 14.9403 18.3396 15.0608 18.4835H10.8414C6.21766 18.4835 2.45584 14.718 2.45584 10.0892C2.45584 7.85379 3.32737 5.74564 4.90661 4.15725C6.4975 2.57469 8.60523 1.70315 10.8414 1.70315H18.3896C19.1797 1.70315 19.884 2.17634 20.1867 2.91482C20.2824 3.14351 20.331 3.38967 20.331 3.64498V9.0297C20.331 9.58355 19.9851 10.0842 19.462 10.2796C19.0512 10.4385 18.5826 10.3719 18.2507 10.1524C18.1755 10.1008 18.106 10.0434 18.0495 9.98689C17.7942 9.72493 17.6532 9.3848 17.6532 9.0297V5.20592C17.6532 4.75602 17.3035 4.38428 16.8545 4.35601C16.4091 4.32857 16.0124 4.65373 15.9567 5.10031C15.9418 5.21923 15.5459 8.02344 11.6065 8.11492C11.1367 8.12573 10.7641 8.51576 10.7753 8.98645C10.7857 9.45632 11.1379 9.81807 11.6465 9.81807C13.6249 9.7715 15.0108 9.13864 15.9501 8.32033V9.0297C15.9501 9.62202 16.1228 10.1915 16.4434 10.6865C16.0693 11.034 15.7814 11.4678 15.6374 11.9686C15.4188 12.7194 15.5258 13.4911 15.8743 14.1331C15.2269 14.4921 14.7202 15.0927 14.5039 15.8323ZM24.401 18.7272C24.2263 19.3268 23.5619 19.6968 22.9569 19.518L16.9293 17.755C16.6307 17.6677 16.3842 17.4698 16.2349 17.197C16.0856 16.9242 16.0515 16.6091 16.1388 16.3105C16.2831 15.8174 16.7422 15.4731 17.2557 15.4731C17.3617 15.4731 17.4671 15.4894 17.5702 15.5186C17.5753 15.5202 17.5795 15.5231 17.5846 15.5246L23.6194 17.2873C24.2295 17.4717 24.5805 18.1151 24.401 18.7272ZM27.3233 15.3733C27.1395 15.9787 26.5316 16.3587 25.8746 16.1716L24.0999 15.6533C24.0958 15.6521 24.0924 15.6497 24.0883 15.6485L18.0603 13.8855C18.0557 13.8842 18.0508 13.8837 18.0462 13.8824C17.4431 13.6888 17.0961 13.0505 17.2732 12.4418C17.3504 12.1735 17.5267 11.9461 17.7623 11.7954C18.3852 12.0655 19.084 12.121 19.7392 11.9534L26.5347 13.9378C27.1466 14.1191 27.5 14.7659 27.3233 15.3733ZM28.4551 11.5029C28.2721 12.11 27.6584 12.4892 27.0072 12.3013L21.5257 10.7007C21.8472 10.2139 22.0342 9.63673 22.0342 9.0297V8.42256L27.6626 10.0667C28.278 10.2455 28.6322 10.8942 28.4551 11.5029Z" fill="white"/>
<path d="M38.8187 8.59323C38.491 8.28387 37.9788 8.28387 37.6511 8.59323C37.2062 9.01236 34.9874 11.1854 34.9874 12.7946C34.9874 14.585 36.4444 16.042 38.2349 16.042C40.0254 16.042 41.4824 14.585 41.4824 12.7946C41.4824 11.1854 39.2636 9.01236 38.8187 8.59323ZM38.2349 14.3389C37.3833 14.3389 36.6906 13.6461 36.6906 12.7946C36.6906 12.333 37.4133 11.3118 38.2349 10.4244C39.0565 11.3118 39.7792 12.333 39.7792 12.7946C39.7792 13.6461 39.0865 14.3389 38.2349 14.3389Z" fill="white"/>
<path d="M40.9376 22.1751V18.7229C40.9376 18.2522 40.5568 17.8713 40.0861 17.8713H36.3704C35.8997 17.8713 35.5188 18.2522 35.5188 18.7229V22.1751C33.8409 23.1243 32.7038 24.9226 32.7038 26.9842V35.4534C32.7038 35.9241 33.0847 36.305 33.5554 36.305H42.9011C43.3718 36.305 43.7527 35.9241 43.7527 35.4534V26.9842C43.7527 24.9226 42.6156 23.1243 40.9376 22.1751ZM37.222 19.5745H39.2345V21.556C38.9077 21.4956 38.5723 21.4598 38.2282 21.4598C37.8842 21.4598 37.5488 21.4956 37.222 21.556V19.5745ZM42.0495 34.6018H34.4069V26.9842C34.4069 24.8769 36.1209 23.1629 38.2282 23.1629C40.3355 23.1629 42.0495 24.8769 42.0495 26.9842V34.6018Z" fill="white"/>
<path d="M38.2283 26.0228C36.6914 26.0228 35.4415 27.2727 35.4415 28.8096V32.7148C35.4415 33.1855 35.8224 33.5664 36.2931 33.5664H40.1634C40.6341 33.5664 41.015 33.1855 41.015 32.7148V28.8096C41.015 27.2727 39.7651 26.0228 38.2283 26.0228ZM39.3119 31.8633H37.1447V28.8096C37.1447 28.2125 37.6312 27.726 38.2283 27.726C38.8254 27.726 39.3119 28.2125 39.3119 28.8096V31.8633Z" fill="white"/>
</svg>
