<svg width="81" height="81" viewBox="0 0 81 81" fill="none" xmlns="http://www.w3.org/2000/svg">
<circle cx="40.5" cy="40.5" r="39.5" fill="white" stroke="#936F01" stroke-width="2"/>
<g clip-path="url(#clip0_36_102)">
<path d="M35.175 23.955C35.175 24.129 35.2441 24.296 35.3672 24.419C35.4903 24.5421 35.6572 24.6112 35.8313 24.6112H37.0978C37.2123 24.6109 37.3266 24.5999 37.4391 24.5784C37.8128 25.7418 38.5487 26.7552 39.5393 27.4706C40.5299 28.1861 41.7233 28.566 42.9451 28.555C44.167 28.544 45.3534 28.1426 46.3309 27.4095C47.3085 26.6764 48.026 25.6499 48.3788 24.48C48.4956 24.5022 48.6142 24.5132 48.7331 24.5128H49.9669C50.1409 24.5128 50.3078 24.4437 50.4309 24.3206C50.554 24.1975 50.6231 24.0306 50.6231 23.8566V21.4087C50.6215 21.3129 50.599 21.2186 50.557 21.1325C50.5151 21.0463 50.4548 20.9704 50.3803 20.91C49.9725 19.2243 49.0083 17.7254 47.6435 16.6553C46.2786 15.5852 44.5929 15.0064 42.8587 15.0125C41.1244 15.0185 39.4427 15.6091 38.0855 16.6887C36.7282 17.7683 35.7745 19.274 35.3784 20.9625C35.3125 21.0237 35.2598 21.0978 35.2236 21.1802C35.1875 21.2626 35.1687 21.3516 35.1684 21.4416L35.175 23.955ZM36.4875 23.2987V22.6425C36.4875 22.4653 36.4875 22.2881 36.4875 22.1109H37.0716C37.1489 22.1125 37.225 22.1298 37.2955 22.1617C37.3659 22.1936 37.4291 22.2395 37.4812 22.2966C37.5334 22.3536 37.5734 22.4207 37.5989 22.4937C37.6244 22.5667 37.6347 22.6441 37.6294 22.7212C37.6294 22.8692 37.5706 23.0111 37.466 23.1157C37.3614 23.2203 37.2195 23.2791 37.0716 23.2791L36.4875 23.2987ZM42.8925 27.2362C41.8996 27.2326 40.9368 26.8955 40.1585 26.279C39.3802 25.6626 38.8316 24.8025 38.6006 23.8369C38.8402 23.5019 38.9688 23.1003 38.9681 22.6884C38.9686 22.3111 38.8542 21.9425 38.64 21.6319C38.8778 20.6806 39.4268 19.836 40.1997 19.2325C40.9726 18.6291 41.925 18.3013 42.9056 18.3013C43.8862 18.3013 44.8387 18.6291 45.6116 19.2325C46.3845 19.836 46.9335 20.6806 47.1713 21.6319C46.9829 21.9329 46.8829 22.2808 46.8825 22.6359C46.8824 23.0274 47.0065 23.4088 47.2369 23.7253C47.0212 24.7192 46.472 25.6094 45.6806 26.248C44.8891 26.8867 43.903 27.2354 42.8859 27.2362H42.8925ZM49.3041 23.2003H48.7331C48.6075 23.1977 48.4868 23.1513 48.3919 23.0691C48.3314 23.0144 48.2831 22.9475 48.2503 22.8729C48.2175 22.7982 48.2009 22.7175 48.2016 22.6359C48.2016 22.488 48.2603 22.3461 48.3649 22.2415C48.4696 22.1369 48.6114 22.0781 48.7594 22.0781H49.2909C49.32 22.3199 49.3353 22.5631 49.3369 22.8066L49.3041 23.2003ZM42.8859 16.3687C44.2293 16.3723 45.5376 16.7972 46.6266 17.5837C47.7157 18.3701 48.5305 19.4785 48.9563 20.7525H48.72C48.5669 20.7555 48.4148 20.7775 48.2672 20.8181C47.867 19.7067 47.1326 18.7463 46.1649 18.0689C45.1972 17.3914 44.0435 17.0301 42.8622 17.0344C41.6809 17.0387 40.5299 17.4085 39.5672 18.093C38.6044 18.7775 37.8771 19.7432 37.485 20.8575C37.3558 20.8282 37.2238 20.8128 37.0913 20.8116H36.7894C37.2073 19.5228 38.022 18.3991 39.1169 17.6012C40.2119 16.8032 41.5311 16.3719 42.8859 16.3687Z" fill="#936F01"/>
<path d="M29.82 50.8612V52.305C29.8336 52.7844 30.0328 53.2398 30.3755 53.5752C30.7183 53.9107 31.1779 54.0999 31.6575 54.1031H54.0816C54.5611 54.0999 55.0208 53.9107 55.3635 53.5752C55.7063 53.2398 55.9055 52.7844 55.9191 52.305V50.8612L57.6713 36.87C57.6713 36.87 57.6713 36.8306 57.6713 36.8109C57.681 36.5208 57.6319 36.2317 57.527 35.9611C57.4222 35.6904 57.2636 35.4437 57.0609 35.2359C56.8628 35.0283 56.6244 34.863 56.3605 34.7502C56.0965 34.6374 55.8124 34.5794 55.5253 34.5797H53.5566C53.1218 33.0246 52.1909 31.6542 50.9056 30.6769C49.6203 29.6996 48.0509 29.1689 46.4363 29.1656H39.2963C37.6816 29.1689 36.1122 29.6996 34.8269 30.6769C33.5416 31.6542 32.6107 33.0246 32.1759 34.5797H30.2072C29.9201 34.5794 29.636 34.6374 29.372 34.7502C29.1081 34.863 28.8698 35.0283 28.6716 35.2359C28.4636 35.4519 28.3026 35.7086 28.1987 35.9898C28.0948 36.271 28.0502 36.5707 28.0678 36.87L29.82 50.8612ZM54.1013 52.7906H31.6903C31.5538 52.789 31.4232 52.735 31.3254 52.6397C31.2277 52.5444 31.1704 52.4152 31.1653 52.2787V51.4387H54.6263V52.2853C54.6194 52.424 54.5586 52.5545 54.4569 52.6489C54.3551 52.7434 54.2204 52.7942 54.0816 52.7906H54.1013ZM45.15 30.4781C45.0113 30.9673 44.7168 31.3979 44.3111 31.7046C43.9055 32.0112 43.4108 32.1771 42.9023 32.1771C42.3938 32.1771 41.8992 32.0112 41.4936 31.7046C41.0879 31.3979 40.7934 30.9673 40.6547 30.4781H45.15ZM39.2963 30.4781C39.442 31.3298 39.8843 32.1025 40.5448 32.6595C41.2053 33.2166 42.0416 33.5221 42.9056 33.5221C43.7697 33.5221 44.6059 33.2166 45.2664 32.6595C45.927 32.1025 46.3692 31.3298 46.515 30.4781C47.7753 30.4846 49.0026 30.882 50.0276 31.6155C51.0525 32.3489 51.8246 33.3823 52.2375 34.5731H33.5541C33.9658 33.3811 34.7375 32.3463 35.7625 31.6116C36.7876 30.8769 38.0154 30.4785 39.2766 30.4716L39.2963 30.4781ZM29.6166 36.135C29.6932 36.0559 29.785 35.9931 29.8865 35.9502C29.988 35.9074 30.097 35.8854 30.2072 35.8856H55.5647C55.6748 35.8854 55.7839 35.9074 55.8854 35.9502C55.9868 35.9931 56.0787 36.0559 56.1553 36.135C56.3118 36.2942 56.3991 36.5089 56.3981 36.7322L54.7247 50.1197H31.0472L29.3738 36.7584C29.3697 36.6435 29.3892 36.5289 29.431 36.4217C29.4727 36.3145 29.5359 36.217 29.6166 36.135Z" fill="#936F01"/>
<path d="M57.4875 54.4312H18.1125C17.9385 54.4312 17.7715 54.5004 17.6485 54.6235C17.5254 54.7465 17.4563 54.9134 17.4563 55.0875C17.4563 55.2615 17.5254 55.4285 17.6485 55.5515C17.7715 55.6746 17.9385 55.7437 18.1125 55.7437H57.4875C57.6616 55.7437 57.8285 55.6746 57.9515 55.5515C58.0746 55.4285 58.1438 55.2615 58.1438 55.0875C58.1438 54.9134 58.0746 54.7465 57.9515 54.6235C57.8285 54.5004 57.6616 54.4312 57.4875 54.4312Z" fill="#936F01"/>
<path d="M20.4094 54.1031H25.9875C26.1616 54.1031 26.3285 54.034 26.4515 53.9109C26.5746 53.7878 26.6438 53.6209 26.6438 53.4469V53.1712C26.6438 52.2575 26.2808 51.3812 25.6346 50.735C24.9885 50.0889 24.1122 49.7259 23.1984 49.7259C22.2847 49.7259 21.4084 50.0889 20.7622 50.735C20.1161 51.3812 19.7531 52.2575 19.7531 53.1712V53.4469C19.7531 53.6209 19.8223 53.7878 19.9453 53.9109C20.0684 54.034 20.2353 54.1031 20.4094 54.1031ZM22.5422 51.15V51.9178C22.5422 52.0919 22.6113 52.2588 22.7344 52.3818C22.8575 52.5049 23.0244 52.5741 23.1984 52.5741C23.3725 52.5741 23.5394 52.5049 23.6625 52.3818C23.7856 52.2588 23.8547 52.0919 23.8547 51.9178V51.15C24.2209 51.2678 24.5485 51.4825 24.8027 51.7713C25.0568 52.0602 25.2281 52.4124 25.2984 52.7906H21.0984C21.1687 52.4124 21.34 52.0602 21.5942 51.7713C21.8484 51.4825 22.1759 51.2678 22.5422 51.15Z" fill="#936F01"/>
<path d="M40.4775 44.1281L40.1363 46.1362C40.1171 46.2558 40.1314 46.3783 40.1775 46.4902C40.2236 46.6021 40.2998 46.6991 40.3976 46.7704C40.4954 46.8417 40.611 46.8846 40.7317 46.8943C40.8523 46.904 40.9733 46.8801 41.0813 46.8253L42.8859 45.9L44.6841 46.845C44.7922 46.9016 44.914 46.9269 45.0357 46.918C45.1574 46.9092 45.2743 46.8666 45.3731 46.795C45.472 46.7234 45.5489 46.6257 45.5953 46.5128C45.6417 46.3999 45.6556 46.2763 45.6356 46.1559L45.2944 44.1478L46.7447 42.7303C46.8332 42.6451 46.8959 42.5368 46.9259 42.4177C46.9559 42.2986 46.9518 42.1735 46.9142 42.0566C46.8766 41.9397 46.807 41.8357 46.7132 41.7564C46.6194 41.6771 46.5053 41.6258 46.3838 41.6081L44.3625 41.3062L43.4634 39.4819C43.409 39.3727 43.3252 39.2808 43.2215 39.2166C43.1177 39.1524 42.9981 39.1183 42.8761 39.1183C42.7541 39.1183 42.6345 39.1524 42.5307 39.2166C42.427 39.2808 42.3432 39.3727 42.2888 39.4819L41.3963 41.3062L39.3881 41.6016C39.2666 41.6192 39.1524 41.6706 39.0587 41.7499C38.9649 41.8291 38.8952 41.9332 38.8576 42.0501C38.82 42.167 38.816 42.2921 38.846 42.4112C38.8759 42.5303 38.9387 42.6386 39.0272 42.7237L40.4775 44.1281ZM41.9278 42.5466C42.033 42.5308 42.1327 42.4897 42.2184 42.4268C42.3042 42.3639 42.3733 42.2811 42.42 42.1856L42.8794 41.2472L43.3387 42.1856C43.3854 42.2811 43.4546 42.3639 43.5403 42.4268C43.6261 42.4897 43.7258 42.5308 43.8309 42.5466L44.8678 42.6975L44.1197 43.4325C44.0437 43.5063 43.9868 43.5973 43.9536 43.6979C43.9205 43.7984 43.9122 43.9055 43.9294 44.01L44.1066 45.0469L43.1878 44.5875C43.0937 44.5381 42.989 44.5122 42.8827 44.5122C42.7763 44.5122 42.6716 44.5381 42.5775 44.5875L41.6522 45.0731L41.8294 44.0362C41.8466 43.9318 41.8383 43.8247 41.8051 43.7241C41.772 43.6236 41.715 43.5325 41.6391 43.4587L40.8909 42.7237L41.9278 42.5466Z" fill="#936F01"/>
</g>
<defs>
<clipPath id="clip0_36_102">
<rect width="42" height="52.5" fill="white" transform="translate(16.8 14.4)"/>
</clipPath>
</defs>
</svg>
