<svg width="81" height="84" viewBox="0 0 81 84" fill="none" xmlns="http://www.w3.org/2000/svg">
<path d="M80 41.5332C80 63.9429 62.2916 82.0663 40.5 82.0663C18.7083 82.0663 1 63.9429 1 41.5332C1 19.1234 18.7083 1 40.5 1C62.2916 1 80 19.1234 80 41.5332Z" fill="white" stroke="#936F01" stroke-width="2"/>
<path d="M40.8717 32.2924L40.8717 32.2925L40.8775 32.2864C43.089 29.98 46.7258 29.9712 48.9893 32.2924L49.4756 32.7912L49.4755 32.7912L49.4784 32.794C50.6128 33.9589 51.179 35.4811 51.181 36.9973C51.1791 38.5196 50.6126 40.0413 49.4815 41.182L49.4814 41.1819L49.4756 41.188L39.5282 51.3891C37.3164 53.6573 33.6726 53.6669 31.4076 51.386L30.9243 50.8904C28.6987 48.608 28.6895 44.8274 30.9274 42.4904L40.8717 32.2924ZM43.7282 45.3046L44.4442 46.0388L45.1601 45.3046L49.3601 40.9974C51.5119 38.7908 51.4998 35.2307 49.3687 32.9906L49.3687 32.9906L49.3601 32.9817L48.8738 32.483L48.8739 32.4829L48.8651 32.4742C46.6668 30.2748 43.1528 30.2621 40.9872 32.483L36.7872 36.7901L36.1064 37.4883L36.7872 38.1864L43.7282 45.3046ZM41.5349 37.7422L41.5165 37.7234L41.4971 37.7055C41.4964 37.7049 41.4951 37.7038 41.4931 37.6991C41.4907 37.6933 41.4873 37.6816 41.4873 37.664C41.4873 37.6273 41.5018 37.5856 41.5349 37.5517L43.5243 35.5115C44.2956 34.7205 45.5588 34.7641 46.2085 35.5136L46.2277 35.5358L46.2482 35.5568C46.2904 35.6 46.2957 35.6341 46.2957 35.6521C46.2957 35.67 46.2904 35.7041 46.2482 35.7474L46.2299 35.7662L46.2133 35.7851C46.2119 35.7853 46.2098 35.7855 46.2071 35.7855C46.1953 35.7855 46.1715 35.7814 46.144 35.758C45.4445 34.9783 44.2519 35.0743 43.5956 35.7474L41.6503 37.7422L41.632 37.761L41.6154 37.78C41.614 37.7802 41.612 37.7804 41.6092 37.7804C41.5958 37.7804 41.5669 37.7751 41.5349 37.7422ZM53.4964 55.3219L54.2537 56.1038L54.9687 55.283C58.0838 51.7071 59.9894 46.9873 59.9894 41.8408C59.9894 30.7032 51.1211 21.572 40.2 21.572C35.1602 21.572 30.5459 23.5349 27.0571 26.7312L26.2964 27.428L27.0166 28.1667L33.002 34.3047L32.8268 34.4794L26.857 28.3572L26.0939 27.5747L25.3821 28.4041C22.3156 31.9776 20.4105 36.6948 20.4105 41.8408C20.4105 52.9783 29.2788 62.1096 40.2 62.1096C45.2401 62.1096 49.8491 60.1467 53.3766 57.0051L54.1579 56.3093L53.4275 55.5602L47.423 49.4025L47.5909 49.2254L53.4964 55.3219ZM20.2 41.8408C20.2 30.4905 29.1927 21.3051 40.2 21.3051C51.2072 21.3051 60.2 30.4905 60.2 41.8408C60.2 53.191 51.2072 62.3765 40.2 62.3765C29.1927 62.3765 20.2 53.191 20.2 41.8408Z" fill="#936F01" fill-opacity="0.81" stroke="#936F01" stroke-width="2"/>
</svg>
