<svg width="81" height="81" viewBox="0 0 81 81" fill="none" xmlns="http://www.w3.org/2000/svg">
<circle cx="40.5" cy="40.5" r="39.5" fill="white" stroke="#936F01" stroke-width="2"/>
<mask id="path-2-inside-1_36_66" fill="white">
<path fill-rule="evenodd" clip-rule="evenodd" d="M46.3036 47.1049C46.3036 42.9681 42.966 39.6037 38.8621 39.6037C34.7582 39.6037 31.4201 42.9681 31.4201 47.1049C31.4201 51.2407 34.7577 54.6051 38.8616 54.6051C42.9655 54.6051 46.3036 51.2402 46.3036 47.1049ZM48.0276 47.1049C48.0276 52.2002 43.9143 56.3455 38.8616 56.3455C33.8047 56.3455 29.6956 52.2002 29.6956 47.1049C29.6956 42.009 33.8047 37.8628 38.8616 37.8628C43.9143 37.8628 48.0276 42.009 48.0276 47.1049ZM56.4756 63.5317C56.4756 63.1754 56.3414 62.8416 56.0929 62.5916L52.3734 58.8431C51.8553 58.3209 51.011 58.3206 50.4924 58.8424C49.9791 59.359 49.9787 60.1931 50.4916 60.7101L54.2245 64.4729C54.474 64.7229 54.8042 64.8591 55.1587 64.8591C55.5133 64.8591 55.8439 64.7224 56.0929 64.4729C56.3419 64.224 56.4756 63.8891 56.4756 63.5317ZM47.2949 56.1347C47.4401 56.2825 47.678 56.2833 47.8243 56.1366C47.9689 55.9915 47.9692 55.7568 47.8249 55.6114L47.8161 55.6025C47.671 55.4562 47.4328 55.4613 47.2876 55.6075C47.146 55.7501 47.1427 55.9798 47.2836 56.1231L47.2949 56.1347ZM38.8621 57.3888C33.235 57.3888 28.6616 52.7746 28.6616 47.1049C28.6616 41.4336 33.235 36.8204 38.8621 36.8204C44.4893 36.8204 49.0626 41.4336 49.0626 47.1049C49.0626 52.7746 44.4893 57.3888 38.8621 57.3888ZM28.8675 54.9172C28.8675 55.1219 29.0335 55.2879 29.2382 55.2879H29.2993C29.6164 55.2879 29.7862 54.9051 29.5877 54.6579C29.3609 54.3757 28.8675 54.5292 28.8675 54.8912V54.9172ZM25.8557 51.6901C25.1228 51.6902 24.5286 51.0961 24.5286 50.3632V30.2578C24.5286 27.4964 26.7672 25.2578 29.5286 25.2578H31.1326C32.478 25.2578 33.5698 24.1557 33.5698 22.8011V21.1399C33.5698 18.3785 35.8083 16.1399 38.5698 16.1399H45.9633C48.7247 16.1399 50.9633 18.3785 50.9633 21.1399V51.2587C50.9633 51.4971 50.7701 51.6903 50.5317 51.6903C50.2242 51.6903 50.0146 51.3775 50.1165 51.0874C50.5547 49.84 50.7917 48.4998 50.7917 47.1049C50.7917 43.7011 49.3802 40.6227 47.1166 38.4331C46.5773 37.9114 46.9231 36.8204 47.6735 36.8204C48.1528 36.8204 48.5355 36.43 48.5355 35.9505C48.5355 35.47 48.1528 35.0806 47.6735 35.0806H27.8184C27.339 35.0806 26.9564 35.4705 26.9564 35.9505C26.9564 36.4305 27.339 36.8204 27.8184 36.8204H29.4694C30.3836 36.8204 30.8254 38.1795 30.2004 38.8467C30.0219 39.0372 29.7752 39.1509 29.5141 39.1509H27.8178C27.3385 39.1509 26.9559 39.5402 26.9559 40.0208C26.9559 40.5013 27.3385 40.8907 27.8178 40.8907C28.1845 40.8907 28.4135 41.293 28.2466 41.6194C27.4053 43.2647 26.9315 45.1297 26.9315 47.1044C26.9315 48.0336 27.037 48.9385 27.2359 49.808C27.4462 50.7273 26.7988 51.69 25.8557 51.6901ZM28.7783 20.4609C27.6552 21.5929 28.457 23.518 30.0516 23.518H31.1326C31.5246 23.518 31.8453 23.1957 31.8453 22.8005V21.7243C31.8453 20.1229 29.9063 19.3241 28.7783 20.4609ZM51.8305 53.4296H49.2643C49.1003 53.4296 48.9478 53.5152 48.8591 53.6531C48.7367 53.8433 48.7607 54.0928 48.92 54.2535L49.2457 54.582C49.2795 54.6162 49.3347 54.6164 49.3688 54.5826C49.7042 54.243 50.25 54.243 50.5853 54.5826C51.0325 55.034 51.6415 55.2879 52.2769 55.2879H52.4667C54.033 55.2879 55.3027 54.0182 55.3027 52.4519V21.0426C55.3027 20.3218 54.7184 19.7375 53.9976 19.7375C53.2767 19.7375 52.6924 20.3218 52.6924 21.0426V52.5602C52.6924 53.0397 52.3046 53.4296 51.8305 53.4296ZM48.4631 58.4271C48.3979 58.4928 48.2915 58.4928 48.2264 58.4269C48.1621 58.362 48.1621 58.2573 48.2265 58.1924L49.8594 56.5468C49.9246 56.4812 50.0307 56.4812 50.0958 56.5468C50.1602 56.6117 50.1602 56.7164 50.0958 56.7813L48.4631 58.4271ZM58.2 63.5317C58.2 64.354 57.8844 65.1243 57.3136 65.7029C56.7391 66.2814 55.9734 66.6 55.1587 66.6C54.3446 66.6 53.5788 66.2819 53.0038 65.7029L46.2802 58.9243C46.1175 58.7613 46.0265 58.5396 46.0265 58.3091C46.0265 58.0785 46.118 57.8573 46.2802 57.6944C46.3144 57.6602 46.3145 57.6048 46.2804 57.5706L45.9817 57.2709C45.8058 57.0945 45.529 57.0715 45.3203 57.2077C43.4602 58.4223 41.2414 59.1282 38.8621 59.1282C36.923 59.1282 35.0907 58.6596 33.4711 57.8289C32.567 57.3652 31.589 57.0278 30.5729 57.0278H28.006C27.5267 57.0278 27.1389 56.6373 27.1389 56.1578C27.1389 54.6511 25.9174 53.4296 24.4107 53.4296H23.6619C23.1878 53.4296 22.8 53.0397 22.8 52.5602V24.3884C22.8 24.1578 22.8915 23.9356 23.0537 23.7732L32.1006 14.6547C32.2633 14.4917 32.4785 14.4 32.7078 14.4H51.8305C52.3046 14.4 52.6924 14.7899 52.6924 15.27C52.6924 16.7761 53.9134 17.9971 55.4196 17.9971H56.1693C56.6435 17.9971 57.0313 18.3875 57.0313 18.8676V56.1578C57.0313 56.6373 56.6435 57.0278 56.1693 57.0278C55.0008 57.0278 54.4133 58.4384 55.2363 59.2679L57.3136 61.3616C57.8839 61.9397 58.2 62.7116 58.2 63.5317ZM36.5014 20.5367H47.6735C48.1528 20.5367 48.5355 20.1468 48.5355 19.6667C48.5355 19.1857 48.1528 18.7963 47.6735 18.7963H36.5014C36.022 18.7963 35.6394 19.1851 35.6394 19.6667C35.6389 20.1468 36.022 20.5367 36.5014 20.5367ZM36.5014 24.6075H47.6735C48.1528 24.6075 48.5355 24.2186 48.5355 23.7375C48.5355 23.2575 48.1528 22.8676 47.6735 22.8676H36.5014C36.022 22.8676 35.6394 23.2575 35.6394 23.7375C35.6389 24.2186 36.022 24.6075 36.5014 24.6075ZM27.8184 28.6778H47.673C48.1523 28.6778 48.535 28.2889 48.535 27.8078C48.535 27.3278 48.1523 26.9379 47.673 26.9379H27.8184C27.339 26.9379 26.9564 27.3278 26.9564 27.8078C26.9564 28.2889 27.3396 28.6778 27.8184 28.6778ZM26.9564 31.8797C26.9564 32.3597 27.339 32.7496 27.8184 32.7496H47.673C48.1523 32.7496 48.535 32.3597 48.535 31.8797C48.535 31.3986 48.1523 31.0093 47.673 31.0093H27.8184C27.3396 31.0093 26.9564 31.3986 26.9564 31.8797Z"/>
</mask>
<path fill-rule="evenodd" clip-rule="evenodd" d="M46.3036 47.1049C46.3036 42.9681 42.966 39.6037 38.8621 39.6037C34.7582 39.6037 31.4201 42.9681 31.4201 47.1049C31.4201 51.2407 34.7577 54.6051 38.8616 54.6051C42.9655 54.6051 46.3036 51.2402 46.3036 47.1049ZM48.0276 47.1049C48.0276 52.2002 43.9143 56.3455 38.8616 56.3455C33.8047 56.3455 29.6956 52.2002 29.6956 47.1049C29.6956 42.009 33.8047 37.8628 38.8616 37.8628C43.9143 37.8628 48.0276 42.009 48.0276 47.1049ZM56.4756 63.5317C56.4756 63.1754 56.3414 62.8416 56.0929 62.5916L52.3734 58.8431C51.8553 58.3209 51.011 58.3206 50.4924 58.8424C49.9791 59.359 49.9787 60.1931 50.4916 60.7101L54.2245 64.4729C54.474 64.7229 54.8042 64.8591 55.1587 64.8591C55.5133 64.8591 55.8439 64.7224 56.0929 64.4729C56.3419 64.224 56.4756 63.8891 56.4756 63.5317ZM47.2949 56.1347C47.4401 56.2825 47.678 56.2833 47.8243 56.1366C47.9689 55.9915 47.9692 55.7568 47.8249 55.6114L47.8161 55.6025C47.671 55.4562 47.4328 55.4613 47.2876 55.6075C47.146 55.7501 47.1427 55.9798 47.2836 56.1231L47.2949 56.1347ZM38.8621 57.3888C33.235 57.3888 28.6616 52.7746 28.6616 47.1049C28.6616 41.4336 33.235 36.8204 38.8621 36.8204C44.4893 36.8204 49.0626 41.4336 49.0626 47.1049C49.0626 52.7746 44.4893 57.3888 38.8621 57.3888ZM28.8675 54.9172C28.8675 55.1219 29.0335 55.2879 29.2382 55.2879H29.2993C29.6164 55.2879 29.7862 54.9051 29.5877 54.6579C29.3609 54.3757 28.8675 54.5292 28.8675 54.8912V54.9172ZM25.8557 51.6901C25.1228 51.6902 24.5286 51.0961 24.5286 50.3632V30.2578C24.5286 27.4964 26.7672 25.2578 29.5286 25.2578H31.1326C32.478 25.2578 33.5698 24.1557 33.5698 22.8011V21.1399C33.5698 18.3785 35.8083 16.1399 38.5698 16.1399H45.9633C48.7247 16.1399 50.9633 18.3785 50.9633 21.1399V51.2587C50.9633 51.4971 50.7701 51.6903 50.5317 51.6903C50.2242 51.6903 50.0146 51.3775 50.1165 51.0874C50.5547 49.84 50.7917 48.4998 50.7917 47.1049C50.7917 43.7011 49.3802 40.6227 47.1166 38.4331C46.5773 37.9114 46.9231 36.8204 47.6735 36.8204C48.1528 36.8204 48.5355 36.43 48.5355 35.9505C48.5355 35.47 48.1528 35.0806 47.6735 35.0806H27.8184C27.339 35.0806 26.9564 35.4705 26.9564 35.9505C26.9564 36.4305 27.339 36.8204 27.8184 36.8204H29.4694C30.3836 36.8204 30.8254 38.1795 30.2004 38.8467C30.0219 39.0372 29.7752 39.1509 29.5141 39.1509H27.8178C27.3385 39.1509 26.9559 39.5402 26.9559 40.0208C26.9559 40.5013 27.3385 40.8907 27.8178 40.8907C28.1845 40.8907 28.4135 41.293 28.2466 41.6194C27.4053 43.2647 26.9315 45.1297 26.9315 47.1044C26.9315 48.0336 27.037 48.9385 27.2359 49.808C27.4462 50.7273 26.7988 51.69 25.8557 51.6901ZM28.7783 20.4609C27.6552 21.5929 28.457 23.518 30.0516 23.518H31.1326C31.5246 23.518 31.8453 23.1957 31.8453 22.8005V21.7243C31.8453 20.1229 29.9063 19.3241 28.7783 20.4609ZM51.8305 53.4296H49.2643C49.1003 53.4296 48.9478 53.5152 48.8591 53.6531C48.7367 53.8433 48.7607 54.0928 48.92 54.2535L49.2457 54.582C49.2795 54.6162 49.3347 54.6164 49.3688 54.5826C49.7042 54.243 50.25 54.243 50.5853 54.5826C51.0325 55.034 51.6415 55.2879 52.2769 55.2879H52.4667C54.033 55.2879 55.3027 54.0182 55.3027 52.4519V21.0426C55.3027 20.3218 54.7184 19.7375 53.9976 19.7375C53.2767 19.7375 52.6924 20.3218 52.6924 21.0426V52.5602C52.6924 53.0397 52.3046 53.4296 51.8305 53.4296ZM48.4631 58.4271C48.3979 58.4928 48.2915 58.4928 48.2264 58.4269C48.1621 58.362 48.1621 58.2573 48.2265 58.1924L49.8594 56.5468C49.9246 56.4812 50.0307 56.4812 50.0958 56.5468C50.1602 56.6117 50.1602 56.7164 50.0958 56.7813L48.4631 58.4271ZM58.2 63.5317C58.2 64.354 57.8844 65.1243 57.3136 65.7029C56.7391 66.2814 55.9734 66.6 55.1587 66.6C54.3446 66.6 53.5788 66.2819 53.0038 65.7029L46.2802 58.9243C46.1175 58.7613 46.0265 58.5396 46.0265 58.3091C46.0265 58.0785 46.118 57.8573 46.2802 57.6944C46.3144 57.6602 46.3145 57.6048 46.2804 57.5706L45.9817 57.2709C45.8058 57.0945 45.529 57.0715 45.3203 57.2077C43.4602 58.4223 41.2414 59.1282 38.8621 59.1282C36.923 59.1282 35.0907 58.6596 33.4711 57.8289C32.567 57.3652 31.589 57.0278 30.5729 57.0278H28.006C27.5267 57.0278 27.1389 56.6373 27.1389 56.1578C27.1389 54.6511 25.9174 53.4296 24.4107 53.4296H23.6619C23.1878 53.4296 22.8 53.0397 22.8 52.5602V24.3884C22.8 24.1578 22.8915 23.9356 23.0537 23.7732L32.1006 14.6547C32.2633 14.4917 32.4785 14.4 32.7078 14.4H51.8305C52.3046 14.4 52.6924 14.7899 52.6924 15.27C52.6924 16.7761 53.9134 17.9971 55.4196 17.9971H56.1693C56.6435 17.9971 57.0313 18.3875 57.0313 18.8676V56.1578C57.0313 56.6373 56.6435 57.0278 56.1693 57.0278C55.0008 57.0278 54.4133 58.4384 55.2363 59.2679L57.3136 61.3616C57.8839 61.9397 58.2 62.7116 58.2 63.5317ZM36.5014 20.5367H47.6735C48.1528 20.5367 48.5355 20.1468 48.5355 19.6667C48.5355 19.1857 48.1528 18.7963 47.6735 18.7963H36.5014C36.022 18.7963 35.6394 19.1851 35.6394 19.6667C35.6389 20.1468 36.022 20.5367 36.5014 20.5367ZM36.5014 24.6075H47.6735C48.1528 24.6075 48.5355 24.2186 48.5355 23.7375C48.5355 23.2575 48.1528 22.8676 47.6735 22.8676H36.5014C36.022 22.8676 35.6394 23.2575 35.6394 23.7375C35.6389 24.2186 36.022 24.6075 36.5014 24.6075ZM27.8184 28.6778H47.673C48.1523 28.6778 48.535 28.2889 48.535 27.8078C48.535 27.3278 48.1523 26.9379 47.673 26.9379H27.8184C27.339 26.9379 26.9564 27.3278 26.9564 27.8078C26.9564 28.2889 27.3396 28.6778 27.8184 28.6778ZM26.9564 31.8797C26.9564 32.3597 27.339 32.7496 27.8184 32.7496H47.673C48.1523 32.7496 48.535 32.3597 48.535 31.8797C48.535 31.3986 48.1523 31.0093 47.673 31.0093H27.8184C27.3396 31.0093 26.9564 31.3986 26.9564 31.8797Z" fill="#936F01" stroke="#936F01" stroke-width="4" mask="url(#path-2-inside-1_36_66)"/>
</svg>
