<svg width="42" height="59" viewBox="0 0 42 59" fill="none" xmlns="http://www.w3.org/2000/svg">
<path d="M11.3845 20.6105V21.8201C11.3845 23.3892 12.6614 24.6662 14.2306 24.6662C15.7997 24.6662 17.0767 23.3892 17.0767 21.8201V17.8801L9.35236 18.9835L9.62084 20.8619L11.3845 20.6105ZM13.2819 20.3382L15.1793 20.0678V21.8201C15.1793 22.3438 14.7533 22.7688 14.2306 22.7688C13.7078 22.7688 13.2819 22.3438 13.2819 21.8201V20.3382Z" fill="white" fill-opacity="0.84"/>
<path d="M22.7689 21.8201C22.7689 23.3892 24.0458 24.6662 25.615 24.6662C27.1841 24.6662 28.4611 23.3892 28.4611 21.8201V20.6105L30.2238 20.8628L30.4922 18.9844L22.7689 17.8801V21.8201ZM24.6663 20.0678L26.5637 20.3382V21.8201C26.5637 22.3438 26.1377 22.7688 25.615 22.7688C25.0922 22.7688 24.6663 22.3438 24.6663 21.8201V20.0678Z" fill="white" fill-opacity="0.84"/>
<path d="M24.6663 30.3585V28.4611H18.9741C16.8812 28.4611 15.1793 30.163 15.1793 32.2559H17.0767C17.0767 31.2095 17.9277 30.3585 18.9741 30.3585H24.6663Z" fill="white" fill-opacity="0.84"/>
<path d="M42 16.3718L41.7059 14.9013C41.1851 12.2952 39.9072 9.92437 38.0487 8.06871L41.7021 7.15511L40.5172 5.97018C36.6664 2.1194 31.5472 0 26.1035 0H14.3453C6.43505 0 0 6.43505 0 14.3453C0 14.9354 0.0369994 15.5341 0.110998 16.1241L0.744731 21.1912C0.278919 21.9245 0 22.7869 0 23.7176C0 25.6007 1.11188 27.2173 2.7057 27.9829C0.998035 29.6915 0 32.0348 0 34.4758V42.6916C0 46.3526 2.97893 49.3325 6.64092 49.3325H9.84943L9.74981 49.5327C9.5781 49.8752 9.48702 50.2603 9.48702 50.6436C9.48702 51.7868 10.2678 52.7431 11.3218 53.0306C11.1833 54.3976 10.7346 55.7125 9.96517 56.8671L8.6626 58.8195H24.6663C25.4821 58.8195 26.2677 58.5719 26.9365 58.1042L33.2179 53.706C34.9919 52.4661 36.0507 50.4321 36.0507 48.2662C36.0507 43.6839 33.0462 39.7943 28.9051 38.4519C32.0358 36.6484 34.1533 33.2748 34.1533 29.4098V28.4611H35.102C37.7176 28.4611 39.8455 26.3331 39.8455 23.7176V22.2679C39.8455 20.0043 39.4309 17.7398 38.6369 15.6175L40.5637 16.0995L42 16.3718ZM4.74351 20.8715H5.69221V22.8941L4.32134 21.9795L3.26923 23.5582L5.69221 25.1738V26.5637H4.74351C3.17436 26.5637 1.8974 25.2867 1.8974 23.7176C1.8974 22.1484 3.17436 20.8715 4.74351 20.8715ZM7.38565 39.6776L6.74717 36.488L7.85241 35.7509C8.87132 37.0867 10.1748 38.1245 11.651 38.8247L7.38565 39.6776ZM1.8974 42.6916V34.4758C1.8974 32.1952 2.98652 30.016 4.81182 28.6461C5.27763 28.2979 6.01667 28.5047 6.23203 29.0445L7.47103 32.143C7.54977 32.3394 7.58962 32.5462 7.58962 32.7577C7.58962 33.3137 7.31355 33.8288 6.85153 34.1372L4.63821 35.6133L5.69221 40.8891V47.3393C3.53012 46.8981 1.8974 44.9818 1.8974 42.6916ZM13.2249 53.1273H21.3989C21.0726 53.688 20.8715 54.3303 20.8715 55.0247C20.8715 55.7192 21.0726 56.3615 21.3989 56.9221H12.1311C12.742 55.7401 13.1035 54.4536 13.2249 53.1273ZM32.1297 52.1521L25.8483 56.5502C25.5002 56.7931 25.0913 56.9221 24.6663 56.9221C23.6198 56.9221 22.7689 56.0712 22.7689 55.0247C22.7689 53.9783 23.6198 53.1273 24.6663 53.1273H27.038L29.8841 49.3325H34.0281C33.7662 50.4624 33.0993 51.4737 32.1297 52.1521ZM34.1115 47.4351H30.3585V43.6403H28.4611V45.5377H22.7689V47.4351H28.4611V48.0679L26.0893 51.2299H11.9707C11.6472 51.2299 11.3844 50.9671 11.3844 50.6436C11.3844 50.5526 11.4053 50.4624 11.4461 50.3818L11.9707 49.3325H18.974V47.4351H11.9707L11.484 46.4627C11.4195 46.3318 11.3844 46.1857 11.3844 46.0386V43.6403H9.48702V46.0386C9.48702 46.4779 9.59043 46.9181 9.78681 47.3108L9.84943 47.4351H7.58962V41.5721L15.3291 40.0238C15.8386 42.0939 17.698 43.6403 19.9227 43.6403C22.2129 43.6403 24.1293 42.0076 24.5704 39.8455H25.7326C30.0947 39.8455 33.6922 43.1802 34.1115 47.4351ZM17.2512 39.8455H22.5933C22.2006 40.9469 21.157 41.7429 19.9218 41.7429C18.6866 41.7429 17.644 40.9469 17.2512 39.8455ZM32.2559 29.4098C32.2559 34.1182 28.425 37.9481 23.7176 37.9481H16.1279C13.3027 37.9481 10.7365 36.5801 9.13695 34.2833C9.36085 33.8136 9.48702 33.2957 9.48702 32.7577C9.48702 32.3033 9.40164 31.8593 9.23277 31.4371L7.99377 28.3396C7.89131 28.0844 7.7528 27.852 7.58962 27.6433V18.974C7.58962 16.2295 9.55533 13.9146 12.2098 13.4061C13.5285 14.5113 15.2257 15.1792 17.0766 15.1792H27.5124C30.1279 15.1792 32.2559 17.3072 32.2559 19.9227V29.4098ZM35.102 26.5637H34.1533V25.1738L36.5772 23.5582L35.5251 21.9795L34.1533 22.8941V20.8715H35.102C36.6711 20.8715 37.9481 22.1484 37.9481 23.7176C37.9481 25.2867 36.6711 26.5637 35.102 26.5637ZM35.2282 12.8103L36.1503 14.6546C36.9557 16.2646 37.4937 18.0073 37.7574 19.7899C36.9994 19.2757 36.0858 18.974 35.102 18.974H34.1533V17.0766C34.1533 11.3228 29.4714 6.64092 23.7176 6.64092H15.1792V8.53832H23.7176C27.7239 8.53832 31.0852 11.3152 32.0007 15.0426C30.8176 13.9535 29.2437 13.2818 27.5124 13.2818H17.0766C13.9374 13.2818 11.3844 10.7289 11.3844 7.58962V6.64092H9.48702V7.58962C9.48702 9.15213 9.96232 10.6065 10.7754 11.8142C7.79169 12.8578 5.69221 15.6953 5.69221 18.974H4.74351C3.9096 18.974 3.13736 19.2093 2.45524 19.5888L1.99322 15.8908C1.92966 15.3775 1.8974 14.8576 1.8974 14.3453C1.8974 7.48147 7.48147 1.8974 14.3453 1.8974H26.1035C30.4628 1.8974 34.5906 3.39541 37.9016 6.14854L33.8876 7.15227L35.4815 8.34858C37.3523 9.75171 38.7365 11.6785 39.4717 13.871L35.2282 12.8103Z" fill="white" fill-opacity="0.84"/>
<path d="M10.4357 28.4611C10.9597 28.4611 11.3844 28.0364 11.3844 27.5124C11.3844 26.9885 10.9597 26.5637 10.4357 26.5637C9.91175 26.5637 9.487 26.9885 9.487 27.5124C9.487 28.0364 9.91175 28.4611 10.4357 28.4611Z" fill="white" fill-opacity="0.84"/>
<path d="M12.3331 32.2559C12.8571 32.2559 13.2818 31.8312 13.2818 31.3072C13.2818 30.7833 12.8571 30.3585 12.3331 30.3585C11.8091 30.3585 11.3844 30.7833 11.3844 31.3072C11.3844 31.8312 11.8091 32.2559 12.3331 32.2559Z" fill="white" fill-opacity="0.84"/>
<path d="M14.2306 28.4611C14.7545 28.4611 15.1793 28.0364 15.1793 27.5124C15.1793 26.9885 14.7545 26.5637 14.2306 26.5637C13.7066 26.5637 13.2819 26.9885 13.2819 27.5124C13.2819 28.0364 13.7066 28.4611 14.2306 28.4611Z" fill="white" fill-opacity="0.84"/>
<path d="M27.5124 32.2559C28.0363 32.2559 28.4611 31.8312 28.4611 31.3072C28.4611 30.7833 28.0363 30.3585 27.5124 30.3585C26.9884 30.3585 26.5637 30.7833 26.5637 31.3072C26.5637 31.8312 26.9884 32.2559 27.5124 32.2559Z" fill="white" fill-opacity="0.84"/>
<path d="M23.7176 34.1533C24.2415 34.1533 24.6663 33.7285 24.6663 33.2046C24.6663 32.6806 24.2415 32.2559 23.7176 32.2559C23.1936 32.2559 22.7689 32.6806 22.7689 33.2046C22.7689 33.7285 23.1936 34.1533 23.7176 34.1533Z" fill="white" fill-opacity="0.84"/>
<path d="M19.9228 36.0507C20.4467 36.0507 20.8715 35.626 20.8715 35.102C20.8715 34.5781 20.4467 34.1533 19.9228 34.1533C19.3988 34.1533 18.9741 34.5781 18.9741 35.102C18.9741 35.626 19.3988 36.0507 19.9228 36.0507Z" fill="white" fill-opacity="0.84"/>
<path d="M25.615 36.0507C26.1389 36.0507 26.5637 35.626 26.5637 35.102C26.5637 34.5781 26.1389 34.1533 25.615 34.1533C25.091 34.1533 24.6663 34.5781 24.6663 35.102C24.6663 35.626 25.091 36.0507 25.615 36.0507Z" fill="white" fill-opacity="0.84"/>
<path d="M29.4098 28.4611C29.9337 28.4611 30.3585 28.0364 30.3585 27.5124C30.3585 26.9885 29.9337 26.5637 29.4098 26.5637C28.8858 26.5637 28.4611 26.9885 28.4611 27.5124C28.4611 28.0364 28.8858 28.4611 29.4098 28.4611Z" fill="white" fill-opacity="0.84"/>
</svg>
