<svg width="81" height="81" viewBox="0 0 81 81" fill="none" xmlns="http://www.w3.org/2000/svg">
<circle cx="40.5" cy="40.5" r="39.5" fill="white" stroke="#936F01" stroke-width="2"/>
<mask id="path-2-inside-1_36_75" fill="white">
<path d="M21.1166 57.6348H19.4805V59.0348H21.1166V57.6348Z"/>
</mask>
<path d="M21.1166 57.6348H19.4805V59.0348H21.1166V57.6348Z" fill="#936F01"/>
<path d="M19.4805 57.6348V55.6348H17.4805V57.6348H19.4805ZM21.1166 57.6348H23.1166V55.6348H21.1166V57.6348ZM21.1166 59.0348V61.0348H23.1166V59.0348H21.1166ZM19.4805 59.0348H17.4805V61.0348H19.4805V59.0348ZM19.4805 59.6348H21.1166V55.6348H19.4805V59.6348ZM19.1166 57.6348V59.0348H23.1166V57.6348H19.1166ZM21.1166 57.0348H19.4805V61.0348H21.1166V57.0348ZM21.4805 59.0348V57.6348H17.4805V59.0348H21.4805Z" fill="#936F01" mask="url(#path-2-inside-1_36_75)"/>
<mask id="path-4-inside-2_36_75" fill="white">
<path d="M23.5666 57.6348H21.9305V59.0348H23.5666V57.6348Z"/>
</mask>
<path d="M23.5666 57.6348H21.9305V59.0348H23.5666V57.6348Z" fill="#936F01"/>
<path d="M21.9305 57.6348V55.6348H19.9305V57.6348H21.9305ZM23.5666 57.6348H25.5666V55.6348H23.5666V57.6348ZM23.5666 59.0348V61.0348H25.5666V59.0348H23.5666ZM21.9305 59.0348H19.9305V61.0348H21.9305V59.0348ZM21.9305 59.6348H23.5666V55.6348H21.9305V59.6348ZM21.5666 57.6348V59.0348H25.5666V57.6348H21.5666ZM23.5666 57.0348H21.9305V61.0348H23.5666V57.0348ZM23.9305 59.0348V57.6348H19.9305V59.0348H23.9305Z" fill="#936F01" mask="url(#path-4-inside-2_36_75)"/>
<mask id="path-6-inside-3_36_75" fill="white">
<path d="M26.0084 57.6348H24.3723V59.0348H26.0084V57.6348Z"/>
</mask>
<path d="M26.0084 57.6348H24.3723V59.0348H26.0084V57.6348Z" fill="#936F01"/>
<path d="M24.3723 57.6348V55.6348H22.3723V57.6348H24.3723ZM26.0084 57.6348H28.0084V55.6348H26.0084V57.6348ZM26.0084 59.0348V61.0348H28.0084V59.0348H26.0084ZM24.3723 59.0348H22.3723V61.0348H24.3723V59.0348ZM24.3723 59.6348H26.0084V55.6348H24.3723V59.6348ZM24.0084 57.6348V59.0348H28.0084V57.6348H24.0084ZM26.0084 57.0348H24.3723V61.0348H26.0084V57.0348ZM26.3723 59.0348V57.6348H22.3723V59.0348H26.3723Z" fill="#936F01" mask="url(#path-6-inside-3_36_75)"/>
<mask id="path-8-inside-4_36_75" fill="white">
<path d="M28.4583 57.6348H26.8222V59.0348H28.4583V57.6348Z"/>
</mask>
<path d="M28.4583 57.6348H26.8222V59.0348H28.4583V57.6348Z" fill="#936F01"/>
<path d="M26.8222 57.6348V55.6348H24.8222V57.6348H26.8222ZM28.4583 57.6348H30.4583V55.6348H28.4583V57.6348ZM28.4583 59.0348V61.0348H30.4583V59.0348H28.4583ZM26.8222 59.0348H24.8222V61.0348H26.8222V59.0348ZM26.8222 59.6348H28.4583V55.6348H26.8222V59.6348ZM26.4583 57.6348V59.0348H30.4583V57.6348H26.4583ZM28.4583 57.0348H26.8222V61.0348H28.4583V57.0348ZM28.8222 59.0348V57.6348H24.8222V59.0348H28.8222Z" fill="#936F01" mask="url(#path-8-inside-4_36_75)"/>
<mask id="path-10-inside-5_36_75" fill="white">
<path d="M30.9083 57.6348H29.2722V59.0348H30.9083V57.6348Z"/>
</mask>
<path d="M30.9083 57.6348H29.2722V59.0348H30.9083V57.6348Z" fill="#936F01"/>
<path d="M29.2722 57.6348V55.6348H27.2722V57.6348H29.2722ZM30.9083 57.6348H32.9083V55.6348H30.9083V57.6348ZM30.9083 59.0348V61.0348H32.9083V59.0348H30.9083ZM29.2722 59.0348H27.2722V61.0348H29.2722V59.0348ZM29.2722 59.6348H30.9083V55.6348H29.2722V59.6348ZM28.9083 57.6348V59.0348H32.9083V57.6348H28.9083ZM30.9083 57.0348H29.2722V61.0348H30.9083V57.0348ZM31.2722 59.0348V57.6348H27.2722V59.0348H31.2722Z" fill="#936F01" mask="url(#path-10-inside-5_36_75)"/>
<mask id="path-12-inside-6_36_75" fill="white">
<path d="M22.3375 30.1459C22.9058 30.1459 23.4614 30.0038 23.9339 29.7377C24.4065 29.4716 24.7748 29.0933 24.9923 28.6507C25.2098 28.2082 25.2667 27.7212 25.1558 27.2514C25.0449 26.7815 24.7712 26.35 24.3694 26.0113C23.9675 25.6725 23.4555 25.4419 22.8981 25.3484C22.3406 25.255 21.7629 25.3029 21.2378 25.4862C20.7127 25.6695 20.2639 25.98 19.9482 26.3783C19.6324 26.7766 19.4639 27.2448 19.4639 27.7239C19.4639 28.0419 19.5382 28.3569 19.6826 28.6507C19.827 28.9446 20.0387 29.2116 20.3055 29.4365C20.8444 29.8907 21.5753 30.1459 22.3375 30.1459ZM22.3375 26.7019C22.5773 26.7019 22.8117 26.7618 23.0111 26.8741C23.2105 26.9864 23.3659 27.146 23.4577 27.3328C23.5495 27.5195 23.5735 27.725 23.5267 27.9232C23.4799 28.1215 23.3644 28.3036 23.1949 28.4465C23.0253 28.5895 22.8092 28.6868 22.574 28.7262C22.3388 28.7657 22.095 28.7454 21.8734 28.6681C21.6519 28.5907 21.4625 28.4597 21.3293 28.2917C21.196 28.1236 21.1249 27.926 21.1249 27.7239C21.1249 27.4528 21.2527 27.1929 21.4801 27.0012C21.7075 26.8095 22.0159 26.7019 22.3375 26.7019Z"/>
</mask>
<path d="M22.3375 30.1459C22.9058 30.1459 23.4614 30.0038 23.9339 29.7377C24.4065 29.4716 24.7748 29.0933 24.9923 28.6507C25.2098 28.2082 25.2667 27.7212 25.1558 27.2514C25.0449 26.7815 24.7712 26.35 24.3694 26.0113C23.9675 25.6725 23.4555 25.4419 22.8981 25.3484C22.3406 25.255 21.7629 25.3029 21.2378 25.4862C20.7127 25.6695 20.2639 25.98 19.9482 26.3783C19.6324 26.7766 19.4639 27.2448 19.4639 27.7239C19.4639 28.0419 19.5382 28.3569 19.6826 28.6507C19.827 28.9446 20.0387 29.2116 20.3055 29.4365C20.8444 29.8907 21.5753 30.1459 22.3375 30.1459ZM22.3375 26.7019C22.5773 26.7019 22.8117 26.7618 23.0111 26.8741C23.2105 26.9864 23.3659 27.146 23.4577 27.3328C23.5495 27.5195 23.5735 27.725 23.5267 27.9232C23.4799 28.1215 23.3644 28.3036 23.1949 28.4465C23.0253 28.5895 22.8092 28.6868 22.574 28.7262C22.3388 28.7657 22.095 28.7454 21.8734 28.6681C21.6519 28.5907 21.4625 28.4597 21.3293 28.2917C21.196 28.1236 21.1249 27.926 21.1249 27.7239C21.1249 27.4528 21.2527 27.1929 21.4801 27.0012C21.7075 26.8095 22.0159 26.7019 22.3375 26.7019Z" fill="#936F01"/>
<path d="M22.3375 30.1459V32.1459V30.1459ZM19.4639 27.7239H17.4639H19.4639ZM22.3375 26.7019V28.7019V26.7019ZM21.1249 27.7239H23.1249H21.1249ZM22.3375 32.1459C23.2325 32.1459 24.1286 31.9234 24.9153 31.4803L22.9525 27.995C22.7941 28.0843 22.5791 28.1459 22.3375 28.1459V32.1459ZM24.9153 31.4803C25.703 31.0367 26.3739 30.3738 26.7872 29.5328L23.1973 27.7686C23.1756 27.8127 23.1099 27.9064 22.9525 27.995L24.9153 31.4803ZM26.7872 29.5328C27.2044 28.684 27.3222 27.7235 27.1023 26.792L23.2093 27.7107C23.2113 27.7193 23.2112 27.7245 23.2107 27.7291C23.2101 27.734 23.208 27.747 23.1973 27.7686L26.7872 29.5328ZM27.1023 26.792C26.8839 25.8666 26.3577 25.0715 25.6583 24.482L23.0804 27.5405C23.1847 27.6284 23.2059 27.6965 23.2093 27.7107L27.1023 26.792ZM25.6583 24.482C24.9619 23.895 24.1119 23.524 23.2288 23.3759L22.5674 27.3209C22.799 27.3597 22.9731 27.4501 23.0804 27.5405L25.6583 24.482ZM23.2288 23.3759C22.3452 23.2278 21.4266 23.3019 20.5786 23.598L21.897 27.3745C22.0991 27.3039 22.3361 27.2821 22.5674 27.3209L23.2288 23.3759ZM20.5786 23.598C19.7307 23.894 18.9541 24.4128 18.3809 25.1358L21.5154 27.6207C21.5738 27.5471 21.6947 27.4451 21.897 27.3745L20.5786 23.598ZM18.3809 25.1358C17.8033 25.8644 17.4639 26.765 17.4639 27.7239H21.4639C21.4639 27.7205 21.4643 27.7125 21.4695 27.6981C21.4748 27.6832 21.4873 27.6563 21.5154 27.6207L18.3809 25.1358ZM17.4639 27.7239C17.4639 28.3569 17.6125 28.9728 17.8877 29.5328L21.4776 27.7686C21.464 27.7409 21.4639 27.7269 21.4639 27.7239H17.4639ZM17.8877 29.5328C18.1621 30.0912 18.5523 30.5744 19.0166 30.9657L21.5945 27.9072C21.5251 27.8488 21.492 27.798 21.4776 27.7686L17.8877 29.5328ZM19.0166 30.9657C19.9466 31.7496 21.1449 32.1459 22.3375 32.1459V28.1459C22.0057 28.1459 21.7423 28.0318 21.5945 27.9072L19.0166 30.9657ZM22.3375 28.7019C22.2506 28.7019 22.1444 28.6814 22.0297 28.6167L23.9925 25.1315C23.479 24.8422 22.904 24.7019 22.3375 24.7019V28.7019ZM22.0297 28.6167C21.9139 28.5516 21.7668 28.4266 21.6627 28.2149L25.2527 26.4506C24.9651 25.8655 24.5071 25.4212 23.9925 25.1315L22.0297 28.6167ZM21.6627 28.2149C21.5548 27.9953 21.518 27.7273 21.5802 27.4639L25.4732 28.3826C25.629 27.7227 25.5441 27.0437 25.2527 26.4506L21.6627 28.2149ZM21.5802 27.4639C21.6409 27.2065 21.7779 27.0251 21.9059 26.9173L24.4838 29.9758C24.9509 29.5821 25.3189 29.0364 25.4732 28.3826L21.5802 27.4639ZM21.9059 26.9173C22.0309 26.8119 22.1528 26.7689 22.2433 26.7538L22.9047 30.6987C23.4657 30.6046 24.0196 30.367 24.4838 29.9758L21.9059 26.9173ZM22.2433 26.7538C22.3343 26.7385 22.4312 26.7444 22.5327 26.7798L21.2142 30.5563C21.7588 30.7464 22.3433 30.7928 22.9047 30.6987L22.2433 26.7538ZM22.5327 26.7798C22.6339 26.8152 22.7724 26.8926 22.8965 27.0492L19.762 29.5341C20.1526 30.0269 20.6699 30.3663 21.2142 30.5563L22.5327 26.7798ZM22.8965 27.0492C23.0252 27.2115 23.1249 27.4462 23.1249 27.7239H19.1249C19.1249 28.4058 19.3669 29.0357 19.762 29.5341L22.8965 27.0492ZM23.1249 27.7239C23.1249 28.1043 22.9429 28.3839 22.769 28.5305L20.1911 25.4719C19.5624 26.0018 19.1249 26.8013 19.1249 27.7239H23.1249ZM22.769 28.5305C22.6053 28.6684 22.4463 28.7019 22.3375 28.7019V24.7019C21.5855 24.7019 20.8096 24.9507 20.1911 25.4719L22.769 28.5305Z" fill="#936F01" mask="url(#path-12-inside-6_36_75)"/>
<path d="M29.6791 26.3018C30.0095 26.3035 30.3279 26.375 30.6037 26.503L30.7014 26.5483L30.2472 26.9312L30.0503 27.0971L29.8551 27.2616L29.6791 27.1164V26.3018ZM30.3811 27.6958L30.2005 27.5467L30.3385 27.4256L30.5256 27.2615L31.1122 26.747L31.3665 27.1365C31.4862 27.3198 31.5449 27.511 31.552 27.6958C31.5524 27.7069 31.5526 27.7179 31.5527 27.7289L31.5528 27.7582L31.5547 27.7875C31.5653 27.9535 31.5363 28.1235 31.4637 28.29C31.4558 28.3082 31.4473 28.3263 31.4383 28.3444L30.8916 27.6958H30.3811ZM29.0499 29.1903C28.9952 29.1751 28.9415 29.1579 28.8888 29.1388C28.7134 29.0752 28.5557 28.9927 28.4188 28.8965C28.363 28.8574 28.3107 28.816 28.262 28.7727L28.024 29.0404C28.0727 29.0905 28.1239 29.1382 28.1772 29.1831C28.3498 29.3286 28.5426 29.4445 28.7467 29.5307C28.9174 29.6028 29.0959 29.654 29.2772 29.6844C29.4113 29.7069 29.5473 29.718 29.6833 29.7178C29.6852 29.7178 29.6871 29.7178 29.689 29.7178L29.0499 29.1903Z" fill="#936F01" stroke="#936F01" stroke-width="2"/>
<mask id="path-15-inside-7_36_75" fill="white">
<path d="M37.0291 30.1459C37.5975 30.1459 38.153 30.0038 38.6256 29.7377C39.0982 29.4716 39.4665 29.0933 39.684 28.6507C39.9014 28.2082 39.9584 27.7212 39.8475 27.2514C39.7366 26.7815 39.4629 26.35 39.061 26.0113C38.6592 25.6725 38.1472 25.4419 37.5897 25.3484C37.0323 25.255 36.4545 25.3029 35.9295 25.4862C35.4044 25.6695 34.9556 25.98 34.6399 26.3783C34.3241 26.7766 34.1556 27.2448 34.1556 27.7239C34.1556 28.0419 34.2299 28.3569 34.3743 28.6507C34.5187 28.9446 34.7304 29.2116 34.9972 29.4365C35.5361 29.8907 36.267 30.1459 37.0291 30.1459ZM37.0291 26.7019C37.269 26.7019 37.5034 26.7618 37.7028 26.8741C37.9022 26.9864 38.0576 27.146 38.1494 27.3328C38.2412 27.5195 38.2652 27.725 38.2184 27.9232C38.1716 28.1215 38.0561 28.3036 37.8865 28.4465C37.717 28.5895 37.5009 28.6868 37.2657 28.7262C37.0305 28.7657 36.7867 28.7454 36.5651 28.6681C36.3436 28.5907 36.1542 28.4597 36.0209 28.2917C35.8877 28.1236 35.8166 27.926 35.8166 27.7239C35.8166 27.4528 35.9443 27.1929 36.1717 27.0012C36.3991 26.8095 36.7075 26.7019 37.0291 26.7019Z"/>
</mask>
<path d="M37.0291 30.1459C37.5975 30.1459 38.153 30.0038 38.6256 29.7377C39.0982 29.4716 39.4665 29.0933 39.684 28.6507C39.9014 28.2082 39.9584 27.7212 39.8475 27.2514C39.7366 26.7815 39.4629 26.35 39.061 26.0113C38.6592 25.6725 38.1472 25.4419 37.5897 25.3484C37.0323 25.255 36.4545 25.3029 35.9295 25.4862C35.4044 25.6695 34.9556 25.98 34.6399 26.3783C34.3241 26.7766 34.1556 27.2448 34.1556 27.7239C34.1556 28.0419 34.2299 28.3569 34.3743 28.6507C34.5187 28.9446 34.7304 29.2116 34.9972 29.4365C35.5361 29.8907 36.267 30.1459 37.0291 30.1459ZM37.0291 26.7019C37.269 26.7019 37.5034 26.7618 37.7028 26.8741C37.9022 26.9864 38.0576 27.146 38.1494 27.3328C38.2412 27.5195 38.2652 27.725 38.2184 27.9232C38.1716 28.1215 38.0561 28.3036 37.8865 28.4465C37.717 28.5895 37.5009 28.6868 37.2657 28.7262C37.0305 28.7657 36.7867 28.7454 36.5651 28.6681C36.3436 28.5907 36.1542 28.4597 36.0209 28.2917C35.8877 28.1236 35.8166 27.926 35.8166 27.7239C35.8166 27.4528 35.9443 27.1929 36.1717 27.0012C36.3991 26.8095 36.7075 26.7019 37.0291 26.7019Z" fill="#936F01"/>
<path d="M37.0291 30.1459V32.1459V30.1459ZM34.1556 27.7239H32.1556H34.1556ZM37.0291 26.7019V28.7019V26.7019ZM37.0291 32.1459C37.9242 32.1459 38.8203 31.9234 39.607 31.4803L37.6442 27.995C37.4858 28.0843 37.2708 28.1459 37.0291 28.1459V32.1459ZM39.607 31.4803C40.3947 31.0367 41.0656 30.3738 41.4789 29.5328L37.889 27.7686C37.8673 27.8127 37.8016 27.9064 37.6442 27.995L39.607 31.4803ZM41.4789 29.5328C41.8961 28.684 42.0138 27.7235 41.794 26.792L37.9009 27.7107C37.903 27.7193 37.9029 27.7245 37.9024 27.7291C37.9018 27.734 37.8996 27.747 37.889 27.7686L41.4789 29.5328ZM41.794 26.792C41.5756 25.8666 41.0494 25.0715 40.35 24.482L37.7721 27.5405C37.8764 27.6284 37.8976 27.6965 37.9009 27.7107L41.794 26.792ZM40.35 24.482C39.6535 23.895 38.8036 23.524 37.9204 23.3759L37.259 27.3209C37.4907 27.3597 37.6648 27.4501 37.7721 27.5405L40.35 24.482ZM37.9204 23.3759C37.0368 23.2278 36.1183 23.3019 35.2702 23.598L36.5887 27.3745C36.7908 27.3039 37.0278 27.2821 37.259 27.3209L37.9204 23.3759ZM35.2702 23.598C34.4224 23.894 33.6457 24.4128 33.0726 25.1358L36.2071 27.6207C36.2655 27.5471 36.3864 27.4451 36.5887 27.3745L35.2702 23.598ZM33.0726 25.1358C32.495 25.8645 32.1556 26.765 32.1556 27.7239H36.1556C36.1556 27.7205 36.1559 27.7125 36.1611 27.6981C36.1665 27.6832 36.1789 27.6563 36.2071 27.6207L33.0726 25.1358ZM32.1556 27.7239C32.1556 28.3569 32.3041 28.9728 32.5794 29.5328L36.1693 27.7686C36.1557 27.7409 36.1556 27.7269 36.1556 27.7239H32.1556ZM32.5794 29.5328C32.8538 30.0912 33.244 30.5744 33.7083 30.9657L36.2862 27.9072C36.2168 27.8488 36.1837 27.798 36.1693 27.7686L32.5794 29.5328ZM33.7083 30.9657C34.6382 31.7496 35.8366 32.1459 37.0291 32.1459V28.1459C36.6974 28.1459 36.434 28.0318 36.2862 27.9072L33.7083 30.9657ZM37.0291 28.7019C36.9422 28.7019 36.8361 28.6814 36.7214 28.6167L38.6842 25.1315C38.1707 24.8422 37.5957 24.7019 37.0291 24.7019V28.7019ZM36.7214 28.6167C36.6056 28.5516 36.4584 28.4266 36.3544 28.2149L39.9443 26.4506C39.6568 25.8655 39.1988 25.4212 38.6842 25.1315L36.7214 28.6167ZM36.3544 28.2149C36.2465 27.9953 36.2097 27.7273 36.2718 27.4639L40.1649 28.3826C40.3206 27.7227 40.2358 27.0437 39.9443 26.4506L36.3544 28.2149ZM36.2718 27.4639C36.3326 27.2065 36.4696 27.0251 36.5976 26.9173L39.1755 29.9758C39.6426 29.5821 40.0106 29.0364 40.1649 28.3826L36.2718 27.4639ZM36.5976 26.9173C36.7226 26.8119 36.8444 26.7689 36.935 26.7538L37.5964 30.6987C38.1574 30.6046 38.7113 30.367 39.1755 29.9758L36.5976 26.9173ZM36.935 26.7538C37.026 26.7385 37.1229 26.7444 37.2243 26.7798L35.9059 30.5563C36.4504 30.7464 37.035 30.7928 37.5964 30.6987L36.935 26.7538ZM37.2243 26.7798C37.3256 26.8152 37.4641 26.8926 37.5882 27.0492L34.4537 29.5341C34.8443 30.0269 35.3616 30.3663 35.9059 30.5563L37.2243 26.7798ZM37.5882 27.0492C37.7168 27.2115 37.8166 27.4462 37.8166 27.7239H33.8166C33.8166 28.4058 34.0586 29.0357 34.4537 29.5341L37.5882 27.0492ZM37.8166 27.7239C37.8166 28.1043 37.6346 28.3839 37.4607 28.5305L34.8828 25.4719C34.2541 26.0018 33.8166 26.8013 33.8166 27.7239H37.8166ZM37.4607 28.5305C37.297 28.6684 37.138 28.7019 37.0291 28.7019V24.7019C36.2771 24.7019 35.5013 24.9507 34.8828 25.4719L37.4607 28.5305Z" fill="#936F01" mask="url(#path-15-inside-7_36_75)"/>
<mask id="path-17-inside-8_36_75" fill="white">
<path d="M47.2444 27.7239C47.2444 27.2448 47.0758 26.7766 46.7601 26.3783C46.4443 25.98 45.9955 25.6695 45.4705 25.4862C44.9454 25.3029 44.3676 25.255 43.8102 25.3484C43.2528 25.4419 42.7408 25.6725 42.3389 26.0113C41.937 26.35 41.6633 26.7815 41.5525 27.2514C41.4416 27.7212 41.4985 28.2082 41.716 28.6507C41.9335 29.0933 42.3018 29.4716 42.7743 29.7377C43.2469 30.0038 43.8025 30.1459 44.3708 30.1459C44.7482 30.1459 45.1218 30.0832 45.4705 29.9615C45.8191 29.8398 46.1359 29.6614 46.4027 29.4365C46.6696 29.2116 46.8812 28.9446 47.0256 28.6507C47.17 28.3569 47.2444 28.0419 47.2444 27.7239ZM43.1666 27.7239C43.1666 27.5214 43.2379 27.3236 43.3715 27.1554C43.5051 26.9871 43.695 26.8562 43.917 26.779C44.1391 26.7019 44.3833 26.682 44.6187 26.722C44.8542 26.7621 45.0702 26.8601 45.2395 27.0037C45.4087 27.1473 45.5235 27.3301 45.5694 27.5288C45.6152 27.7275 45.59 27.9332 45.497 28.1198C45.4039 28.3065 45.2472 28.4656 45.0467 28.577C44.8462 28.6885 44.611 28.7473 44.3708 28.7459C44.0507 28.744 43.7444 28.6355 43.5188 28.4441C43.2932 28.2526 43.1666 27.9937 43.1666 27.7239Z"/>
</mask>
<path d="M47.2444 27.7239C47.2444 27.2448 47.0758 26.7766 46.7601 26.3783C46.4443 25.98 45.9955 25.6695 45.4705 25.4862C44.9454 25.3029 44.3676 25.255 43.8102 25.3484C43.2528 25.4419 42.7408 25.6725 42.3389 26.0113C41.937 26.35 41.6633 26.7815 41.5525 27.2514C41.4416 27.7212 41.4985 28.2082 41.716 28.6507C41.9335 29.0933 42.3018 29.4716 42.7743 29.7377C43.2469 30.0038 43.8025 30.1459 44.3708 30.1459C44.7482 30.1459 45.1218 30.0832 45.4705 29.9615C45.8191 29.8398 46.1359 29.6614 46.4027 29.4365C46.6696 29.2116 46.8812 28.9446 47.0256 28.6507C47.17 28.3569 47.2444 28.0419 47.2444 27.7239ZM43.1666 27.7239C43.1666 27.5214 43.2379 27.3236 43.3715 27.1554C43.5051 26.9871 43.695 26.8562 43.917 26.779C44.1391 26.7019 44.3833 26.682 44.6187 26.722C44.8542 26.7621 45.0702 26.8601 45.2395 27.0037C45.4087 27.1473 45.5235 27.3301 45.5694 27.5288C45.6152 27.7275 45.59 27.9332 45.497 28.1198C45.4039 28.3065 45.2472 28.4656 45.0467 28.577C44.8462 28.6885 44.611 28.7473 44.3708 28.7459C44.0507 28.744 43.7444 28.6355 43.5188 28.4441C43.2932 28.2526 43.1666 27.9937 43.1666 27.7239Z" fill="#936F01"/>
<path d="M44.3708 30.1459V32.1459V30.1459ZM43.1666 27.7239L41.1666 27.7238L43.1666 27.7239ZM45.497 28.1198L47.2868 29.0123L45.497 28.1198ZM44.3708 28.7459L44.3593 30.7458L44.3708 28.7459ZM49.2444 27.7239C49.2444 26.765 48.905 25.8645 48.3274 25.1358L45.1928 27.6207C45.221 27.6563 45.2334 27.6832 45.2388 27.6981C45.244 27.7125 45.2444 27.7205 45.2444 27.7239H49.2444ZM48.3274 25.1358C47.7542 24.4128 46.9775 23.894 46.1297 23.598L44.8112 27.3745C45.0136 27.4451 45.1345 27.5471 45.1928 27.6207L48.3274 25.1358ZM46.1297 23.598C45.2816 23.3019 44.3631 23.2278 43.4795 23.3759L44.1409 27.3209C44.3721 27.2821 44.6092 27.3039 44.8112 27.3745L46.1297 23.598ZM43.4795 23.3759C42.5963 23.524 41.7464 23.895 41.05 24.482L43.6278 27.5405C43.7351 27.4501 43.9092 27.3597 44.1409 27.3209L43.4795 23.3759ZM41.05 24.482C40.3505 25.0715 39.8243 25.8666 39.6059 26.792L43.499 27.7107C43.5024 27.6965 43.5235 27.6284 43.6278 27.5405L41.05 24.482ZM39.6059 26.792C39.3861 27.7235 39.5039 28.684 39.921 29.5328L43.511 27.7686C43.5003 27.747 43.4981 27.734 43.4976 27.7291C43.497 27.7245 43.497 27.7193 43.499 27.7107L39.6059 26.792ZM39.921 29.5328C40.3343 30.3738 41.0052 31.0367 41.7929 31.4803L43.7558 27.995C43.5984 27.9064 43.5326 27.8127 43.511 27.7686L39.921 29.5328ZM41.7929 31.4803C42.5796 31.9234 43.4758 32.1459 44.3708 32.1459V28.1459C44.1292 28.1459 43.9142 28.0843 43.7558 27.995L41.7929 31.4803ZM44.3708 32.1459C44.9676 32.1459 45.5645 32.0471 46.1297 31.8497L44.8112 28.0733C44.6792 28.1194 44.5287 28.1459 44.3708 28.1459V32.1459ZM46.1297 31.8497C46.6948 31.6524 47.2279 31.3566 47.6917 30.9657L45.1138 27.9072C45.0439 27.9661 44.9434 28.0271 44.8112 28.0733L46.1297 31.8497ZM47.6917 30.9657C48.156 30.5744 48.5462 30.0912 48.8206 29.5328L45.2307 27.7686C45.2163 27.798 45.1831 27.8488 45.1138 27.9072L47.6917 30.9657ZM48.8206 29.5328C49.0958 28.9728 49.2444 28.3569 49.2444 27.7239H45.2444C45.2444 27.7269 45.2443 27.7409 45.2307 27.7686L48.8206 29.5328ZM45.1666 27.7239C45.1666 28.002 45.0665 28.237 44.9376 28.3993L41.8054 25.9115C41.4093 26.4101 41.1666 27.0409 41.1666 27.7238L45.1666 27.7239ZM44.9376 28.3993C44.8133 28.5558 44.6746 28.6331 44.5734 28.6682L43.2607 24.8898C42.7154 25.0792 42.197 25.4184 41.8054 25.9115L44.9376 28.3993ZM44.5734 28.6682C44.4719 28.7035 44.3749 28.7093 44.2837 28.6938L44.9538 24.7503C44.3917 24.6548 43.8062 24.7002 43.2607 24.8898L44.5734 28.6682ZM44.2837 28.6938C44.1929 28.6784 44.0706 28.6349 43.9453 28.5286L46.5336 25.4788C46.0698 25.0853 45.5154 24.8457 44.9538 24.7503L44.2837 28.6938ZM43.9453 28.5286C43.817 28.4197 43.6802 28.2369 43.6206 27.9784L47.5182 27.0792C47.3668 26.4233 47.0004 25.875 46.5336 25.4788L43.9453 28.5286ZM43.6206 27.9784C43.5595 27.7139 43.5982 27.4459 43.7071 27.2274L47.2868 29.0123C47.5819 28.4205 47.6709 27.7411 47.5182 27.0792L43.6206 27.9784ZM43.7071 27.2274C43.8121 27.0168 43.9595 26.8931 44.075 26.829L46.0185 30.3251C46.5349 30.038 46.9957 29.5961 47.2868 29.0123L43.7071 27.2274ZM44.075 26.829C44.1895 26.7653 44.2953 26.7454 44.3824 26.7459L44.3593 30.7458C44.9266 30.7491 45.503 30.6117 46.0185 30.3251L44.075 26.829ZM44.3824 26.7459C44.4908 26.7465 44.6497 26.7807 44.8129 26.9192L42.2247 29.9689C42.8391 30.4904 43.6105 30.7415 44.3593 30.7458L44.3824 26.7459ZM44.8129 26.9192C44.9862 27.0663 45.1666 27.3453 45.1666 27.7239L41.1666 27.7238C41.1666 28.6421 41.6001 29.4389 42.2247 29.9689L44.8129 26.9192Z" fill="#936F01" mask="url(#path-17-inside-8_36_75)"/>
<mask id="path-19-inside-9_36_75" fill="white">
<path d="M28.4583 22.5508H19.4805V23.9508H28.4583V22.5508Z"/>
</mask>
<path d="M28.4583 22.5508H19.4805V23.9508H28.4583V22.5508Z" fill="#936F01"/>
<path d="M19.4805 22.5508V20.5508H17.4805V22.5508H19.4805ZM28.4583 22.5508H30.4583V20.5508H28.4583V22.5508ZM28.4583 23.9508V25.9508H30.4583V23.9508H28.4583ZM19.4805 23.9508H17.4805V25.9508H19.4805V23.9508ZM19.4805 24.5508H28.4583V20.5508H19.4805V24.5508ZM26.4583 22.5508V23.9508H30.4583V22.5508H26.4583ZM28.4583 21.9508H19.4805V25.9508H28.4583V21.9508ZM21.4805 23.9508V22.5508H17.4805V23.9508H21.4805Z" fill="#936F01" mask="url(#path-19-inside-9_36_75)"/>
<mask id="path-21-inside-10_36_75" fill="white">
<path d="M32.5361 32.1827H19.4805V33.5827H32.5361V32.1827Z"/>
</mask>
<path d="M32.5361 32.1827H19.4805V33.5827H32.5361V32.1827Z" fill="#936F01"/>
<path d="M19.4805 32.1827V30.1827H17.4805V32.1827H19.4805ZM32.5361 32.1827H34.5361V30.1827H32.5361V32.1827ZM32.5361 33.5827V35.5827H34.5361V33.5827H32.5361ZM19.4805 33.5827H17.4805V35.5827H19.4805V33.5827ZM19.4805 34.1827H32.5361V30.1827H19.4805V34.1827ZM30.5361 32.1827V33.5827H34.5361V32.1827H30.5361ZM32.5361 31.5827H19.4805V35.5827H32.5361V31.5827ZM21.4805 33.5827V32.1827H17.4805V33.5827H21.4805Z" fill="#936F01" mask="url(#path-21-inside-10_36_75)"/>
<path d="M21.7656 44.894L21.7645 45.28L21.7656 44.894ZM21.7656 44.894H39.204H21.7656ZM39.2036 44.28H21.7661H39.2036ZM39.2036 44.28C39.2041 44.28 39.2046 44.28 39.2051 44.28H39.2036Z" fill="#936F01" stroke="#936F01" stroke-width="2"/>
<mask id="path-24-inside-11_36_75" fill="white">
<path d="M38.25 37.6849H22.7444V39.0849H38.25V37.6849Z"/>
</mask>
<path d="M38.25 37.6849H22.7444V39.0849H38.25V37.6849Z" fill="#936F01"/>
<path d="M22.7444 37.6849V35.6849H20.7444V37.6849H22.7444ZM38.25 37.6849H40.25V35.6849H38.25V37.6849ZM38.25 39.0849V41.0849H40.25V39.0849H38.25ZM22.7444 39.0849H20.7444V41.0849H22.7444V39.0849ZM22.7444 39.6849H38.25V35.6849H22.7444V39.6849ZM36.25 37.6849V39.0849H40.25V37.6849H36.25ZM38.25 37.0849H22.7444V41.0849H38.25V37.0849ZM24.7444 39.0849V37.6849H20.7444V39.0849H24.7444Z" fill="#936F01" mask="url(#path-24-inside-11_36_75)"/>
<mask id="path-26-inside-12_36_75" fill="white">
<path d="M34.1722 40.4358H22.7444V41.8358H34.1722V40.4358Z"/>
</mask>
<path d="M34.1722 40.4358H22.7444V41.8358H34.1722V40.4358Z" fill="#936F01"/>
<path d="M22.7444 40.4358V38.4358H20.7444V40.4358H22.7444ZM34.1722 40.4358H36.1722V38.4358H34.1722V40.4358ZM34.1722 41.8358V43.8358H36.1722V41.8358H34.1722ZM22.7444 41.8358H20.7444V43.8358H22.7444V41.8358ZM22.7444 42.4358H34.1722V38.4358H22.7444V42.4358ZM32.1722 40.4358V41.8358H36.1722V40.4358H32.1722ZM34.1722 39.8358H22.7444V43.8358H34.1722V39.8358ZM24.7444 41.8358V40.4358H20.7444V41.8358H24.7444Z" fill="#936F01" mask="url(#path-26-inside-12_36_75)"/>
<mask id="path-28-inside-13_36_75" fill="white">
<path d="M24.3805 46.6309H19.4805V48.0309H24.3805V46.6309Z"/>
</mask>
<path d="M24.3805 46.6309H19.4805V48.0309H24.3805V46.6309Z" fill="#936F01"/>
<path d="M19.4805 46.6309V44.6309H17.4805V46.6309H19.4805ZM24.3805 46.6309H26.3805V44.6309H24.3805V46.6309ZM24.3805 48.0309V50.0309H26.3805V48.0309H24.3805ZM19.4805 48.0309H17.4805V50.0309H19.4805V48.0309ZM19.4805 48.6309H24.3805V44.6309H19.4805V48.6309ZM22.3805 46.6309V48.0309H26.3805V46.6309H22.3805ZM24.3805 46.0309H19.4805V50.0309H24.3805V46.0309ZM21.4805 48.0309V46.6309H17.4805V48.0309H21.4805Z" fill="#936F01" mask="url(#path-28-inside-13_36_75)"/>
<mask id="path-30-inside-14_36_75" fill="white">
<path d="M61.1139 52L56.7122 51.468H56.5959C56.4049 51.468 56.0145 50.908 55.7654 50.306C56.6431 49.5392 57.2822 48.6013 57.6257 47.576C58.1516 47.5118 58.6451 47.3235 59.0494 47.0328C59.4536 46.7422 59.7521 46.3611 59.9101 45.9335C60.0682 45.5059 60.0795 45.0494 59.9428 44.6166C59.806 44.1839 59.5267 43.7926 59.1372 43.488C60.2833 38.147 59.32 35.046 56.3218 34.514C55.9282 34.4374 55.5171 34.4544 55.1342 34.563C54.6055 34.3201 54.049 34.1231 53.4732 33.975L52.95 33.863V20.5C52.95 20.3143 52.8625 20.1363 52.7067 20.005C52.551 19.8737 52.3397 19.8 52.1194 19.8H17.0305C16.8102 19.8 16.599 19.8737 16.4432 20.005C16.2875 20.1363 16.2 20.3143 16.2 20.5V61.1C16.2 61.2856 16.2875 61.4637 16.4432 61.5949C16.599 61.7262 16.8102 61.8 17.0305 61.8H39.0639V61.1V55.997C39.0564 55.8874 39.0564 55.7775 39.0639 55.668C39.1305 55.205 39.3438 54.7657 39.6813 54.3962C40.0189 54.0266 40.4683 53.7406 40.9823 53.568C41.2101 53.4845 41.4504 53.4279 41.6966 53.4L45.5252 52.938L50.6993 61.121C50.7712 61.2561 50.8877 61.3709 51.035 61.4516C51.1823 61.5323 51.3541 61.5755 51.5298 61.576C51.7059 61.5772 51.8786 61.5348 52.0263 61.4539C52.174 61.3729 52.2902 61.2572 52.3603 61.121L54.9432 56.578L57.0194 52.938L60.8813 53.4C61.6216 53.4895 62.2985 53.8018 62.7869 54.2791C63.2754 54.7565 63.5425 55.3666 63.5389 55.997V61.8H65.2V55.997C65.204 55.0277 64.7929 54.0898 64.0423 53.3555C63.2916 52.6212 62.2518 52.1399 61.1139 52ZM52.8835 53.75C53.1161 53.624 53.4233 53.449 53.7639 53.225C54.2474 52.9123 54.6802 52.5475 55.0511 52.14C55.1751 52.2747 55.3172 52.3969 55.4747 52.504L54.0711 54.996L52.8835 53.75ZM53.3652 51.65H53.4317C53.2167 51.8362 52.9863 52.0093 52.7423 52.168C52.4162 52.3866 52.0721 52.5855 51.7125 52.763L51.5547 52.84L51.0564 52.63L50.8986 52.553L50.5415 52.385L50.3505 52.28L50.0515 52.119L49.8522 52L49.5864 51.839H49.6362C49.8439 51.881 50.0598 51.916 50.2757 51.944H50.4584C50.7034 51.9721 50.9504 51.9862 51.1976 51.986C51.4052 51.986 51.6045 51.986 51.7789 51.986C51.9542 51.9773 52.1289 51.961 52.3022 51.937L52.7091 51.86C52.9335 51.8005 53.1527 51.728 53.3652 51.643V51.65ZM47.6098 52.133C48.3553 52.8332 49.2514 53.408 50.2508 53.827L48.8971 55.227L47.1779 52.511C47.3385 52.3966 47.4833 52.2675 47.6098 52.126V52.133ZM57.2603 46.225H57.0859C56.8817 46.2075 56.6771 46.2543 56.5115 46.3564C56.3459 46.4585 56.231 46.6087 56.1889 46.778C55.9552 47.8502 55.3208 48.8313 54.3784 49.578C53.9552 49.8808 53.4716 50.1178 52.95 50.278C52.7414 50.3438 52.5277 50.3976 52.3105 50.439C52.2284 50.457 52.1453 50.471 52.0613 50.481H51.9617H51.6295C50.7171 50.568 49.7951 50.4165 48.9884 50.047L48.7725 49.914C48.592 49.8249 48.4198 49.7242 48.2576 49.613C47.3037 48.8311 46.6696 47.8137 46.4471 46.708C46.4277 46.6262 46.3911 46.5479 46.3391 46.477L46.2644 46.407C46.2293 46.3669 46.1873 46.3315 46.1398 46.302L46.0318 46.246L45.8906 46.19C45.8465 46.186 45.8019 46.186 45.7578 46.19H45.6415H45.5584H45.3757C45.1327 46.1871 44.8968 46.1197 44.7019 45.9973C44.507 45.8748 44.3629 45.7036 44.2902 45.5081C44.2175 45.3126 44.2198 45.1027 44.2969 44.9084C44.374 44.7141 44.522 44.5453 44.7196 44.426C44.906 44.3122 45.129 44.2487 45.3591 44.244C45.4677 44.2568 45.5782 44.2513 45.6843 44.2279C45.7904 44.2046 45.8899 44.1637 45.9771 44.1077C46.0644 44.0518 46.1376 43.9818 46.1926 43.9019C46.2476 43.8219 46.2833 43.7336 46.2976 43.642C46.3474 43.32 46.4139 43.012 46.4969 42.711H47.3274H47.6762H48.0167C48.3957 42.6903 48.7729 42.6506 49.1462 42.592C50.3127 42.444 51.4481 42.1565 52.5181 41.738C52.8022 41.6211 53.0794 41.4926 53.3486 41.353C53.5505 41.8295 53.9171 42.2443 54.4011 42.5437C54.8851 42.8431 55.4644 43.0135 56.0644 43.033H56.1806C56.2305 43.243 56.272 43.453 56.3052 43.663C56.3208 43.7656 56.3631 43.8639 56.4291 43.9511C56.4952 44.0382 56.5833 44.112 56.6872 44.167C56.8533 44.2538 57.0503 44.2885 57.2437 44.265C57.5499 44.265 57.8435 44.3675 58.06 44.55C58.2765 44.7324 58.3981 44.9799 58.3981 45.238C58.3981 45.496 58.2765 45.7435 58.06 45.926C57.8435 46.1085 57.5499 46.211 57.2437 46.211L57.2603 46.225ZM54.4033 35.837C54.6042 35.9327 54.8286 35.9883 55.059 35.9992C55.2895 36.0101 55.5198 35.9762 55.7322 35.9C55.8412 35.8771 55.9553 35.8771 56.0644 35.9C58.3566 36.306 58.1323 39.967 57.7254 42.27C57.7235 42.2467 57.7235 42.2233 57.7254 42.2C57.6685 42.0426 57.5511 41.9056 57.3917 41.8106C57.2324 41.7155 57.0401 41.6678 56.845 41.675C56.6487 41.6856 56.4517 41.6856 56.2554 41.675C55.6906 41.675 55.2422 41.626 54.694 40.373C54.6436 40.235 54.5554 40.1091 54.4363 40.0053C54.3173 39.9016 54.1709 39.823 54.009 39.7759C53.8472 39.7289 53.6744 39.7147 53.5048 39.7345C53.3352 39.7543 53.1736 39.8076 53.033 39.89L52.8171 40.002C52.4863 40.1812 52.1423 40.3426 51.7872 40.485C50.8547 40.8503 49.8645 41.1002 48.8472 41.227C48.4866 41.2676 48.1232 41.2887 47.7593 41.29C47.6709 41.2969 47.5819 41.2969 47.4935 41.29H47.153C46.7243 41.311 46.2945 41.311 45.8657 41.29C45.6815 41.2833 45.4998 41.3286 45.3495 41.4186C45.1991 41.5086 45.0885 41.6382 45.0352 41.787C44.9771 41.941 44.9189 42.102 44.8691 42.27L44.6864 40.17C44.7061 38.7986 45.3703 37.4897 46.5333 36.5305C47.6963 35.5712 49.2632 35.0399 50.8903 35.053C51.2487 35.0545 51.6065 35.0755 51.9617 35.116C52.3003 35.1641 52.6358 35.2272 52.9666 35.305C53.4694 35.4324 53.9519 35.611 54.4033 35.837ZM39.8695 52.497C39.627 52.6137 39.3965 52.7472 39.1801 52.896L39.0389 53.001C38.8502 53.1379 38.6752 53.2877 38.5157 53.449L38.4576 53.505C38.2872 53.693 38.1344 53.8919 38.0008 54.1L37.9344 54.219C37.8169 54.4146 37.7197 54.6183 37.6437 54.828C37.6437 54.828 37.6437 54.863 37.6437 54.877H21.7644C21.5948 54.877 21.4321 54.8202 21.3122 54.7191C21.1923 54.618 21.1249 54.4809 21.1249 54.338V51.3C21.127 51.1576 21.1951 51.0215 21.3146 50.9208C21.434 50.8202 21.5954 50.7628 21.7644 50.761H39.2051C39.2893 50.76 39.373 50.7733 39.4511 50.8001C39.5292 50.8268 39.6001 50.8665 39.6597 50.9167C39.7193 50.967 39.7664 51.0268 39.7981 51.0926C39.8299 51.1584 39.8457 51.2289 39.8445 51.3L39.8695 52.497ZM41.5305 52.028V51.3C41.5305 50.7857 41.2881 50.2925 40.8567 49.9289C40.4252 49.5653 39.8401 49.361 39.23 49.361H21.7644C21.1543 49.361 20.5691 49.5653 20.1377 49.9289C19.7063 50.2925 19.4639 50.7857 19.4639 51.3V54.324C19.4606 54.5804 19.5177 54.8348 19.6318 55.0724C19.7459 55.3101 19.9149 55.5264 20.1288 55.7086C20.3428 55.8909 20.5975 56.0356 20.8782 56.1344C21.159 56.2331 21.4602 56.284 21.7644 56.284H37.4195V60.4H17.861V21.2H51.2972V33.695H50.9152C49.8872 33.6894 48.8681 33.8551 47.9162 34.1824C46.9644 34.5097 46.0986 34.9923 45.3686 35.6024C44.6386 36.2124 44.0588 36.938 43.6624 37.7375C43.266 38.5369 43.0608 39.3945 43.0586 40.261L43.341 43.6L43.2745 43.67L43.15 43.81C43.0677 43.8989 42.9928 43.9924 42.9257 44.09L42.8261 44.251C42.7668 44.3566 42.7195 44.4668 42.6849 44.58C42.6849 44.636 42.6849 44.685 42.6267 44.734C42.581 44.9017 42.5559 45.0729 42.552 45.245C42.5529 45.8162 42.7975 46.3681 43.2412 46.7999C43.6849 47.2318 44.2981 47.5146 44.9688 47.597C45.0661 47.9046 45.1882 48.2063 45.3342 48.5C45.3774 48.5912 45.4273 48.68 45.4837 48.766C45.5772 48.9503 45.6825 49.1303 45.7993 49.305C45.8657 49.403 45.9405 49.494 46.0152 49.585C46.09 49.676 46.2395 49.872 46.3557 50.005L46.6298 50.271C46.6796 50.32 46.7378 50.383 46.7959 50.432C46.5634 50.999 46.2062 51.475 46.0318 51.503H45.9073L41.5305 52.028ZM51.5547 59.441L49.7359 56.557L51.5879 54.653L53.2489 56.389L51.5547 59.441Z"/>
</mask>
<path d="M61.1139 52L56.7122 51.468H56.5959C56.4049 51.468 56.0145 50.908 55.7654 50.306C56.6431 49.5392 57.2822 48.6013 57.6257 47.576C58.1516 47.5118 58.6451 47.3235 59.0494 47.0328C59.4536 46.7422 59.7521 46.3611 59.9101 45.9335C60.0682 45.5059 60.0795 45.0494 59.9428 44.6166C59.806 44.1839 59.5267 43.7926 59.1372 43.488C60.2833 38.147 59.32 35.046 56.3218 34.514C55.9282 34.4374 55.5171 34.4544 55.1342 34.563C54.6055 34.3201 54.049 34.1231 53.4732 33.975L52.95 33.863V20.5C52.95 20.3143 52.8625 20.1363 52.7067 20.005C52.551 19.8737 52.3397 19.8 52.1194 19.8H17.0305C16.8102 19.8 16.599 19.8737 16.4432 20.005C16.2875 20.1363 16.2 20.3143 16.2 20.5V61.1C16.2 61.2856 16.2875 61.4637 16.4432 61.5949C16.599 61.7262 16.8102 61.8 17.0305 61.8H39.0639V61.1V55.997C39.0564 55.8874 39.0564 55.7775 39.0639 55.668C39.1305 55.205 39.3438 54.7657 39.6813 54.3962C40.0189 54.0266 40.4683 53.7406 40.9823 53.568C41.2101 53.4845 41.4504 53.4279 41.6966 53.4L45.5252 52.938L50.6993 61.121C50.7712 61.2561 50.8877 61.3709 51.035 61.4516C51.1823 61.5323 51.3541 61.5755 51.5298 61.576C51.7059 61.5772 51.8786 61.5348 52.0263 61.4539C52.174 61.3729 52.2902 61.2572 52.3603 61.121L54.9432 56.578L57.0194 52.938L60.8813 53.4C61.6216 53.4895 62.2985 53.8018 62.7869 54.2791C63.2754 54.7565 63.5425 55.3666 63.5389 55.997V61.8H65.2V55.997C65.204 55.0277 64.7929 54.0898 64.0423 53.3555C63.2916 52.6212 62.2518 52.1399 61.1139 52ZM52.8835 53.75C53.1161 53.624 53.4233 53.449 53.7639 53.225C54.2474 52.9123 54.6802 52.5475 55.0511 52.14C55.1751 52.2747 55.3172 52.3969 55.4747 52.504L54.0711 54.996L52.8835 53.75ZM53.3652 51.65H53.4317C53.2167 51.8362 52.9863 52.0093 52.7423 52.168C52.4162 52.3866 52.0721 52.5855 51.7125 52.763L51.5547 52.84L51.0564 52.63L50.8986 52.553L50.5415 52.385L50.3505 52.28L50.0515 52.119L49.8522 52L49.5864 51.839H49.6362C49.8439 51.881 50.0598 51.916 50.2757 51.944H50.4584C50.7034 51.9721 50.9504 51.9862 51.1976 51.986C51.4052 51.986 51.6045 51.986 51.7789 51.986C51.9542 51.9773 52.1289 51.961 52.3022 51.937L52.7091 51.86C52.9335 51.8005 53.1527 51.728 53.3652 51.643V51.65ZM47.6098 52.133C48.3553 52.8332 49.2514 53.408 50.2508 53.827L48.8971 55.227L47.1779 52.511C47.3385 52.3966 47.4833 52.2675 47.6098 52.126V52.133ZM57.2603 46.225H57.0859C56.8817 46.2075 56.6771 46.2543 56.5115 46.3564C56.3459 46.4585 56.231 46.6087 56.1889 46.778C55.9552 47.8502 55.3208 48.8313 54.3784 49.578C53.9552 49.8808 53.4716 50.1178 52.95 50.278C52.7414 50.3438 52.5277 50.3976 52.3105 50.439C52.2284 50.457 52.1453 50.471 52.0613 50.481H51.9617H51.6295C50.7171 50.568 49.7951 50.4165 48.9884 50.047L48.7725 49.914C48.592 49.8249 48.4198 49.7242 48.2576 49.613C47.3037 48.8311 46.6696 47.8137 46.4471 46.708C46.4277 46.6262 46.3911 46.5479 46.3391 46.477L46.2644 46.407C46.2293 46.3669 46.1873 46.3315 46.1398 46.302L46.0318 46.246L45.8906 46.19C45.8465 46.186 45.8019 46.186 45.7578 46.19H45.6415H45.5584H45.3757C45.1327 46.1871 44.8968 46.1197 44.7019 45.9973C44.507 45.8748 44.3629 45.7036 44.2902 45.5081C44.2175 45.3126 44.2198 45.1027 44.2969 44.9084C44.374 44.7141 44.522 44.5453 44.7196 44.426C44.906 44.3122 45.129 44.2487 45.3591 44.244C45.4677 44.2568 45.5782 44.2513 45.6843 44.2279C45.7904 44.2046 45.8899 44.1637 45.9771 44.1077C46.0644 44.0518 46.1376 43.9818 46.1926 43.9019C46.2476 43.8219 46.2833 43.7336 46.2976 43.642C46.3474 43.32 46.4139 43.012 46.4969 42.711H47.3274H47.6762H48.0167C48.3957 42.6903 48.7729 42.6506 49.1462 42.592C50.3127 42.444 51.4481 42.1565 52.5181 41.738C52.8022 41.6211 53.0794 41.4926 53.3486 41.353C53.5505 41.8295 53.9171 42.2443 54.4011 42.5437C54.8851 42.8431 55.4644 43.0135 56.0644 43.033H56.1806C56.2305 43.243 56.272 43.453 56.3052 43.663C56.3208 43.7656 56.3631 43.8639 56.4291 43.9511C56.4952 44.0382 56.5833 44.112 56.6872 44.167C56.8533 44.2538 57.0503 44.2885 57.2437 44.265C57.5499 44.265 57.8435 44.3675 58.06 44.55C58.2765 44.7324 58.3981 44.9799 58.3981 45.238C58.3981 45.496 58.2765 45.7435 58.06 45.926C57.8435 46.1085 57.5499 46.211 57.2437 46.211L57.2603 46.225ZM54.4033 35.837C54.6042 35.9327 54.8286 35.9883 55.059 35.9992C55.2895 36.0101 55.5198 35.9762 55.7322 35.9C55.8412 35.8771 55.9553 35.8771 56.0644 35.9C58.3566 36.306 58.1323 39.967 57.7254 42.27C57.7235 42.2467 57.7235 42.2233 57.7254 42.2C57.6685 42.0426 57.5511 41.9056 57.3917 41.8106C57.2324 41.7155 57.0401 41.6678 56.845 41.675C56.6487 41.6856 56.4517 41.6856 56.2554 41.675C55.6906 41.675 55.2422 41.626 54.694 40.373C54.6436 40.235 54.5554 40.1091 54.4363 40.0053C54.3173 39.9016 54.1709 39.823 54.009 39.7759C53.8472 39.7289 53.6744 39.7147 53.5048 39.7345C53.3352 39.7543 53.1736 39.8076 53.033 39.89L52.8171 40.002C52.4863 40.1812 52.1423 40.3426 51.7872 40.485C50.8547 40.8503 49.8645 41.1002 48.8472 41.227C48.4866 41.2676 48.1232 41.2887 47.7593 41.29C47.6709 41.2969 47.5819 41.2969 47.4935 41.29H47.153C46.7243 41.311 46.2945 41.311 45.8657 41.29C45.6815 41.2833 45.4998 41.3286 45.3495 41.4186C45.1991 41.5086 45.0885 41.6382 45.0352 41.787C44.9771 41.941 44.9189 42.102 44.8691 42.27L44.6864 40.17C44.7061 38.7986 45.3703 37.4897 46.5333 36.5305C47.6963 35.5712 49.2632 35.0399 50.8903 35.053C51.2487 35.0545 51.6065 35.0755 51.9617 35.116C52.3003 35.1641 52.6358 35.2272 52.9666 35.305C53.4694 35.4324 53.9519 35.611 54.4033 35.837ZM39.8695 52.497C39.627 52.6137 39.3965 52.7472 39.1801 52.896L39.0389 53.001C38.8502 53.1379 38.6752 53.2877 38.5157 53.449L38.4576 53.505C38.2872 53.693 38.1344 53.8919 38.0008 54.1L37.9344 54.219C37.8169 54.4146 37.7197 54.6183 37.6437 54.828C37.6437 54.828 37.6437 54.863 37.6437 54.877H21.7644C21.5948 54.877 21.4321 54.8202 21.3122 54.7191C21.1923 54.618 21.1249 54.4809 21.1249 54.338V51.3C21.127 51.1576 21.1951 51.0215 21.3146 50.9208C21.434 50.8202 21.5954 50.7628 21.7644 50.761H39.2051C39.2893 50.76 39.373 50.7733 39.4511 50.8001C39.5292 50.8268 39.6001 50.8665 39.6597 50.9167C39.7193 50.967 39.7664 51.0268 39.7981 51.0926C39.8299 51.1584 39.8457 51.2289 39.8445 51.3L39.8695 52.497ZM41.5305 52.028V51.3C41.5305 50.7857 41.2881 50.2925 40.8567 49.9289C40.4252 49.5653 39.8401 49.361 39.23 49.361H21.7644C21.1543 49.361 20.5691 49.5653 20.1377 49.9289C19.7063 50.2925 19.4639 50.7857 19.4639 51.3V54.324C19.4606 54.5804 19.5177 54.8348 19.6318 55.0724C19.7459 55.3101 19.9149 55.5264 20.1288 55.7086C20.3428 55.8909 20.5975 56.0356 20.8782 56.1344C21.159 56.2331 21.4602 56.284 21.7644 56.284H37.4195V60.4H17.861V21.2H51.2972V33.695H50.9152C49.8872 33.6894 48.8681 33.8551 47.9162 34.1824C46.9644 34.5097 46.0986 34.9923 45.3686 35.6024C44.6386 36.2124 44.0588 36.938 43.6624 37.7375C43.266 38.5369 43.0608 39.3945 43.0586 40.261L43.341 43.6L43.2745 43.67L43.15 43.81C43.0677 43.8989 42.9928 43.9924 42.9257 44.09L42.8261 44.251C42.7668 44.3566 42.7195 44.4668 42.6849 44.58C42.6849 44.636 42.6849 44.685 42.6267 44.734C42.581 44.9017 42.5559 45.0729 42.552 45.245C42.5529 45.8162 42.7975 46.3681 43.2412 46.7999C43.6849 47.2318 44.2981 47.5146 44.9688 47.597C45.0661 47.9046 45.1882 48.2063 45.3342 48.5C45.3774 48.5912 45.4273 48.68 45.4837 48.766C45.5772 48.9503 45.6825 49.1303 45.7993 49.305C45.8657 49.403 45.9405 49.494 46.0152 49.585C46.09 49.676 46.2395 49.872 46.3557 50.005L46.6298 50.271C46.6796 50.32 46.7378 50.383 46.7959 50.432C46.5634 50.999 46.2062 51.475 46.0318 51.503H45.9073L41.5305 52.028ZM51.5547 59.441L49.7359 56.557L51.5879 54.653L53.2489 56.389L51.5547 59.441Z" fill="#936F01" stroke="#936F01" stroke-width="4" mask="url(#path-30-inside-14_36_75)"/>
<mask id="path-31-inside-15_36_75" fill="white">
<path d="M38.2583 52.1328H27.6444V53.5328H38.2583V52.1328Z"/>
</mask>
<path d="M38.2583 52.1328H27.6444V53.5328H38.2583V52.1328Z" fill="#936F01"/>
<path d="M27.6444 52.1328V50.1328H25.6444V52.1328H27.6444ZM38.2583 52.1328H40.2583V50.1328H38.2583V52.1328ZM38.2583 53.5328V55.5328H40.2583V53.5328H38.2583ZM27.6444 53.5328H25.6444V55.5328H27.6444V53.5328ZM27.6444 54.1328H38.2583V50.1328H27.6444V54.1328ZM36.2583 52.1328V53.5328H40.2583V52.1328H36.2583ZM38.2583 51.5328H27.6444V55.5328H38.2583V51.5328ZM29.6444 53.5328V52.1328H25.6444V53.5328H29.6444Z" fill="#936F01" mask="url(#path-31-inside-15_36_75)"/>
<mask id="path-33-inside-16_36_75" fill="white">
<path d="M26.0083 52.1328H22.7444V53.5328H26.0083V52.1328Z"/>
</mask>
<path d="M26.0083 52.1328H22.7444V53.5328H26.0083V52.1328Z" fill="#936F01"/>
<path d="M22.7444 52.1328V50.1328H20.7444V52.1328H22.7444ZM26.0083 52.1328H28.0083V50.1328H26.0083V52.1328ZM26.0083 53.5328V55.5328H28.0083V53.5328H26.0083ZM22.7444 53.5328H20.7444V55.5328H22.7444V53.5328ZM22.7444 54.1328H26.0083V50.1328H22.7444V54.1328ZM24.0083 52.1328V53.5328H28.0083V52.1328H24.0083ZM26.0083 51.5328H22.7444V55.5328H26.0083V51.5328ZM24.7444 53.5328V52.1328H20.7444V53.5328H24.7444Z" fill="#936F01" mask="url(#path-33-inside-16_36_75)"/>
<mask id="path-35-inside-17_36_75" fill="white">
<path d="M38.25 46.6309H26.0083V48.0309H38.25V46.6309Z"/>
</mask>
<path d="M38.25 46.6309H26.0083V48.0309H38.25V46.6309Z" fill="#936F01"/>
<path d="M26.0083 46.6309V44.6309H24.0083V46.6309H26.0083ZM38.25 46.6309H40.25V44.6309H38.25V46.6309ZM38.25 48.0309V50.0309H40.25V48.0309H38.25ZM26.0083 48.0309H24.0083V50.0309H26.0083V48.0309ZM26.0083 48.6309H38.25V44.6309H26.0083V48.6309ZM36.25 46.6309V48.0309H40.25V46.6309H36.25ZM38.25 46.0309H26.0083V50.0309H38.25V46.0309ZM28.0083 48.0309V46.6309H24.0083V48.0309H28.0083Z" fill="#936F01" mask="url(#path-35-inside-17_36_75)"/>
</svg>
