<svg width="42" height="48" viewBox="0 0 42 48" fill="none" xmlns="http://www.w3.org/2000/svg">
<path d="M15.6048 36.1918C14.8668 33.628 13.9747 27.0465 14.6458 24.4134C14.9212 23.3345 15.4413 20.6731 14.3348 19.2481C13.5814 18.2787 12.2891 18.0821 10.6 18.7607C5.74228 20.7316 5.31877 23.9086 5.81658 26.2149C7.03212 32.249 8.44282 36.6817 10.0086 39.3887C10.754 40.6785 12.0176 41.5112 13.2272 41.5112C13.9806 41.5112 14.6533 41.1912 15.1209 40.6107C15.6419 39.9613 16.1516 38.6779 15.6172 36.2409C15.6142 36.2235 15.6093 36.2082 15.6048 36.1918ZM13.9236 39.6463C13.7463 39.8667 13.519 39.9732 13.2277 39.9732C12.6779 39.9732 11.8799 39.5541 11.339 38.6189C9.85698 36.0561 8.50572 31.7809 7.32189 25.9008C6.75969 23.2964 7.98513 21.4795 11.1751 20.1852C11.661 19.9896 12.0766 19.891 12.4109 19.891C12.8349 19.891 13.0132 20.0505 13.1217 20.1907C13.5863 20.7885 13.6007 22.2968 13.1574 24.0334C12.3985 27.0054 13.3605 33.9301 14.1213 36.592C14.5542 38.5882 14.1272 39.3931 13.9236 39.6463Z" fill="white"/>
<path d="M16.0065 7.60089C15.7123 8.02538 15.5395 8.54102 15.5395 9.09678C15.5395 10.5526 16.7238 11.7369 18.1791 11.7369C19.6353 11.7369 20.8197 10.5526 20.8197 9.09678C20.8197 7.6415 19.6353 6.45667 18.1791 6.45667C17.8368 6.45667 17.5099 6.52453 17.2092 6.64341L15.3809 4.34458C15.1174 4.0137 14.6335 3.95872 14.3011 4.22273C13.9688 4.48674 13.9143 4.96969 14.1788 5.30255L16.0065 7.60089ZM19.2827 9.09629C19.2827 9.70505 18.7873 10.2004 18.1786 10.2004C17.5703 10.2004 17.0755 9.70505 17.0755 9.09629C17.0755 8.48753 17.5703 7.99319 18.1786 7.99319C18.7873 7.99368 19.2827 8.48802 19.2827 9.09629Z" fill="white"/>
<path d="M35.5221 29.8654C35.1194 24.6343 35.2407 19.3649 35.8847 14.1541C35.9347 14.0525 35.9649 13.9391 35.9649 13.8182C35.9649 13.7613 35.9575 13.7058 35.9461 13.6518C36.0412 12.9157 36.1462 12.1792 36.2631 11.4451C36.5459 9.66885 36.1903 8.03574 35.2061 6.59136C34.2194 5.14103 32.827 4.27321 31.181 4.08103C29.2665 3.85862 27.3214 3.68674 25.3916 3.56291C23.7278 1.39782 21.1144 0 18.1786 0C15.2433 0 12.6294 1.39881 10.9651 3.5639C9.04023 3.68674 7.09507 3.85813 5.17666 4.08152C3.53068 4.2742 2.1383 5.14202 1.15161 6.59185C0.167384 8.03624 -0.188759 9.66934 0.0940749 11.4456C1.40125 19.6582 1.40125 27.9871 0.0940749 36.1987C-0.188759 37.974 0.166888 39.6081 1.15111 41.0545C2.1383 42.5038 3.53117 43.3706 5.17666 43.5628C9.47315 44.0641 13.8479 44.3182 18.1806 44.3182C20.68 44.3182 23.2067 44.23 25.7017 44.0626C27.3625 46.2366 29.9803 47.6438 32.9206 47.6438C37.9274 47.6438 42 43.5697 42 38.5644C42.001 34.4616 39.2648 30.9879 35.5221 29.8654ZM26.3872 5.16778C27.9292 5.2827 29.4761 5.42981 31.0032 5.60813C32.2103 5.74831 33.1965 6.37044 33.936 7.4567C34.6924 8.56624 34.9643 9.82686 34.7459 11.2044C34.6483 11.8176 34.5621 12.4338 34.4784 13.0505H26.3713C26.9514 11.8547 27.2768 10.5129 27.2768 9.09674C27.2768 8.93328 27.2719 8.76982 27.2639 8.60735C27.2595 8.54643 27.2535 8.48649 27.2496 8.42557C27.2416 8.32601 27.2347 8.22545 27.2243 8.12639C27.2159 8.04813 27.205 7.97234 27.1946 7.89507C27.1842 7.81483 27.1738 7.73458 27.1609 7.65533C27.1475 7.56815 27.1307 7.48097 27.1143 7.39429C27.102 7.32742 27.0891 7.26253 27.0752 7.19715C27.0549 7.10155 27.0331 7.00546 27.0093 6.91184C26.9964 6.85785 26.9816 6.80435 26.9677 6.75135C26.9405 6.64783 26.9117 6.54529 26.88 6.44276C26.8677 6.40313 26.8553 6.3645 26.8429 6.32487C26.8072 6.21144 26.7696 6.09851 26.728 5.98706C26.7215 5.96972 26.7156 5.95337 26.7097 5.93554C26.6121 5.6745 26.5076 5.41842 26.3872 5.16778ZM18.1791 1.53701C20.7786 1.53701 23.0744 2.85558 24.4361 4.8582C24.447 4.87554 24.4579 4.89188 24.4688 4.90872C24.5842 5.08308 24.6922 5.2609 24.7937 5.44368C24.8135 5.47934 24.8328 5.51451 24.8517 5.54918C24.9483 5.73097 25.0384 5.91771 25.1206 6.10841C25.131 6.13169 25.1424 6.15398 25.1518 6.17726C25.3307 6.60275 25.4693 7.04805 25.5689 7.50871C25.5808 7.56666 25.5912 7.62462 25.6021 7.68307C25.6348 7.85544 25.6605 8.02831 25.6818 8.20465C25.6898 8.26954 25.6982 8.33344 25.7046 8.39832C25.7254 8.62964 25.7398 8.86294 25.7398 9.09773C25.7398 13.2664 22.3478 16.6584 18.1786 16.6584C14.0099 16.6584 10.6189 13.2664 10.6189 9.09773C10.6189 8.86146 10.6327 8.62865 10.6535 8.39733C10.66 8.33344 10.6684 8.27053 10.6758 8.20762C10.6966 8.02881 10.7234 7.85247 10.757 7.67861C10.7675 7.62363 10.7774 7.56716 10.7887 7.51317C10.8878 7.04954 11.027 6.60176 11.2078 6.17429C11.2157 6.15596 11.2241 6.13764 11.2331 6.11832C11.3168 5.92464 11.4084 5.73444 11.5075 5.54869C11.5263 5.51501 11.5451 5.48083 11.5634 5.44616C11.6635 5.26635 11.77 5.09001 11.8839 4.91912C11.8978 4.89783 11.9117 4.87752 11.9255 4.85622C13.2872 2.8536 15.5826 1.53701 18.1791 1.53701ZM2.42262 7.4567C3.16165 6.37044 4.14835 5.74831 5.35597 5.60813C6.88505 5.43031 8.43197 5.28319 9.97195 5.16877C9.84812 5.42535 9.74014 5.68837 9.64206 5.95436C9.63859 5.96328 9.63562 5.97071 9.63215 5.97864C9.58906 6.09752 9.54943 6.21739 9.51129 6.33874C9.50089 6.37044 9.49098 6.40165 9.48058 6.43335C9.44789 6.54084 9.41619 6.6503 9.38746 6.75928C9.37557 6.80683 9.36319 6.85388 9.3518 6.90045C9.32654 7.001 9.30325 7.10056 9.28195 7.20111C9.26908 7.26204 9.25768 7.32296 9.24629 7.38389C9.22846 7.47503 9.21211 7.56567 9.19676 7.65781C9.18437 7.73409 9.17496 7.81086 9.16506 7.88714C9.15416 7.96739 9.14277 8.04664 9.13435 8.12688C9.12394 8.22347 9.11701 8.32155 9.11007 8.42012C9.10512 8.48203 9.09868 8.54395 9.09522 8.60686C9.0863 8.76933 9.08234 8.93279 9.08234 9.09624C9.08234 10.5124 9.40727 11.8542 9.9873 13.05H1.88222C1.799 12.4338 1.71083 11.8186 1.61276 11.2039C1.39382 9.82686 1.66625 8.56624 2.42262 7.4567ZM24.7774 42.5845C18.3074 42.9694 11.7645 42.7827 5.35597 42.0362C4.14835 41.896 3.16165 41.2739 2.42213 40.1886C1.66625 39.0781 1.39382 37.8165 1.61276 36.4409C2.76589 29.1938 2.91944 21.8589 2.07589 14.5875H10.8923C10.9047 14.5875 10.9165 14.5845 10.9289 14.5835C12.5913 16.7758 15.222 18.195 18.1791 18.195C21.1367 18.195 23.7679 16.7758 25.4307 14.5835C25.4431 14.5845 25.455 14.5875 25.4674 14.5875H34.2897C33.7151 19.5507 33.5957 24.5629 33.9509 29.543C33.937 29.541 33.9222 29.541 33.9078 29.539C33.7909 29.5266 33.6735 29.5167 33.5556 29.5088C33.5095 29.5058 33.4625 29.5009 33.4164 29.4984C33.2525 29.4895 33.0875 29.485 32.9216 29.485C31.7794 29.485 30.6872 29.699 29.6806 30.0849C29.9764 28.8782 30.2646 27.5909 30.5386 26.2258C31.0393 23.9086 30.6163 20.7316 25.7556 18.7591C24.281 18.1682 23.1274 18.2242 22.327 18.9256C20.8395 20.2298 21.4017 23.1978 21.7118 24.4138C22.3839 27.048 21.4923 33.6295 20.7533 36.1933C20.7484 36.2086 20.7444 36.225 20.7409 36.2418C20.0311 39.4798 21.1312 40.7102 21.85 41.1555C22.2319 41.3928 22.6702 41.5077 23.1264 41.5077C23.4969 41.5077 23.8798 41.4294 24.2558 41.2793C24.2642 41.3026 24.2721 41.3259 24.2796 41.3492C24.4158 41.7707 24.5802 42.1848 24.7774 42.5845ZM23.8417 38.5649C23.8417 38.7314 23.8471 38.8968 23.8556 39.0612C23.8585 39.1202 23.865 39.1781 23.8684 39.2371C23.8769 39.3416 23.8843 39.4461 23.8952 39.5496C23.9026 39.6135 23.911 39.6764 23.92 39.7403C23.4534 40.0004 22.9838 40.0499 22.6588 39.8488C22.1774 39.5496 21.8143 38.5387 22.2363 36.5935C22.9972 33.9321 23.9596 27.0069 23.2002 24.0334C22.7222 22.1616 22.7777 20.573 23.3384 20.0812C23.7496 19.7211 24.5678 19.939 25.1796 20.1837C28.3725 21.48 29.5984 23.2969 29.0337 25.9117C28.6578 27.7781 28.2605 29.4939 27.8509 31.0344C25.4347 32.667 23.8417 35.4339 23.8417 38.5649ZM32.9211 46.1068C30.0759 46.1068 27.5953 44.5223 26.3109 42.1907C26.2956 42.1625 26.2802 42.1348 26.2653 42.1055C26.1697 41.9257 26.0801 41.741 25.9989 41.5533C25.986 41.523 25.9721 41.4953 25.9597 41.4651C25.7829 41.0406 25.6437 40.5973 25.5466 40.1376C25.5347 40.0856 25.5263 40.0311 25.5159 39.9791C25.4822 39.8037 25.4555 39.6279 25.4342 39.4501C25.4272 39.3862 25.4188 39.3233 25.4134 39.2594C25.3921 39.03 25.3782 38.7987 25.3782 38.5649C25.3782 34.4051 28.7613 31.021 32.9211 31.021C33.1628 31.021 33.4006 31.0354 33.6364 31.0577C33.6636 31.0597 33.6908 31.0617 33.7186 31.0646C33.9449 31.0889 34.1688 31.1236 34.3893 31.1672C34.42 31.1731 34.4502 31.1796 34.4809 31.1855C37.8942 31.9062 40.464 34.9401 40.464 38.5649C40.464 42.7237 37.0809 46.1068 32.9211 46.1068Z" fill="white"/>
<path d="M36.5241 34.6876C36.1546 34.4786 35.686 34.6113 35.4784 34.9809L32.4237 40.4196L30.2869 37.8374C30.0159 37.5095 29.5315 37.4639 29.2046 37.7349C28.8777 38.0058 28.8316 38.4903 29.103 38.8167L31.9537 42.2617C32.1003 42.4385 32.3172 42.5406 32.5456 42.5406C32.5684 42.5406 32.5917 42.5396 32.6144 42.5376C32.8671 42.5143 33.0914 42.3692 33.2158 42.1488L36.8183 35.7338C37.0263 35.3637 36.8946 34.8952 36.5241 34.6876Z" fill="white"/>
</svg>
