<svg width="60" height="60" viewBox="0 0 60 60" fill="none" xmlns="http://www.w3.org/2000/svg">
<ellipse cx="30" cy="29.7436" rx="30" ry="29.7436" fill="white" fill-opacity="0.81"/>
<path d="M33.7198 35.6038V25.8172H40.0521C40.9715 25.8158 41.8527 25.4499 42.5027 24.7997C43.1527 24.1495 43.5183 23.2681 43.5195 22.3488V15.17C43.5641 15.17 43.6099 15.1766 43.6556 15.1766H46.379C46.8134 15.1711 47.228 14.9937 47.5318 14.6831C47.8357 14.3725 48.004 13.9542 47.9999 13.5197V8.65688C48.004 8.22335 47.8364 7.80581 47.5338 7.49539C47.2311 7.18497 46.8179 7.00689 46.3844 7H43.6611C43.2266 7.00517 42.8118 7.18254 42.5079 7.49318C42.204 7.80382 42.0358 8.22234 42.0402 8.65688V10.3454H38.9029V8.65688C38.905 8.44126 38.8646 8.22733 38.784 8.02732C38.7035 7.82731 38.5842 7.64516 38.4332 7.49127C38.2821 7.33738 38.1022 7.21479 37.9037 7.13049C37.7053 7.04619 37.4921 7.00185 37.2765 7H34.5531C34.1187 7.00546 33.7041 7.18292 33.4003 7.49349C33.0965 7.80407 32.9281 8.22242 32.9322 8.65688V13.1635C32.5704 12.3975 32.0431 11.7215 31.3884 11.184C30.7336 10.6465 29.9678 10.261 29.146 10.0554C28.3243 9.8497 27.4671 9.82897 26.6364 9.99467C25.8057 10.1604 25.0221 10.5084 24.3421 11.0136C23.6622 11.5188 23.1028 12.1686 22.7044 12.9161C22.306 13.6636 22.0784 14.4903 22.0382 15.3364C21.9979 16.1826 22.1459 17.0271 22.4715 17.8091C22.7972 18.5911 23.2923 19.2911 23.9212 19.8586C22.115 19.9015 20.3867 20.6031 19.0617 21.8313L13.9559 26.5536C13.6523 26.8242 13.41 27.1564 13.2452 27.5282C13.0804 27.8999 12.9968 28.3025 13.0001 28.7092C13.0034 29.1158 13.0935 29.517 13.2643 29.886C13.4352 30.255 13.6829 30.5833 13.9908 30.8489L20.4418 36.4339C20.7949 36.739 21.2171 36.9533 21.6717 37.0581L19.7708 48.8023C19.704 49.2603 19.7367 49.7274 19.8665 50.1717C19.9964 50.616 20.2204 51.0271 20.5233 51.377C20.8263 51.727 21.201 52.0076 21.6221 52.1998C22.0432 52.392 22.5008 52.4912 22.9637 52.4908C23.7151 52.4889 24.4416 52.2205 25.0138 51.7334C25.5861 51.2464 25.967 50.5721 26.089 49.8306L27.7568 40.0636L29.4267 49.8241C29.5615 50.6545 30.0204 51.3976 30.7025 51.89C31.3847 52.3824 32.2344 52.584 33.0651 52.4505L33.1152 52.4418C33.9445 52.3069 34.6865 51.8488 35.1786 51.1678C35.6707 50.4868 35.8728 49.6385 35.7405 48.8088L33.7198 35.6038ZM43.5238 8.65688C43.5201 8.61603 43.5323 8.57531 43.5579 8.54324C43.5835 8.51117 43.6204 8.49022 43.6611 8.48477H46.3844C46.4249 8.49047 46.4616 8.51153 46.487 8.54358C46.5123 8.57562 46.5244 8.6162 46.5206 8.65688V13.5197C46.5244 13.5604 46.5123 13.601 46.487 13.633C46.4616 13.665 46.4249 13.6861 46.3844 13.6918H43.6611C43.6206 13.6861 43.5839 13.665 43.5586 13.633C43.5332 13.601 43.5212 13.5604 43.5249 13.5197V8.65688H43.5238ZM34.4191 8.65688C34.4154 8.61636 34.4273 8.57593 34.4524 8.54391C34.4775 8.51189 34.514 8.49073 34.5542 8.48477H37.2776C37.318 8.49047 37.3547 8.51153 37.3801 8.54358C37.4055 8.57562 37.4175 8.6162 37.4137 8.65688V13.5197C37.4175 13.5604 37.4055 13.601 37.3801 13.633C37.3547 13.665 37.318 13.6861 37.2776 13.6918H34.5542C34.514 13.6858 34.4775 13.6647 34.4524 13.6327C34.4273 13.6006 34.4154 13.5602 34.4191 13.5197V8.65688ZM34.5542 15.1766H37.2776C37.3244 15.1766 37.3691 15.1766 37.4137 15.17V19.8542H31.5989C32.3077 19.2137 32.8446 18.4056 33.1603 17.5039C33.4761 16.6022 33.5605 15.6357 33.4061 14.6929C33.5549 14.8457 33.7327 14.9672 33.9291 15.0502C34.1256 15.1333 34.3366 15.1762 34.5499 15.1766H34.5542ZM23.5192 15.6123C23.5194 14.7735 23.7684 13.9535 24.2347 13.2562C24.7009 12.5589 25.3635 12.0155 26.1386 11.6948C26.9138 11.3741 27.7666 11.2904 28.5892 11.4545C29.4119 11.6185 30.1674 12.0228 30.7603 12.6162C31.3531 13.2097 31.7566 13.9656 31.9198 14.7885C32.083 15.6113 31.9985 16.464 31.677 17.2388C31.3555 18.0136 30.8114 18.6756 30.1136 19.1412C29.4158 19.6067 28.5956 19.8548 27.7568 19.8542C26.6326 19.8525 25.555 19.4053 24.76 18.6106C23.9649 17.816 23.5172 16.7386 23.5149 15.6145L23.5192 15.6123ZM32.8766 50.9755L32.8276 50.9842C32.3845 51.0542 31.9318 50.9458 31.5685 50.6826C31.2053 50.4194 30.9612 50.0229 30.8897 49.5801L28.4877 35.5352V35.52C28.4877 35.5036 28.4812 35.4884 28.4768 35.4731C28.4724 35.4579 28.4714 35.4546 28.4692 35.4448L28.4561 35.4056L28.443 35.3729C28.443 35.362 28.4332 35.3511 28.4278 35.3402C28.4223 35.3293 28.4169 35.3174 28.4104 35.3065C28.4038 35.2956 28.4006 35.2879 28.3951 35.2781L28.3733 35.2444L28.3548 35.2182C28.3472 35.2084 28.3395 35.1975 28.3308 35.1877L28.308 35.1616L28.284 35.1365L28.2557 35.1104L28.2328 35.0897L28.199 35.0635L28.1761 35.0472L28.1402 35.0243L28.1151 35.0102C28.1032 35.0025 28.0901 34.9971 28.0781 34.9906L28.0476 34.9775L28.0138 34.9633L27.9757 34.9513L27.9463 34.9426L27.9005 34.9328H27.8842H27.8744L27.8254 34.9274H27.7992H27.7219H27.6859H27.6456H27.6337H27.614L27.5737 34.9372C27.5622 34.9393 27.5509 34.9426 27.54 34.947L27.5051 34.9579L27.4692 34.972L27.4398 34.9851L27.4038 35.0036L27.3766 35.0189L27.3428 35.0407L27.3156 35.0603L27.2872 35.0821L27.2578 35.1071C27.2511 35.1146 27.2438 35.1215 27.236 35.1278L27.2055 35.1605C27.2001 35.1664 27.1951 35.1726 27.1903 35.179C27.1794 35.1921 27.1696 35.2041 27.1598 35.2182L27.1478 35.2346C27.138 35.2487 27.1293 35.2629 27.1206 35.277L27.1097 35.2956C27.1021 35.3097 27.0944 35.3239 27.0879 35.3391C27.0838 35.3469 27.0802 35.3549 27.077 35.3631L27.0607 35.4023C27.0607 35.4143 27.053 35.4252 27.0498 35.4361L27.04 35.4699C27.04 35.484 27.0334 35.4982 27.0313 35.5134C27.0291 35.5287 27.0313 35.5243 27.0313 35.5298L24.6271 49.5822C24.5921 49.8014 24.514 50.0116 24.3973 50.2004C24.2807 50.3892 24.1277 50.5531 23.9473 50.6825C23.7601 50.8161 23.5478 50.9105 23.3232 50.9601C23.0986 51.0097 22.8662 51.0135 22.6401 50.9711C22.1984 50.8992 21.8032 50.655 21.5412 50.2921C21.2792 49.9293 21.1718 49.4773 21.2425 49.0354L23.1815 36.9949C23.7118 36.8267 24.181 36.5067 24.5312 36.0744C25.4964 34.8882 25.3101 33.082 24.1162 32.0439L23.8831 31.8413L23.8722 25.3564C23.8717 25.2168 23.8319 25.0802 23.7573 24.9622C23.6827 24.8442 23.5764 24.7496 23.4506 24.6892C23.3247 24.6288 23.1844 24.6051 23.0456 24.6208C22.9069 24.6365 22.7755 24.691 22.6663 24.778L18.5715 28.046C18.4863 28.114 18.4172 28.2 18.369 28.2977C18.3208 28.3954 18.2947 28.5025 18.2925 28.6115C18.2903 28.7204 18.3121 28.8285 18.3564 28.9281C18.4006 29.0276 18.4663 29.1163 18.5486 29.1876L23.1445 33.1659C23.7371 33.679 23.8428 34.5603 23.3787 35.1267C23.1379 35.4064 22.7974 35.581 22.4297 35.6134C22.062 35.6457 21.6962 35.5333 21.4103 35.2999L14.9636 29.7258C14.7426 29.5363 14.5877 29.2814 14.5213 28.998C14.4549 28.7146 14.4804 28.4174 14.5943 28.1495C14.6789 27.956 14.805 27.7835 14.9636 27.6441L20.0671 22.9207C21.165 21.903 22.6072 21.3383 24.1042 21.3401H38.1567C38.3535 21.3398 38.5422 21.2614 38.6813 21.1221C38.8204 20.9828 38.8985 20.794 38.8985 20.5971V13.3988C38.8985 12.9827 39.0638 12.5838 39.358 12.2896C39.6521 11.9954 40.0511 11.8301 40.4672 11.8301C40.8832 11.8301 41.2822 11.9954 41.5764 12.2896C41.8705 12.5838 42.0358 12.9827 42.0358 13.3988V22.3488C42.0349 22.8744 41.8258 23.3783 41.4542 23.7501C41.0826 24.1219 40.5789 24.3313 40.0532 24.3325H32.9769C32.8794 24.3325 32.7828 24.3517 32.6927 24.389C32.6026 24.4264 32.5208 24.4811 32.4519 24.5501C32.383 24.6191 32.3284 24.701 32.2912 24.7912C32.254 24.8813 32.2349 24.9779 32.235 25.0754V35.6605C32.235 35.6969 32.2375 35.7333 32.2426 35.7694L34.2743 49.0365C34.3459 49.4789 34.2389 49.9317 33.9769 50.2953C33.7148 50.6589 33.319 50.9036 32.8766 50.9755ZM22.3994 30.5602L20.2 28.656L22.3939 26.9044L22.3994 30.5602Z" fill="#936F01"/>
</svg>
