<svg width="60" height="60" viewBox="0 0 60 60" fill="none" xmlns="http://www.w3.org/2000/svg">
<ellipse cx="30" cy="29.7436" rx="30" ry="29.7436" fill="white" fill-opacity="0.81"/>
<mask id="path-2-inside-1_27_151" fill="white">
<path d="M51.7168 38.7142L47.9316 36.309C48.0095 36.0497 48.0761 35.806 48.1242 35.5899C48.7544 32.9609 48.9732 30.2508 48.7727 27.5555C48.7797 27.4818 48.7744 27.4075 48.757 27.3356C48.1845 21.8343 45.2517 18.0564 40.1066 16.4233C36.8469 15.637 33.4961 16.418 31.4971 18.4055V15.7401L36.31 13.3102C36.3911 13.2693 36.4632 13.2129 36.5223 13.1443C36.5815 13.0756 36.6264 12.9961 36.6546 12.9101C36.6829 12.8242 36.6938 12.7336 36.6868 12.6434C36.6798 12.5533 36.6551 12.4654 36.614 12.3848C36.5728 12.3042 36.5162 12.2324 36.4472 12.1736C36.3782 12.1148 36.2982 12.07 36.2118 12.042C36.1255 12.0139 36.0344 12.003 35.9438 12.0099C35.8532 12.0169 35.7649 12.0415 35.6838 12.0824L31.4971 14.1962V7.88679C31.4966 7.70446 31.4235 7.52976 31.2937 7.40101C31.164 7.27226 30.9882 7.19995 30.8049 7.19995C30.6217 7.19995 30.4459 7.27226 30.3161 7.40101C30.1864 7.52976 30.1132 7.70446 30.1127 7.88679V12.1364C26.8129 8.32284 19.2225 8.90274 18.8396 8.93598C18.6778 8.94953 18.526 9.01926 18.4107 9.13297C18.2954 9.24668 18.2239 9.39712 18.2088 9.55796C18.1889 9.7694 17.7853 14.3833 19.4487 17.2576C15.3372 19.2855 13.0712 23.0562 12.7865 28.2577C12.7728 28.3207 12.7682 28.3853 12.7729 28.4495C12.7186 29.8981 12.793 31.3487 12.9949 32.7843L12.9935 32.7894C12.9878 32.8825 13.0012 32.9757 13.0331 33.0634C13.1506 33.8839 13.2921 34.7201 13.4857 35.5899C13.5182 35.7359 13.5596 35.8953 13.6059 36.0616L8.746 38.8525C8.66642 38.8983 8.59679 38.9593 8.54117 39.0322C8.48555 39.105 8.44506 39.1881 8.42206 39.2766C8.39906 39.3652 8.394 39.4574 8.40719 39.5479C8.42038 39.6384 8.45154 39.7254 8.49887 39.8038L11.7792 45.2347C11.869 45.3836 12.0119 45.4932 12.1795 45.5416C12.347 45.59 12.5267 45.5736 12.6826 45.4957L16.9932 43.346C19.6359 47.6783 23.4168 51.9371 27.2742 51.9371C28.123 51.9374 28.9589 51.7313 29.7093 51.3366C30.4309 51.1419 31.1915 51.1421 31.913 51.3372L32.0636 51.3936C32.7803 51.714 33.5509 51.8983 34.3357 51.9371C38.1705 51.9371 41.9288 47.7288 44.5691 43.4233L47.9795 45.4698C48.0599 45.5181 48.1493 45.5495 48.2423 45.5623C48.3353 45.575 48.4299 45.5688 48.5205 45.5441C48.611 45.5193 48.6955 45.4765 48.7689 45.4182C48.8422 45.36 48.9029 45.2875 48.9473 45.2051L51.9545 39.6197C52.0368 39.4668 52.058 39.2885 52.0139 39.1207C51.9699 38.9528 51.8638 38.8077 51.7168 38.7142ZM17.8871 36.122C17.978 36.122 18.068 36.1042 18.152 36.0696C18.236 36.035 18.3123 35.9842 18.3765 35.9203C18.4408 35.8563 18.4918 35.7804 18.5266 35.6968C18.5614 35.6133 18.5793 35.5237 18.5793 35.4333V33.7535C19.8876 33.7958 21.1375 33.8188 22.3366 33.8257V35.4333C22.3364 35.5239 22.3541 35.6136 22.3888 35.6974C22.4234 35.7812 22.4744 35.8573 22.5387 35.9214C22.603 35.9856 22.6794 36.0365 22.7635 36.0712C22.8476 36.1059 22.9377 36.1238 23.0288 36.1238C23.1199 36.1238 23.21 36.1059 23.2941 36.0712C23.3782 36.0365 23.4546 35.9856 23.5189 35.9214C23.5832 35.8573 23.6342 35.7812 23.6688 35.6974C23.7035 35.6136 23.7212 35.5239 23.721 35.4333V33.8237C24.9892 33.817 26.1965 33.7922 27.3429 33.7492V35.4333C27.3426 35.5239 27.3603 35.6136 27.395 35.6974C27.4297 35.7812 27.4806 35.8573 27.5449 35.9214C27.6092 35.9856 27.6856 36.0365 27.7697 36.0712C27.8538 36.1059 27.944 36.1238 28.0351 36.1238C28.1261 36.1238 28.2163 36.1059 28.3004 36.0712C28.3845 36.0365 28.4609 35.9856 28.5252 35.9214C28.5895 35.8573 28.6404 35.7812 28.6751 35.6974C28.7098 35.6136 28.7275 35.5239 28.7273 35.4333V33.6894C29.3129 33.6591 29.8818 33.6243 30.4342 33.585L30.4572 33.5862C30.4648 33.5868 30.4724 33.5868 30.4797 33.5868C30.4929 33.5868 30.5042 33.5801 30.5173 33.5793C31.2171 33.5289 31.8817 33.4695 32.5298 33.4061V35.1078C32.5298 35.2904 32.6027 35.4656 32.7325 35.5947C32.8623 35.7239 33.0384 35.7965 33.222 35.7965C33.4055 35.7965 33.5816 35.7239 33.7114 35.5947C33.8412 35.4656 33.9142 35.2904 33.9142 35.1078V33.2578C35.1082 33.117 36.2071 32.9548 37.2202 32.7762V34.4148C37.22 34.5054 37.2377 34.5951 37.2724 34.6789C37.3071 34.7627 37.358 34.8388 37.4223 34.9029C37.4866 34.9671 37.563 35.018 37.6471 35.0527C37.7312 35.0874 37.8214 35.1053 37.9124 35.1053C38.0035 35.1053 38.0936 35.0874 38.1777 35.0527C38.2618 35.018 38.3382 34.9671 38.4025 34.9029C38.4668 34.8388 38.5178 34.7627 38.5524 34.6789C38.5871 34.5951 38.6049 34.5054 38.6046 34.4148V32.5134C39.8677 32.2522 40.9752 31.9659 41.9496 31.6672V33.3295C41.9493 33.4201 41.9671 33.5099 42.0017 33.5937C42.0364 33.6774 42.0874 33.7536 42.1517 33.8177C42.216 33.8819 42.2924 33.9328 42.3765 33.9675C42.4606 34.0022 42.5507 34.0201 42.6418 34.0201C42.7328 34.0201 42.823 34.0022 42.9071 33.9675C42.9912 33.9328 43.0676 33.8819 43.1319 33.8177C43.1962 33.7536 43.2472 33.6774 43.2818 33.5937C43.3165 33.5099 43.3342 33.4201 43.334 33.3295V31.2059C44.8215 30.7041 46.2222 29.9766 47.4864 29.0491C47.497 30.4251 47.393 31.7995 47.1754 33.1584C45.198 39.1606 24.3769 39.0889 15.9754 38.5282C15.4947 37.4873 15.1135 36.4037 14.8371 35.2918C14.712 34.7297 14.5991 34.1536 14.5006 33.5694C15.4226 33.6218 16.3207 33.666 17.1949 33.702V35.4333C17.1949 35.5237 17.2128 35.6133 17.2475 35.6968C17.2823 35.7804 17.3333 35.8563 17.3976 35.9203C17.4619 35.9842 17.5382 36.0349 17.6222 36.0696C17.7062 36.1042 17.7962 36.122 17.8871 36.122ZM19.5527 10.2789C21.7204 10.2103 29.1015 10.3471 30.1127 15.1772V18.3984C29.1813 17.4591 28.011 16.789 26.7267 16.4595C26.7009 16.4068 26.6681 16.3577 26.6293 16.3135L23.2927 12.9939C23.2286 12.9293 23.1523 12.8779 23.0681 12.8428C22.984 12.8076 22.8937 12.7894 22.8024 12.7891C22.7112 12.7888 22.6207 12.8065 22.5364 12.8411C22.452 12.8757 22.3753 12.9266 22.3108 12.9908C22.2463 13.055 22.1952 13.1312 22.1604 13.2152C22.1256 13.2991 22.1078 13.3891 22.1081 13.4799C22.1084 13.5707 22.1267 13.6605 22.1621 13.7442C22.1974 13.8279 22.249 13.9039 22.3139 13.9677L24.4811 16.1239C23.4631 16.0907 22.4453 16.1959 21.456 16.4367C21.2019 16.5174 20.9664 16.6163 20.7231 16.7076C19.5171 14.7926 19.5007 11.5952 19.5527 10.2789ZM21.8296 17.762C24.7222 17.0647 27.6962 17.7501 29.2499 19.4912C29.4415 19.7033 29.675 19.874 29.9358 19.9925C30.1966 20.1109 30.4791 20.1748 30.7657 20.1799C31.3651 20.157 31.9339 19.9113 32.3599 19.4912L32.3675 19.4837C34.0136 17.7496 36.9227 17.0743 39.7329 17.7485C44.8852 19.3854 46.9085 23.1253 47.376 27.2729C46.7576 28.0029 43.292 31.2766 30.4173 32.2052C26.2031 32.0317 16.4437 28.6938 14.1731 27.8986C14.5006 23.5062 16.4502 19.4721 21.8296 17.762ZM24.1887 32.4454C21.2637 32.4721 17.9807 32.393 14.2985 32.1774C14.1834 31.2362 14.1241 30.2892 14.1208 29.3411C15.9471 29.9763 20.2133 31.4169 24.1887 32.4454ZM12.6356 43.9784L10.0482 39.6951L11.4615 38.8836L12.5572 40.8314C12.6468 40.9908 12.7964 41.1083 12.9731 41.1579C13.1498 41.2076 13.339 41.1853 13.4992 41.0961C13.6594 41.007 13.7775 40.8581 13.8273 40.6823C13.8772 40.5065 13.8549 40.3183 13.7653 40.1589L12.6606 38.195L14.0473 37.3988C14.2679 37.991 14.5396 38.6434 14.856 39.3344C14.8771 39.4462 14.9259 39.551 14.998 39.6392C15.3754 40.4431 15.8105 41.2912 16.2955 42.1535L12.6356 43.9784ZM34.3357 50.5597C33.7195 50.5164 33.1162 50.3627 32.5549 50.1061L32.4018 50.048C31.9298 49.8818 31.4317 49.8007 30.9309 49.8086C30.3663 49.811 29.8043 49.8859 29.2589 50.0313C29.2119 50.0451 29.1665 50.0637 29.1234 50.0868C28.5567 50.3963 27.9207 50.559 27.2742 50.5597C23.449 50.5597 19.1003 44.8109 16.6481 39.9452C18.1059 40.0225 20.7931 40.1363 24.0052 40.1363C25.2468 40.1363 26.57 40.116 27.9247 40.0732C33.1788 41.8717 38.7885 42.1916 42.1012 42.1916C42.741 42.1916 43.295 42.1797 43.7444 42.1644C41.222 46.4011 37.589 50.5597 34.3357 50.5597ZM44.5452 40.7479C40.4444 40.9444 36.3349 40.6391 32.3089 39.8388C39.2518 39.3023 44.015 38.0566 46.5502 36.1218C46.0291 37.7229 45.3578 39.2718 44.5452 40.7479ZM48.0707 43.916L45.2688 42.2348C45.3353 42.1173 45.4031 41.9995 45.4677 41.8825C45.5513 41.795 45.6097 41.6868 45.637 41.5692C46.3281 40.3013 46.9394 38.9919 47.4671 37.6485L50.4314 39.5321L48.0707 43.916Z"/>
</mask>
<path d="M51.7168 38.7142L47.9316 36.309C48.0095 36.0497 48.0761 35.806 48.1242 35.5899C48.7544 32.9609 48.9732 30.2508 48.7727 27.5555C48.7797 27.4818 48.7744 27.4075 48.757 27.3356C48.1845 21.8343 45.2517 18.0564 40.1066 16.4233C36.8469 15.637 33.4961 16.418 31.4971 18.4055V15.7401L36.31 13.3102C36.3911 13.2693 36.4632 13.2129 36.5223 13.1443C36.5815 13.0756 36.6264 12.9961 36.6546 12.9101C36.6829 12.8242 36.6938 12.7336 36.6868 12.6434C36.6798 12.5533 36.6551 12.4654 36.614 12.3848C36.5728 12.3042 36.5162 12.2324 36.4472 12.1736C36.3782 12.1148 36.2982 12.07 36.2118 12.042C36.1255 12.0139 36.0344 12.003 35.9438 12.0099C35.8532 12.0169 35.7649 12.0415 35.6838 12.0824L31.4971 14.1962V7.88679C31.4966 7.70446 31.4235 7.52976 31.2937 7.40101C31.164 7.27226 30.9882 7.19995 30.8049 7.19995C30.6217 7.19995 30.4459 7.27226 30.3161 7.40101C30.1864 7.52976 30.1132 7.70446 30.1127 7.88679V12.1364C26.8129 8.32284 19.2225 8.90274 18.8396 8.93598C18.6778 8.94953 18.526 9.01926 18.4107 9.13297C18.2954 9.24668 18.2239 9.39712 18.2088 9.55796C18.1889 9.7694 17.7853 14.3833 19.4487 17.2576C15.3372 19.2855 13.0712 23.0562 12.7865 28.2577C12.7728 28.3207 12.7682 28.3853 12.7729 28.4495C12.7186 29.8981 12.793 31.3487 12.9949 32.7843L12.9935 32.7894C12.9878 32.8825 13.0012 32.9757 13.0331 33.0634C13.1506 33.8839 13.2921 34.7201 13.4857 35.5899C13.5182 35.7359 13.5596 35.8953 13.6059 36.0616L8.746 38.8525C8.66642 38.8983 8.59679 38.9593 8.54117 39.0322C8.48555 39.105 8.44506 39.1881 8.42206 39.2766C8.39906 39.3652 8.394 39.4574 8.40719 39.5479C8.42038 39.6384 8.45154 39.7254 8.49887 39.8038L11.7792 45.2347C11.869 45.3836 12.0119 45.4932 12.1795 45.5416C12.347 45.59 12.5267 45.5736 12.6826 45.4957L16.9932 43.346C19.6359 47.6783 23.4168 51.9371 27.2742 51.9371C28.123 51.9374 28.9589 51.7313 29.7093 51.3366C30.4309 51.1419 31.1915 51.1421 31.913 51.3372L32.0636 51.3936C32.7803 51.714 33.5509 51.8983 34.3357 51.9371C38.1705 51.9371 41.9288 47.7288 44.5691 43.4233L47.9795 45.4698C48.0599 45.5181 48.1493 45.5495 48.2423 45.5623C48.3353 45.575 48.4299 45.5688 48.5205 45.5441C48.611 45.5193 48.6955 45.4765 48.7689 45.4182C48.8422 45.36 48.9029 45.2875 48.9473 45.2051L51.9545 39.6197C52.0368 39.4668 52.058 39.2885 52.0139 39.1207C51.9699 38.9528 51.8638 38.8077 51.7168 38.7142ZM17.8871 36.122C17.978 36.122 18.068 36.1042 18.152 36.0696C18.236 36.035 18.3123 35.9842 18.3765 35.9203C18.4408 35.8563 18.4918 35.7804 18.5266 35.6968C18.5614 35.6133 18.5793 35.5237 18.5793 35.4333V33.7535C19.8876 33.7958 21.1375 33.8188 22.3366 33.8257V35.4333C22.3364 35.5239 22.3541 35.6136 22.3888 35.6974C22.4234 35.7812 22.4744 35.8573 22.5387 35.9214C22.603 35.9856 22.6794 36.0365 22.7635 36.0712C22.8476 36.1059 22.9377 36.1238 23.0288 36.1238C23.1199 36.1238 23.21 36.1059 23.2941 36.0712C23.3782 36.0365 23.4546 35.9856 23.5189 35.9214C23.5832 35.8573 23.6342 35.7812 23.6688 35.6974C23.7035 35.6136 23.7212 35.5239 23.721 35.4333V33.8237C24.9892 33.817 26.1965 33.7922 27.3429 33.7492V35.4333C27.3426 35.5239 27.3603 35.6136 27.395 35.6974C27.4297 35.7812 27.4806 35.8573 27.5449 35.9214C27.6092 35.9856 27.6856 36.0365 27.7697 36.0712C27.8538 36.1059 27.944 36.1238 28.0351 36.1238C28.1261 36.1238 28.2163 36.1059 28.3004 36.0712C28.3845 36.0365 28.4609 35.9856 28.5252 35.9214C28.5895 35.8573 28.6404 35.7812 28.6751 35.6974C28.7098 35.6136 28.7275 35.5239 28.7273 35.4333V33.6894C29.3129 33.6591 29.8818 33.6243 30.4342 33.585L30.4572 33.5862C30.4648 33.5868 30.4724 33.5868 30.4797 33.5868C30.4929 33.5868 30.5042 33.5801 30.5173 33.5793C31.2171 33.5289 31.8817 33.4695 32.5298 33.4061V35.1078C32.5298 35.2904 32.6027 35.4656 32.7325 35.5947C32.8623 35.7239 33.0384 35.7965 33.222 35.7965C33.4055 35.7965 33.5816 35.7239 33.7114 35.5947C33.8412 35.4656 33.9142 35.2904 33.9142 35.1078V33.2578C35.1082 33.117 36.2071 32.9548 37.2202 32.7762V34.4148C37.22 34.5054 37.2377 34.5951 37.2724 34.6789C37.3071 34.7627 37.358 34.8388 37.4223 34.9029C37.4866 34.9671 37.563 35.018 37.6471 35.0527C37.7312 35.0874 37.8214 35.1053 37.9124 35.1053C38.0035 35.1053 38.0936 35.0874 38.1777 35.0527C38.2618 35.018 38.3382 34.9671 38.4025 34.9029C38.4668 34.8388 38.5178 34.7627 38.5524 34.6789C38.5871 34.5951 38.6049 34.5054 38.6046 34.4148V32.5134C39.8677 32.2522 40.9752 31.9659 41.9496 31.6672V33.3295C41.9493 33.4201 41.9671 33.5099 42.0017 33.5937C42.0364 33.6774 42.0874 33.7536 42.1517 33.8177C42.216 33.8819 42.2924 33.9328 42.3765 33.9675C42.4606 34.0022 42.5507 34.0201 42.6418 34.0201C42.7328 34.0201 42.823 34.0022 42.9071 33.9675C42.9912 33.9328 43.0676 33.8819 43.1319 33.8177C43.1962 33.7536 43.2472 33.6774 43.2818 33.5937C43.3165 33.5099 43.3342 33.4201 43.334 33.3295V31.2059C44.8215 30.7041 46.2222 29.9766 47.4864 29.0491C47.497 30.4251 47.393 31.7995 47.1754 33.1584C45.198 39.1606 24.3769 39.0889 15.9754 38.5282C15.4947 37.4873 15.1135 36.4037 14.8371 35.2918C14.712 34.7297 14.5991 34.1536 14.5006 33.5694C15.4226 33.6218 16.3207 33.666 17.1949 33.702V35.4333C17.1949 35.5237 17.2128 35.6133 17.2475 35.6968C17.2823 35.7804 17.3333 35.8563 17.3976 35.9203C17.4619 35.9842 17.5382 36.0349 17.6222 36.0696C17.7062 36.1042 17.7962 36.122 17.8871 36.122ZM19.5527 10.2789C21.7204 10.2103 29.1015 10.3471 30.1127 15.1772V18.3984C29.1813 17.4591 28.011 16.789 26.7267 16.4595C26.7009 16.4068 26.6681 16.3577 26.6293 16.3135L23.2927 12.9939C23.2286 12.9293 23.1523 12.8779 23.0681 12.8428C22.984 12.8076 22.8937 12.7894 22.8024 12.7891C22.7112 12.7888 22.6207 12.8065 22.5364 12.8411C22.452 12.8757 22.3753 12.9266 22.3108 12.9908C22.2463 13.055 22.1952 13.1312 22.1604 13.2152C22.1256 13.2991 22.1078 13.3891 22.1081 13.4799C22.1084 13.5707 22.1267 13.6605 22.1621 13.7442C22.1974 13.8279 22.249 13.9039 22.3139 13.9677L24.4811 16.1239C23.4631 16.0907 22.4453 16.1959 21.456 16.4367C21.2019 16.5174 20.9664 16.6163 20.7231 16.7076C19.5171 14.7926 19.5007 11.5952 19.5527 10.2789ZM21.8296 17.762C24.7222 17.0647 27.6962 17.7501 29.2499 19.4912C29.4415 19.7033 29.675 19.874 29.9358 19.9925C30.1966 20.1109 30.4791 20.1748 30.7657 20.1799C31.3651 20.157 31.9339 19.9113 32.3599 19.4912L32.3675 19.4837C34.0136 17.7496 36.9227 17.0743 39.7329 17.7485C44.8852 19.3854 46.9085 23.1253 47.376 27.2729C46.7576 28.0029 43.292 31.2766 30.4173 32.2052C26.2031 32.0317 16.4437 28.6938 14.1731 27.8986C14.5006 23.5062 16.4502 19.4721 21.8296 17.762ZM24.1887 32.4454C21.2637 32.4721 17.9807 32.393 14.2985 32.1774C14.1834 31.2362 14.1241 30.2892 14.1208 29.3411C15.9471 29.9763 20.2133 31.4169 24.1887 32.4454ZM12.6356 43.9784L10.0482 39.6951L11.4615 38.8836L12.5572 40.8314C12.6468 40.9908 12.7964 41.1083 12.9731 41.1579C13.1498 41.2076 13.339 41.1853 13.4992 41.0961C13.6594 41.007 13.7775 40.8581 13.8273 40.6823C13.8772 40.5065 13.8549 40.3183 13.7653 40.1589L12.6606 38.195L14.0473 37.3988C14.2679 37.991 14.5396 38.6434 14.856 39.3344C14.8771 39.4462 14.9259 39.551 14.998 39.6392C15.3754 40.4431 15.8105 41.2912 16.2955 42.1535L12.6356 43.9784ZM34.3357 50.5597C33.7195 50.5164 33.1162 50.3627 32.5549 50.1061L32.4018 50.048C31.9298 49.8818 31.4317 49.8007 30.9309 49.8086C30.3663 49.811 29.8043 49.8859 29.2589 50.0313C29.2119 50.0451 29.1665 50.0637 29.1234 50.0868C28.5567 50.3963 27.9207 50.559 27.2742 50.5597C23.449 50.5597 19.1003 44.8109 16.6481 39.9452C18.1059 40.0225 20.7931 40.1363 24.0052 40.1363C25.2468 40.1363 26.57 40.116 27.9247 40.0732C33.1788 41.8717 38.7885 42.1916 42.1012 42.1916C42.741 42.1916 43.295 42.1797 43.7444 42.1644C41.222 46.4011 37.589 50.5597 34.3357 50.5597ZM44.5452 40.7479C40.4444 40.9444 36.3349 40.6391 32.3089 39.8388C39.2518 39.3023 44.015 38.0566 46.5502 36.1218C46.0291 37.7229 45.3578 39.2718 44.5452 40.7479ZM48.0707 43.916L45.2688 42.2348C45.3353 42.1173 45.4031 41.9995 45.4677 41.8825C45.5513 41.795 45.6097 41.6868 45.637 41.5692C46.3281 40.3013 46.9394 38.9919 47.4671 37.6485L50.4314 39.5321L48.0707 43.916Z" fill="#936F01" stroke="#936F01" stroke-width="4" mask="url(#path-2-inside-1_27_151)"/>
</svg>
