<svg width="60" height="60" viewBox="0 0 60 60" fill="none" xmlns="http://www.w3.org/2000/svg">
<ellipse cx="30" cy="29.7436" rx="30" ry="29.7436" fill="white" fill-opacity="0.81"/>
<path d="M50 18.9545C49.9976 17.1802 49.4029 15.4576 48.3102 14.0597C47.2175 12.6619 45.6894 11.6688 43.9682 11.2382C42.247 10.8075 40.4312 10.9639 38.809 11.6825C37.1867 12.401 35.8509 13.6407 35.0132 15.2047C32.7424 14.5893 30.3603 14.5051 28.0517 14.9589C25.7431 15.4127 23.57 16.3923 21.7011 17.8215C19.8322 19.2507 18.3177 21.0913 17.2749 23.2004C16.2322 25.3095 15.6894 27.6304 15.6885 29.9832C15.6923 31.3367 15.8735 32.6839 16.2276 33.9903C15.1278 34.5747 14.1804 35.4088 13.4614 36.4258C12.7424 37.4427 12.2719 38.614 12.0877 39.8458C11.9034 41.0775 12.0105 42.3352 12.4005 43.518C12.7904 44.7008 13.4523 45.7757 14.3329 46.6564C15.2136 47.537 16.2885 48.1989 17.4713 48.5888C18.6541 48.9788 19.9118 49.0859 21.1436 48.9017C22.3753 48.7174 23.5466 48.2469 24.5636 47.5279C25.5805 46.8089 26.4146 45.8615 26.999 44.7617C29.2699 45.3772 31.652 45.4613 33.9606 45.0075C36.2692 44.5537 38.4422 43.5742 40.3111 42.1449C42.18 40.7157 43.6946 38.8751 44.7373 36.766C45.78 34.6569 46.3229 32.336 46.3238 29.9832C46.32 28.6297 46.1387 27.2825 45.7846 25.9761C47.0571 25.2971 48.1214 24.2852 48.8639 23.0486C49.6063 21.8119 49.999 20.3969 50 18.9545ZM42.2309 26.9197C42.4547 27.7199 42.5943 28.5413 42.6475 29.3705H40.1967V30.5959H42.6475C42.5001 33.2576 41.4398 35.7871 39.6453 37.7584L38.1809 36.2879L37.3109 37.158L38.7814 38.6224C36.8101 40.4169 34.2805 41.4772 31.6188 41.6246V39.1738H30.3934V41.6246C29.5651 41.5794 28.7437 41.448 27.9426 41.2325C27.9426 41.1651 27.9426 41.1038 27.9426 41.0364C27.9458 39.9884 27.7422 38.95 27.3433 37.9807C26.9445 37.0115 26.3583 36.1306 25.6183 35.3883C24.8784 34.6461 23.9992 34.0572 23.0312 33.6554C22.0632 33.2536 21.0255 33.0467 19.9774 33.0467H19.7813C19.5575 32.2465 19.4179 31.4251 19.3647 30.5959H21.8155V29.3705H19.3953C19.5343 26.7127 20.5836 24.1836 22.367 22.208L23.8313 23.6785L24.7014 22.8084L23.2309 21.3441C25.2065 19.5607 27.7356 18.5114 30.3934 18.3724V20.7926H31.6188V18.3418C32.4472 18.387 33.2686 18.5184 34.0696 18.7339C34.0696 18.8013 34.0696 18.8626 34.0696 18.93C34.0664 19.9781 34.2701 21.0164 34.6689 21.9857C35.0678 22.9549 35.654 23.8358 36.3939 24.5781C37.1339 25.3203 38.013 25.9092 38.981 26.311C39.949 26.7128 40.9868 26.9197 42.0348 26.9197H42.2309ZM16.9139 29.9832C16.9092 27.8323 17.398 25.709 18.3427 23.7767C19.2874 21.8443 20.6628 20.1545 22.3631 18.8371C24.0634 17.5198 26.0432 16.61 28.1502 16.1778C30.2573 15.7457 32.4354 15.8027 34.5169 16.3444C34.3841 16.7283 34.2797 17.1215 34.2044 17.5208C33.1592 17.2542 32.0848 17.1183 31.0061 17.1164C29.0446 17.1174 27.1092 17.5669 25.348 18.4305C23.5868 19.2941 22.0464 20.5489 20.8444 22.099C19.6425 23.6492 18.8109 25.4537 18.4132 27.3745C18.0155 29.2953 18.0622 31.2816 18.5498 33.1815C18.1484 33.256 17.7531 33.3604 17.3673 33.494C17.0686 32.3476 16.9163 31.1679 16.9139 29.9832ZM19.9774 47.7517C18.6444 47.7517 17.3413 47.3564 16.233 46.6158C15.1246 45.8752 14.2608 44.8226 13.7507 43.5911C13.2406 42.3596 13.1071 41.0044 13.3671 39.697C13.6272 38.3897 14.2691 37.1887 15.2117 36.2462C16.1542 35.3036 17.3552 34.6617 18.6625 34.4016C19.9699 34.1416 21.3251 34.2751 22.5566 34.7852C23.7881 35.2953 24.8407 36.1591 25.5813 37.2675C26.3219 38.3758 26.7172 39.6789 26.7172 41.0119C26.7172 41.897 26.5428 42.7734 26.2041 43.5911C25.8654 44.4088 25.369 45.1518 24.7431 45.7776C24.1173 46.4035 23.3743 46.8999 22.5566 47.2386C21.7389 47.5773 20.8625 47.7517 19.9774 47.7517ZM45.0984 29.9832C45.103 32.1341 44.6142 34.2574 43.6695 36.1897C42.7248 38.1221 41.3494 39.8119 39.6491 41.1293C37.9489 42.4467 35.969 43.3564 33.862 43.7886C31.755 44.2207 29.5769 44.1637 27.4953 43.622C27.6289 43.2362 27.7333 42.8409 27.8078 42.4395C29.972 42.9932 32.2431 42.974 34.3976 42.3836C36.5521 41.7932 38.5157 40.6521 40.0954 39.0725C41.675 37.4928 42.8161 35.5292 43.4065 33.3747C43.9969 31.2202 44.0162 28.9491 43.4624 26.7849C43.8639 26.7104 44.2591 26.606 44.6449 26.4724C44.9436 27.6188 45.096 28.7985 45.0984 29.9832ZM42.0348 25.6943C40.7018 25.6943 39.3988 25.299 38.2904 24.5584C37.1821 23.8178 36.3182 22.7652 35.8081 21.5337C35.298 20.3022 35.1645 18.947 35.4246 17.6396C35.6846 16.3322 36.3265 15.1313 37.2691 14.1888C38.2117 13.2462 39.4126 12.6043 40.72 12.3442C42.0273 12.0842 43.3825 12.2177 44.614 12.7278C45.8456 13.2379 46.8982 14.1017 47.6387 15.2101C48.3793 16.3184 48.7746 17.6215 48.7746 18.9545C48.7746 19.8396 48.6003 20.716 48.2616 21.5337C47.9228 22.3514 47.4264 23.0944 46.8006 23.7202C46.1747 24.3461 45.4317 24.8425 44.614 25.1812C43.7963 25.5199 42.9199 25.6943 42.0348 25.6943Z" fill="#936F01"/>
<path d="M24.7565 42.4457C24.6912 42.359 24.604 42.2911 24.5039 42.2491C24.4038 42.2071 24.2943 42.1925 24.1867 42.2067C24.0459 42.2159 23.9047 42.2159 23.7639 42.2067C22.8837 42.1922 22.045 41.8294 21.4318 41.1978C20.8185 40.5661 20.4806 39.7172 20.4921 38.8369C20.4902 38.1875 20.6706 37.5506 21.0129 36.9987C21.0666 36.9056 21.095 36.7999 21.095 36.6924C21.095 36.5848 21.0666 36.4792 21.0129 36.386C20.9595 36.2884 20.8805 36.2072 20.7844 36.1511C20.6884 36.0949 20.5788 36.066 20.4676 36.0674C19.1676 36.0674 17.9208 36.5839 17.0016 37.5031C16.0823 38.4223 15.5659 39.6691 15.5659 40.9691C15.5659 42.2691 16.0823 43.5158 17.0016 44.4351C17.9208 45.3543 19.1676 45.8707 20.4676 45.8707C21.3888 45.863 22.2883 45.5903 23.0586 45.0851C23.829 44.5798 24.4375 43.8635 24.8117 43.0216C24.8506 42.9285 24.866 42.8272 24.8563 42.7268C24.8467 42.6263 24.8124 42.5297 24.7565 42.4457ZM20.4676 44.6882C19.5888 44.6762 18.7434 44.3498 18.0846 43.7681C17.4258 43.1864 16.9972 42.388 16.8765 41.5175C16.7557 40.6469 16.9508 39.762 17.4264 39.0229C17.9019 38.2839 18.6265 37.7397 19.4689 37.4889C19.2684 38.1207 19.2069 38.7885 19.2888 39.4463C19.3706 40.1041 19.5938 40.7364 19.9431 41.2998C20.2923 41.8632 20.7593 42.3444 21.312 42.7104C21.8647 43.0763 22.49 43.3184 23.1451 43.4199C22.819 43.8115 22.4118 44.1277 21.9517 44.3466C21.4915 44.5656 20.9894 44.6821 20.4798 44.6882H20.4676Z" fill="#936F01"/>
<path d="M40.6317 19.3895C40.7167 19.3034 40.7743 19.194 40.7972 19.0751C40.8201 18.9562 40.8073 18.8333 40.7604 18.7217C40.7144 18.6098 40.6363 18.514 40.536 18.4464C40.4357 18.3788 40.3176 18.3424 40.1967 18.3418H37.1331V19.5672H38.7201L37.3108 20.9703C37.2258 21.0565 37.1682 21.1659 37.1453 21.2847C37.1224 21.4036 37.1352 21.5266 37.1822 21.6382C37.2281 21.75 37.3062 21.8458 37.4065 21.9134C37.5068 21.981 37.6249 22.0174 37.7459 22.018H40.8094V20.7926H39.2225L40.6317 19.3895Z" fill="#936F01"/>
<path d="M44.1241 19.5671L46.7588 16.9386C46.8438 16.8524 46.9014 16.743 46.9243 16.6242C46.9472 16.5053 46.9344 16.3823 46.8875 16.2707C46.8415 16.1589 46.7634 16.0631 46.6631 15.9955C46.5628 15.9279 46.4447 15.8915 46.3238 15.8909H42.0348V17.1163H44.8471L42.2125 19.7448C42.1275 19.831 42.0699 19.9404 42.047 20.0592C42.0241 20.1781 42.0369 20.3011 42.0838 20.4126C42.1298 20.5245 42.2079 20.6203 42.3082 20.6879C42.4085 20.7555 42.5266 20.7919 42.6475 20.7925H46.9365V19.5671H44.1241Z" fill="#936F01"/>
<path d="M31.6188 23.2434H30.3934V29.9832C30.3929 30.0638 30.4084 30.1437 30.4389 30.2184C30.4694 30.293 30.5143 30.3609 30.5711 30.4182L34.86 34.7071L35.7301 33.8371L31.6188 29.732V23.2434Z" fill="#936F01"/>
</svg>
