<svg width="60" height="60" viewBox="0 0 60 60" fill="none" xmlns="http://www.w3.org/2000/svg">
<ellipse cx="30" cy="29.7436" rx="30" ry="29.7436" fill="white" fill-opacity="0.81"/>
<path d="M37.0251 38.524C37.1932 38.8242 37.42 39.0875 37.6919 39.2983C37.9637 39.5091 38.2752 39.6631 38.6077 39.7513C38.9403 39.8394 39.2872 39.8598 39.6278 39.8113C39.9683 39.7628 40.2957 39.6464 40.5905 39.4689L47.7473 35.1361C47.8471 35.076 47.9239 34.9843 47.9655 34.8755C48.0072 34.7667 48.0112 34.6472 47.977 34.5358L47.5072 32.9698C47.4869 32.9027 47.4534 32.8404 47.4085 32.7866C47.3637 32.7328 47.3085 32.6886 47.2462 32.6565C47.1846 32.6249 47.1174 32.6059 47.0484 32.6005C46.9794 32.5951 46.91 32.6035 46.8442 32.6252L41.8694 34.2487L41.7024 30.5946L46.5885 26.1365C46.6423 26.0876 46.6853 26.028 46.7147 25.9614C46.7442 25.8949 46.7594 25.823 46.7594 25.7502C46.7594 25.6775 46.7442 25.6056 46.7147 25.539C46.6853 25.4725 46.6423 25.4129 46.5885 25.3639L41.7024 20.9059L42.0051 14.3024C42.0051 14.1639 41.9501 14.0311 41.8522 13.9332C41.7543 13.8353 41.6216 13.7803 41.4831 13.7803L34.8691 14.0779L30.385 9.17091C30.3361 9.11708 30.2764 9.07407 30.2099 9.04463C30.1434 9.0152 30.0714 9 29.9987 9C29.9259 9 29.854 9.0152 29.7875 9.04463C29.721 9.07407 29.6613 9.11708 29.6124 9.17091L25.1543 14.057L18.5404 13.7595C18.4019 13.7595 18.2691 13.8145 18.1712 13.9124C18.0733 14.0102 18.0183 14.143 18.0183 14.2815L18.3159 20.8955L13.4089 25.3744C13.3551 25.4233 13.3121 25.4829 13.2826 25.5495C13.2532 25.616 13.238 25.6879 13.238 25.7607C13.238 25.8334 13.2532 25.9054 13.2826 25.9719C13.3121 26.0384 13.3551 26.098 13.4089 26.147L18.295 30.605L18.128 34.2591L13.1531 32.6357C13.0874 32.614 13.018 32.6056 12.949 32.611C12.88 32.6163 12.8127 32.6354 12.7512 32.667C12.6889 32.699 12.6337 32.7432 12.5888 32.7971C12.544 32.8509 12.5104 32.9132 12.4902 32.9802L12.0203 34.5463C11.9887 34.6562 11.9941 34.7734 12.0356 34.88C12.0771 34.9866 12.1524 35.0766 12.25 35.1361L19.4069 39.4689C19.7016 39.6464 20.029 39.7628 20.3696 39.8113C20.7102 39.8598 21.0571 39.8394 21.3896 39.7513C21.7222 39.6631 22.0336 39.5091 22.3055 39.2983C22.5774 39.0875 22.8041 38.8242 22.9723 38.524L23.5256 37.5374H23.7814L23.4369 42.2356L18.2846 40.3876C18.2146 40.3616 18.1398 40.351 18.0653 40.3563C17.5562 40.4151 17.0665 40.5861 16.6314 40.8569C16.1964 41.1277 15.8267 41.4916 15.5492 41.9224C14.7818 43.2013 14.9019 45.0545 15.9042 47.3618C16.8125 49.4499 21.02 50.6244 24.6167 51.2248C24.7108 51.3156 24.8356 51.3678 24.9664 51.3709C25.0199 51.381 25.0748 51.381 25.1282 51.3709H25.2065C27.5034 51.7259 29.4506 51.8564 29.9517 51.893H30.0718C31.3455 51.7624 42.5271 50.9794 44.0932 47.3618C45.1007 45.0284 45.2208 43.1857 44.4534 41.9276C44.1758 41.4968 43.8062 41.1329 43.3711 40.8621C42.9361 40.5913 42.4464 40.4204 41.9373 40.3616C41.8628 40.3562 41.788 40.3669 41.718 40.3929L36.5605 42.2356L36.2159 37.5374H36.4717L37.0251 38.524ZM14.5365 25.7398L19.1824 21.501C19.239 21.4488 19.2832 21.3848 19.3121 21.3135C19.341 21.2422 19.3538 21.1654 19.3495 21.0886L19.0676 14.8244L25.3318 15.1063C25.4086 15.1105 25.4854 15.0978 25.5567 15.0689C25.628 15.04 25.692 14.9957 25.7442 14.9392L29.9987 10.2985L34.2375 14.9444C34.2897 15.0009 34.3537 15.0452 34.425 15.0741C34.4963 15.103 34.5731 15.1157 34.6499 15.1115L40.9141 14.8296L40.6322 21.0938C40.628 21.1706 40.6407 21.2474 40.6696 21.3187C40.6985 21.39 40.7428 21.454 40.7993 21.5062L45.4609 25.7398L40.8149 29.9786C40.7584 30.0308 40.7141 30.0948 40.6853 30.1661C40.6564 30.2374 40.6436 30.3142 40.6479 30.391L40.8358 34.5671L39.964 34.849C39.2436 32.8184 37.5419 28.1881 36.6962 27.499C35.7409 26.7838 31.3977 26.3975 30.0822 26.3036H29.9152C28.5997 26.3975 24.2356 26.7734 23.3012 27.5408C22.4555 28.2298 20.7537 32.8601 20.0333 34.8908L19.1616 34.6141L19.3495 30.438C19.3538 30.3612 19.341 30.2844 19.3121 30.2131C19.2832 30.1418 19.239 30.0778 19.1824 30.0256L14.5365 25.7398ZM35.5686 42.9664C35.5745 43.0465 35.5987 43.1241 35.6395 43.1932C35.6802 43.2624 35.7363 43.3212 35.8035 43.3652C35.8707 43.4091 35.947 43.4369 36.0267 43.4466C36.1064 43.4562 36.1872 43.4473 36.2629 43.4206L41.9425 41.4004C42.2693 41.4545 42.5815 41.5751 42.8598 41.7546C43.1382 41.9342 43.3767 42.169 43.5607 42.4444C44.1297 43.4049 43.9784 44.9553 43.1327 46.9233C42.0051 49.5178 33.2874 50.5983 30.0404 50.7967H29.9987C29.3566 50.7602 28.5109 50.6871 27.5504 50.5775L38.9304 46.9233C39.0627 46.8811 39.1727 46.7881 39.2363 46.6647C39.2999 46.5414 39.312 46.3978 39.2697 46.2656C39.2275 46.1334 39.1345 46.0233 39.0111 45.9597C38.8878 45.8961 38.7442 45.884 38.612 45.9263L30.2597 48.599C30.2405 48.5855 30.2194 48.5749 30.1971 48.5677L21.3854 45.9367C21.3181 45.9105 21.2462 45.8984 21.1741 45.9014C21.102 45.9044 21.0313 45.9222 20.9664 45.9539C20.9016 45.9856 20.844 46.0303 20.7973 46.0854C20.7507 46.1404 20.7159 46.2045 20.6953 46.2737C20.6746 46.3428 20.6686 46.4155 20.6774 46.4871C20.6863 46.5588 20.7099 46.6278 20.7468 46.6898C20.7837 46.7518 20.8331 46.8055 20.8917 46.8475C20.9504 46.8895 21.0172 46.9189 21.0878 46.9338L28.5214 49.168L25.1491 50.2434C21.5629 49.6692 17.5903 48.6251 16.8647 46.9494C16.019 44.9814 15.8676 43.431 16.4366 42.4705C16.6202 42.1947 16.8586 41.9596 17.137 41.78C17.4154 41.6003 17.7279 41.48 18.0549 41.4265L23.7345 43.4519C23.8101 43.4786 23.891 43.4875 23.9706 43.4779C24.0503 43.4683 24.1267 43.4404 24.1939 43.3965C24.261 43.3525 24.3172 43.2937 24.3579 43.2246C24.3986 43.1554 24.4229 43.0778 24.4287 42.9977L25.0291 34.7394C25.034 34.6236 25.0003 34.5094 24.9332 34.4149C24.8661 34.3204 24.7694 34.2509 24.6584 34.2174C24.5446 34.1833 24.4226 34.189 24.3125 34.2336C24.2024 34.2782 24.1108 34.359 24.0529 34.4627L22.0588 38.0281C21.9602 38.2038 21.8276 38.358 21.6686 38.4817C21.5097 38.6055 21.3277 38.6963 21.1332 38.7488C20.9387 38.8013 20.7358 38.8145 20.5361 38.7875C20.3365 38.7606 20.1443 38.6941 19.9707 38.5919L13.1844 34.4784L13.3828 33.8259L20.2421 36.0601C20.3716 36.1018 20.5123 36.0914 20.6342 36.0309C20.7561 35.9704 20.8495 35.8648 20.8947 35.7365C22.0222 32.4947 23.5309 28.7571 24.0268 28.3603C24.5227 27.9636 27.4512 27.5303 29.9987 27.3424C32.5409 27.5303 35.5686 27.9636 36.0332 28.3447C36.4978 28.7257 38.0169 32.4791 39.1653 35.7208C39.2105 35.8491 39.3039 35.9548 39.4258 36.0152C39.5477 36.0757 39.6884 36.0862 39.8179 36.0445L46.6772 33.8102L46.8756 34.4627L40.0893 38.5762C39.9157 38.6784 39.7235 38.7449 39.5239 38.7719C39.3243 38.7988 39.1213 38.7856 38.9268 38.7331C38.7323 38.6806 38.5503 38.5898 38.3914 38.4661C38.2325 38.3423 38.0998 38.1881 38.0012 38.0125L36.0071 34.4471C35.9492 34.3434 35.8576 34.2626 35.7475 34.218C35.6374 34.1733 35.5154 34.1676 35.4016 34.2017C35.2906 34.2352 35.194 34.3047 35.1268 34.3992C35.0597 34.4938 35.026 34.6079 35.0309 34.7237L35.5686 42.9664Z" fill="#936F01"/>
<path d="M29.9987 25.2595C32.7393 25.2595 34.9683 22.7956 34.9683 19.7575C34.9683 16.7193 32.7393 14.2554 29.9987 14.2554C27.2581 14.2554 25.029 16.7245 25.029 19.7575C25.029 22.7904 27.2581 25.2595 29.9987 25.2595ZM29.9987 15.2994C32.165 15.2994 33.9242 17.2987 33.9242 19.7575C33.9242 22.2162 32.165 24.2155 29.9987 24.2155C27.8323 24.2155 26.0731 22.2162 26.0731 19.7575C26.0731 17.2987 27.8323 15.2994 29.9987 15.2994Z" fill="#936F01"/>
</svg>
