<svg width="19" height="21" viewBox="0 0 19 21" fill="none" xmlns="http://www.w3.org/2000/svg">
<path d="M9.84805 11.8935C10.2466 11.8935 10.6412 11.815 11.0094 11.6625C11.3777 11.51 11.7122 11.2864 11.994 11.0046C12.2758 10.7228 12.4994 10.3882 12.6519 10.02C12.8044 9.6518 12.8829 9.25716 12.8829 8.85861C12.8829 8.46006 12.8044 8.06542 12.6519 7.69721C12.4994 7.329 12.2758 6.99444 11.994 6.71263C11.7122 6.43081 11.3777 6.20726 11.0094 6.05475C10.6412 5.90223 10.2466 5.82373 9.84805 5.82373C9.04315 5.82373 8.27122 6.14348 7.70207 6.71263C7.13292 7.28178 6.81317 8.05371 6.81317 8.85861C6.81317 9.66351 7.13292 10.4354 7.70207 11.0046C8.27122 11.5737 9.04315 11.8935 9.84805 11.8935Z" stroke="#936F01" stroke-width="1.45908"/>
<path d="M1.6967 7.08833C3.61296 -1.3354 16.0929 -1.32568 17.9995 7.09806C19.1181 12.0395 16.0443 16.2222 13.3499 18.8096C12.4083 19.7176 11.1513 20.2251 9.84321 20.2251C8.53515 20.2251 7.27809 19.7176 6.33657 18.8096C3.65187 16.2222 0.578079 12.0297 1.6967 7.08833Z" stroke="#936F01" stroke-width="1.45908"/>
</svg>
