<svg width="43" height="39" viewBox="0 0 43 39" fill="none" xmlns="http://www.w3.org/2000/svg">
<path d="M12.5517 10.0534C12.5517 7.49917 14.6286 5.42657 17.1785 5.42657C18.2191 5.42657 19.1995 5.76197 20.0165 6.39837C20.1025 6.47577 20.6056 6.94877 21.0485 7.36587C21.3022 7.60667 21.7021 7.60667 21.9601 7.36587C22.403 6.94877 22.9018 6.48007 22.9878 6.39837C23.8048 5.76197 24.7895 5.42657 25.8301 5.42657C28.3843 5.42657 30.4569 7.50347 30.4569 10.0534C30.4569 11.008 30.1688 11.9196 29.627 12.6979H25.155L24.1918 11.1929C24.0628 10.9908 23.8306 10.8747 23.5898 10.8876C23.349 10.9048 23.134 11.051 23.0308 11.2703L21.5774 14.3792L19.6768 9.25787C19.5865 9.00847 19.3543 8.84077 19.092 8.82787C18.8297 8.81497 18.5803 8.95687 18.4599 9.18907L16.6797 12.6979H13.3816C12.8398 11.9196 12.5517 11.008 12.5517 10.0534ZM21.5086 21.0872C20.3519 20.081 17.0753 17.1441 14.448 14.0266H17.0925C17.3419 14.0266 17.5698 13.8847 17.6859 13.6611L18.963 11.1413L20.8851 16.3271C20.9797 16.5765 21.2119 16.7485 21.4785 16.7614C21.4871 16.7614 21.4957 16.7614 21.5043 16.7614C21.7623 16.7614 21.9945 16.6109 22.1063 16.3787L23.7231 12.9258L24.2348 13.7213C24.3552 13.9105 24.5659 14.0266 24.7938 14.0266H28.5649C25.9376 17.1441 22.661 20.081 21.5043 21.0872H21.5086ZM10.1308 14.0266H12.7323C16.0906 18.2621 20.8722 22.2955 21.0829 22.4718C21.2076 22.575 21.3581 22.6266 21.5086 22.6266C21.6591 22.6266 21.8139 22.575 21.9343 22.4718C22.145 22.2955 26.9223 18.2621 30.2849 14.0266H33.0799C33.4454 14.0266 33.7421 13.7299 33.7421 13.3644C33.7421 12.9989 33.4454 12.7022 33.0799 12.7022H31.1707C31.5749 11.8852 31.7899 10.9865 31.7899 10.0577C31.7899 6.77247 29.1196 4.10217 25.8344 4.10217C24.4928 4.10217 23.2243 4.54077 22.1665 5.36637L22.1579 5.37497C22.1321 5.40077 22.0633 5.45667 21.5129 5.97697C20.9453 5.44377 20.8894 5.39647 20.8679 5.37497L20.8593 5.36637C19.8015 4.54077 18.533 4.10217 17.1914 4.10217C13.9062 4.10217 11.2359 6.77247 11.2359 10.0577C11.2359 10.9865 11.4466 11.8852 11.8551 12.7022H10.1394C9.77387 12.7022 9.47717 12.9989 9.47717 13.3644C9.47717 13.7299 9.77387 14.0266 10.1394 14.0266H10.1308Z" fill="white"/>
<path d="M40.0287 25.7011C39.6675 25.1464 39.1085 24.7766 38.4592 24.6562C38.1926 24.6089 37.926 24.6046 37.668 24.6433C37.7196 23.8607 37.3842 23.0695 36.7177 22.5707C35.7287 21.8311 34.357 21.9601 33.5228 22.8717L32.1855 24.3294C32.0608 24.0499 31.8759 23.7962 31.6394 23.5855C30.7622 22.8029 29.4292 22.8502 28.6036 23.6887L26.9911 25.3356C26.7331 25.5979 26.7374 26.0193 26.9997 26.273C27.262 26.531 27.6834 26.5267 27.9371 26.2644L29.5496 24.6175C29.8764 24.2864 30.4053 24.2649 30.7536 24.5745C30.9299 24.7293 31.0331 24.9486 31.046 25.1808C31.0589 25.4173 30.9772 25.6409 30.8181 25.8129L29.2486 27.5286C28.9992 27.7995 29.0207 28.2209 29.2873 28.466C29.3776 28.5477 29.4851 28.6036 29.5969 28.6251C29.8205 28.6724 30.0613 28.6036 30.2247 28.423L31.3513 27.1975L31.7512 26.7632L34.5032 23.7618C34.873 23.3576 35.4836 23.3017 35.9222 23.6285C36.3694 23.9639 36.4812 24.5917 36.1759 25.0604L35.7631 25.6968L29.4808 30.2677C29.1841 30.4827 29.1196 30.8998 29.3346 31.1965C29.5496 31.4932 29.9667 31.5577 30.2634 31.3427L37.4057 26.144C37.6422 25.972 37.9346 25.9075 38.2227 25.9591C38.5108 26.0107 38.7602 26.1784 38.9193 26.4235C39.216 26.8793 39.1214 27.4856 38.6957 27.8296L28.6466 35.9523C28.3026 36.2318 27.8683 36.3909 27.4254 36.4081L14.8178 36.8424L11.4423 36.1329L12.8914 29.2228L15.5316 27.1803C16.1379 26.7116 16.9119 26.5353 17.6601 26.6901L25.9806 28.4359C26.6686 28.5821 27.1115 29.2572 26.9653 29.9452C26.8191 30.6332 26.144 31.0761 25.456 30.9299L19.1436 29.6055C18.7867 29.5324 18.4341 29.7603 18.3567 30.1172C18.2793 30.4741 18.5115 30.8267 18.8684 30.9041L25.1808 32.2285C26.5869 32.5252 27.9672 31.6222 28.2639 30.2161C28.5606 28.81 27.6576 27.4297 26.2515 27.133L17.931 25.3872C16.8001 25.1507 15.6305 25.4216 14.7146 26.1268L13.3085 27.2147L13.4246 26.6729C13.502 26.316 13.2698 25.9634 12.9129 25.886L5.83083 24.3982C5.47393 24.3251 5.12133 24.553 5.04393 24.9099L3.49163 32.2973C3.41423 32.6542 3.64643 33.0068 4.00333 33.0842C4.36023 33.1616 4.71283 32.9294 4.79023 32.5725L6.20493 25.8344L11.9841 27.047L9.80403 37.4444L4.02483 36.2318L4.16243 35.5739C4.23983 35.217 4.00763 34.8644 3.65073 34.787C3.29383 34.7096 2.94123 34.9418 2.86383 35.2987L2.58863 36.6059C2.51123 36.9628 2.74343 37.3154 3.10033 37.3928L10.1824 38.8806C10.5393 38.958 10.8919 38.7258 10.9693 38.3689L11.1671 37.4272L14.62 38.1539C14.6716 38.1668 14.7275 38.1711 14.7791 38.1668L27.4684 37.7282C28.1951 37.7024 28.9089 37.4358 29.4765 36.98L39.5256 28.8573C40.4845 28.0833 40.6952 26.7245 40.0244 25.6925L40.0287 25.7011Z" fill="white"/>
</svg>
