<svg width="42" height="41" viewBox="0 0 42 41" fill="none" xmlns="http://www.w3.org/2000/svg">
<g clip-path="url(#clip0_223_349)">
<path d="M18.8125 14.3936H19.6875C19.6875 13.9309 19.5031 13.4871 19.1749 13.1599C18.8467 12.8327 18.4016 12.6489 17.9375 12.6489C17.4734 12.6489 17.0283 12.8327 16.7001 13.1599C16.3719 13.4871 16.1875 13.9309 16.1875 14.3936H17.0625C17.0625 14.1622 17.1547 13.9404 17.3188 13.7768C17.4829 13.6132 17.7054 13.5213 17.9375 13.5213C18.1696 13.5213 18.3921 13.6132 18.5562 13.7768C18.7203 13.9404 18.8125 14.1622 18.8125 14.3936Z" fill="white"/>
<path d="M24.0625 13.5213C24.2945 13.5215 24.5169 13.6135 24.681 13.777C24.845 13.9406 24.9373 14.1623 24.9375 14.3936H25.8125C25.8125 13.9309 25.6281 13.4871 25.2999 13.1599C24.9717 12.8327 24.5266 12.6489 24.0625 12.6489C23.5984 12.6489 23.1533 12.8327 22.8251 13.1599C22.4969 13.4871 22.3125 13.9309 22.3125 14.3936H23.1875C23.1877 14.1623 23.28 13.9406 23.444 13.777C23.6081 13.6135 23.8305 13.5215 24.0625 13.5213Z" fill="white"/>
<path d="M13.2213 23.9894C12.5236 23.9756 11.83 24.1008 11.1815 24.3578C10.5329 24.6147 9.94228 24.9982 9.44432 25.4857C8.94635 25.9732 8.55103 26.555 8.28155 27.1968C8.01207 27.8386 7.87385 28.5276 7.875 29.2234H8.75C8.75012 28.6425 8.86657 28.0675 9.09252 27.5321C9.31848 26.9967 9.64939 26.5116 10.0659 26.1054C10.4823 25.6991 10.9759 25.3799 11.5178 25.1663C12.0597 24.9527 12.6388 24.8492 13.2213 24.8617H17.5C17.616 24.8617 17.7273 24.8158 17.8094 24.734C17.8914 24.6522 17.9375 24.5412 17.9375 24.4256V21.5316C18.7583 21.9321 19.6504 22.1669 20.5625 22.2226V30.2486L18.8125 31.024V29.1689C18.8118 28.6052 18.5869 28.0647 18.1871 27.6661C17.7873 27.2675 17.2451 27.0432 16.6797 27.0426H15.5039C14.3789 27.0392 13.2858 27.4152 12.4023 28.1094C11.5188 28.8037 10.8967 29.7754 10.6372 30.8667L11.4882 31.0695C11.7025 30.1691 12.2158 29.3675 12.9448 28.7948C13.6739 28.2221 14.5757 27.912 15.5039 27.9149H16.6797C17.0132 27.9153 17.3329 28.0475 17.5687 28.2826C17.8045 28.5177 17.9372 28.8364 17.9375 29.1689V31.4117L15.4772 32.5018L14.3914 30.3369L13.6086 30.727L14.6767 32.8565L12.9473 33.6228L13.3027 34.4198L15.0241 33.6571L14.4544 35.6463L15.2956 35.8857L16.0661 33.1954L17.9375 32.3662V37.129C17.9372 37.4615 17.8045 37.7802 17.5687 38.0153C17.3329 38.2504 17.0132 38.3827 16.6797 38.383H12.6875V39.2554H16.6797C17.2451 39.2547 17.7873 39.0305 18.1871 38.6318C18.5869 38.2332 18.8118 37.6928 18.8125 37.129V31.9785L20.9949 31.0116L23.1875 32.0403V37.1269C23.1881 37.6912 23.4132 38.2322 23.8135 38.6313C24.2137 39.0303 24.7564 39.2547 25.3224 39.2554H29.75V38.383H25.3224C24.9884 38.3826 24.6682 38.2502 24.432 38.0147C24.1958 37.7792 24.0629 37.4599 24.0625 37.1269V32.4508L25.8944 33.3102L26.2545 35.8275L27.1205 35.7044L26.8416 33.7546L28.2512 34.416L28.6238 33.6267L27.2875 32.9998L28.3751 31.1926L27.6249 30.7436L26.4918 32.6264L24.0625 31.4867V29.1668C24.0635 28.8343 24.1966 28.5158 24.4328 28.2811C24.669 28.0464 24.989 27.9147 25.3224 27.9149H26.495C27.4234 27.9118 28.3255 28.2218 29.0547 28.7945C29.7839 29.3672 30.2975 30.169 30.5118 31.0695L31.3629 30.8667C31.1032 29.7753 30.481 28.8034 29.5972 28.1091C28.7135 27.4149 27.6202 27.039 26.495 27.0426H25.3224C24.757 27.0426 24.2146 27.2663 23.8144 27.6645C23.4141 28.0628 23.1887 28.603 23.1875 29.1668V31.0762L21.4375 30.2552V22.2226C22.3496 22.1669 23.2417 21.9321 24.0625 21.5317V24.4256C24.0625 24.5412 24.1086 24.6522 24.1906 24.734C24.2727 24.8158 24.384 24.8617 24.5 24.8617H28.7787C29.3612 24.8492 29.9403 24.9527 30.4822 25.1663C31.0241 25.3799 31.5177 25.6991 31.9341 26.1054C32.3506 26.5116 32.6815 26.9967 32.9075 27.5321C33.1334 28.0675 33.2499 28.6425 33.25 29.2234H34.125C34.1261 28.5276 33.9879 27.8386 33.7184 27.1968C33.449 26.555 33.0536 25.9732 32.5557 25.4857C32.0577 24.9982 31.4671 24.6147 30.8185 24.3578C30.17 24.1008 29.4764 23.9756 28.7787 23.9894H24.9375V21.0315C25.8713 20.3954 26.6379 19.5446 27.1726 18.551C27.3275 19.6934 27.8922 20.7411 28.7622 21.5003C29.6322 22.2596 30.7486 22.679 31.9048 22.6809H32.375C32.491 22.6809 32.6023 22.6349 32.6844 22.5531C32.7664 22.4713 32.8125 22.3604 32.8125 22.2447V9.99936C32.8111 8.73596 32.3071 7.5247 31.411 6.63134C30.5149 5.73798 29.2999 5.23548 28.0327 5.23407H27.1466C25.7072 3.83372 23.6063 3.05322 21 3.05322C15.8726 3.05322 12.6875 6.06149 12.6875 10.9043C12.6875 11.02 12.7336 11.1309 12.8156 11.2127C12.8977 11.2945 13.009 11.3405 13.125 11.3405H14V15.266C14.0005 16.4031 14.2798 17.5228 14.8135 18.5276C15.3473 19.5325 16.1194 20.3921 17.0625 21.0315V23.9894H13.2213ZM28.0327 6.10641C29.0679 6.10759 30.0605 6.51811 30.7925 7.24793C31.5245 7.97774 31.9363 8.96725 31.9375 9.99936V21.8085H31.9048C30.8696 21.8074 29.877 21.3968 29.145 20.667C28.413 19.9372 28.0012 18.9477 28 17.9156V11.3405H28.875C28.991 11.3405 29.1023 11.2945 29.1844 11.2127C29.2664 11.1309 29.3125 11.02 29.3125 10.9043C29.3618 9.19556 28.8652 7.51542 27.8943 6.10641H28.0327ZM21 3.92556C25.5 3.92556 28.2476 6.36157 28.4281 10.4681H26.6875V8.28727H25.8125V10.4681H23.1875V8.28727H22.3125V10.4681H19.6875V8.28727H18.8125V10.4681H16.1875V8.28727H15.3125V10.4681H13.5719C13.7524 6.36157 16.5 3.92556 21 3.92556ZM14.875 15.266V11.3405H27.125V15.266C27.125 16.8855 26.4797 18.4387 25.331 19.5839C24.1824 20.729 22.6244 21.3724 21 21.3724C19.3755 21.3724 17.8176 20.729 16.669 19.5839C15.5203 18.4387 14.875 16.8855 14.875 15.266Z" fill="white"/>
<path d="M30.1875 36.2022C30.1875 37.1511 30.4697 38.0787 30.9986 38.8677C31.5274 39.6567 32.279 40.2717 33.1583 40.6348C34.0377 40.998 35.0053 41.093 35.9389 40.9079C36.8724 40.7227 37.7299 40.2658 38.403 39.5948C39.076 38.9238 39.5343 38.0689 39.72 37.1382C39.9057 36.2075 39.8104 35.2428 39.4462 34.3661C39.0819 33.4894 38.4651 32.7401 37.6737 32.2129C36.8823 31.6857 35.9518 31.4043 35 31.4043C33.7241 31.4057 32.5008 31.9117 31.5986 32.8111C30.6964 33.7106 30.1889 34.9301 30.1875 36.2022ZM38.9375 36.2022C38.9375 36.9786 38.7066 37.7375 38.2739 38.3831C37.8413 39.0286 37.2263 39.5318 36.5068 39.8289C35.7873 40.126 34.9956 40.2037 34.2318 40.0523C33.468 39.9008 32.7664 39.5269 32.2158 38.9779C31.6651 38.4289 31.2901 37.7295 31.1382 36.968C30.9862 36.2065 31.0642 35.4172 31.3622 34.6999C31.6602 33.9826 32.1649 33.3696 32.8124 32.9382C33.46 32.5069 34.2212 32.2766 35 32.2766C36.0439 32.2778 37.0447 32.6918 37.7829 33.4277C38.5211 34.1637 38.9363 35.1614 38.9375 36.2022Z" fill="white"/>
<path d="M34.5625 33.5851V35.7659H32.375V36.6383H34.5625V38.8191H35.4375V36.6383H37.625V35.7659H35.4375V33.5851H34.5625Z" fill="white"/>
<path d="M7.4375 41C8.38932 41 9.31977 40.7187 10.1112 40.1915C10.9026 39.6643 11.5194 38.9149 11.8837 38.0382C12.2479 37.1615 12.3432 36.1968 12.1575 35.2662C11.9718 34.3355 11.5135 33.4806 10.8405 32.8096C10.1674 32.1386 9.30991 31.6816 8.37637 31.4965C7.44284 31.3114 6.47521 31.4064 5.59584 31.7695C4.71647 32.1327 3.96486 32.7476 3.43605 33.5366C2.90725 34.3256 2.625 35.2532 2.625 36.2022C2.62644 37.4742 3.13393 38.6937 4.03614 39.5932C4.93835 40.4927 6.16159 40.9986 7.4375 41ZM7.4375 32.2766C8.21626 32.2766 8.97754 32.5069 9.62506 32.9382C10.2726 33.3696 10.7773 33.9826 11.0753 34.6999C11.3733 35.4172 11.4513 36.2065 11.2993 36.968C11.1474 37.7295 10.7724 38.4289 10.2217 38.9779C9.67106 39.5269 8.96947 39.9008 8.20567 40.0523C7.44187 40.2037 6.65017 40.126 5.93068 39.8289C5.2112 39.5318 4.59625 39.0286 4.16359 38.3831C3.73093 37.7375 3.5 36.9786 3.5 36.2022C3.50121 35.1614 3.91644 34.1637 4.65461 33.4277C5.39277 32.6918 6.39358 32.2778 7.4375 32.2766Z" fill="white"/>
<path d="M10.0625 35.766H4.8125V36.6383H10.0625V35.766Z" fill="white"/>
<path d="M5.6875 6.5426C6.30529 6.54314 6.91284 6.7 7.45322 6.9985C7.99361 7.297 8.44915 7.72737 8.77718 8.24929L8.07068 7.89712L7.67932 8.67745L9.42932 9.54979C9.48792 9.57902 9.55235 9.59475 9.61786 9.59582C9.68338 9.59689 9.74829 9.58328 9.80782 9.55598C9.86735 9.52869 9.91997 9.48842 9.96179 9.43814C10.0036 9.38785 10.0336 9.32885 10.0495 9.26547L10.487 7.52079L9.63803 7.30909L9.52064 7.7771C9.11653 7.12774 8.5517 6.59288 7.88043 6.22393C7.20916 5.85497 6.454 5.66431 5.6875 5.67026C4.68216 5.65783 3.70249 5.98672 2.90947 6.60289C2.11646 7.21906 1.55728 8.08584 1.32382 9.0608L2.17618 9.25844C2.37273 8.4796 2.82539 7.78888 3.46187 7.29659C4.09836 6.8043 4.88194 6.53884 5.6875 6.5426Z" fill="white"/>
<path d="M23.5724 17.0975L22.715 16.9237C22.6341 17.3177 22.4193 17.6717 22.1068 17.926C21.7943 18.1802 21.4033 18.3191 21 18.3191C20.5966 18.3191 20.2057 18.1802 19.8932 17.926C19.5807 17.6717 19.3659 17.3177 19.285 16.9237L18.4275 17.0975C18.5486 17.6886 18.8707 18.2199 19.3395 18.6015C19.8082 18.983 20.3948 19.1914 21 19.1914C21.6051 19.1914 22.1917 18.983 22.6605 18.6015C23.1292 18.2199 23.4514 17.6886 23.5724 17.0975Z" fill="white"/>
<path d="M39.4517 28.939C40.7852 25.8863 41.3355 22.5506 41.0528 19.2329C40.7702 15.9152 39.6636 12.7198 37.8328 9.93505C36.002 7.15025 33.5046 4.86364 30.566 3.28147C27.6273 1.69931 24.3398 0.871368 21 0.872336C16.4492 0.855081 12.0297 2.39255 8.47763 5.22871L9.02237 5.91108C12.4201 3.19855 16.6472 1.72815 21 1.74468C24.2108 1.74521 27.3704 2.54628 30.1914 4.07496C33.0124 5.60364 35.4051 7.8114 37.1518 10.4973C38.8985 13.1832 39.9436 16.262 40.1922 19.4534C40.4408 22.6448 39.8848 25.8475 38.575 28.77L38.0456 26.9226L37.2044 27.1625L38.0794 30.2156C38.0983 30.2817 38.1326 30.3423 38.1795 30.3926C38.2263 30.4429 38.2844 30.4815 38.3491 30.5051C38.4137 30.5288 38.4831 30.537 38.5515 30.5289C38.6199 30.5208 38.6854 30.4967 38.7427 30.4586L41.3677 28.714L40.8823 27.9882L39.4517 28.939Z" fill="white"/>
<path d="M2.79825 32.4414L3.60831 32.1118C2.62889 29.7102 2.14653 27.136 2.19021 24.5439C2.23389 21.9518 2.80271 19.3953 3.8625 17.0279L4.39187 18.8752L5.23312 18.6354L4.35812 15.5822C4.33919 15.5162 4.30489 15.4556 4.25801 15.4053C4.21114 15.355 4.15302 15.3164 4.08838 15.2928C4.02374 15.2691 3.95441 15.2609 3.88602 15.269C3.81763 15.2771 3.75213 15.3012 3.69482 15.3392L1.06982 17.0839L1.55518 17.8097L2.9858 16.8589C1.91458 19.3127 1.34616 21.9553 1.31395 24.6313C1.28175 27.3073 1.7864 29.9627 2.79825 32.4414Z" fill="white"/>
<path d="M5.6875 29.6595H4.8125V30.5319H5.6875V29.6595Z" fill="white"/>
<path d="M6.5625 26.6063H5.6875V27.4787H6.5625V26.6063Z" fill="white"/>
<path d="M4.375 23.5532H3.5V24.4256H4.375V23.5532Z" fill="white"/>
<path d="M3.9375 25.734H3.0625V26.6063H3.9375V25.734Z" fill="white"/>
<path d="M4.375 27.9149H3.5V28.7873H4.375V27.9149Z" fill="white"/>
<path d="M1.85435 12.2868C2.25847 12.9362 2.82329 13.471 3.49456 13.84C4.16583 14.2089 4.92099 14.3996 5.6875 14.3936C6.69283 14.4061 7.67251 14.0772 8.46552 13.461C9.25854 12.8448 9.81772 11.9781 10.0512 11.0031L9.19882 10.8055C9.00227 11.5843 8.5496 12.275 7.91312 12.7673C7.27664 13.2596 6.49305 13.5251 5.6875 13.5213C5.06971 13.5208 4.46216 13.3639 3.92177 13.0654C3.38139 12.7669 2.92584 12.3365 2.59782 11.8146L3.30432 12.1668L3.69568 11.3864L1.94568 10.5141C1.88708 10.4849 1.82265 10.4691 1.75713 10.4681C1.69162 10.467 1.6267 10.4806 1.56717 10.5079C1.50765 10.5352 1.45503 10.5755 1.4132 10.6258C1.37138 10.676 1.34142 10.735 1.32553 10.7984L0.888031 12.5431L1.73696 12.7548L1.85435 12.2868Z" fill="white"/>
<path d="M36.3125 29.2234H35.4375V30.0957H36.3125V29.2234Z" fill="white"/>
<path d="M35.875 27.0426H35V27.9149H35.875V27.0426Z" fill="white"/>
<path d="M40.25 30.9681H39.375V31.8405H40.25V30.9681Z" fill="white"/>
<path d="M41.125 34.0212H40.25V34.8936H41.125V34.0212Z" fill="white"/>
<path d="M37.625 24.8617H36.75V25.734H37.625V24.8617Z" fill="white"/>
</g>
<defs>
<clipPath id="clip0_223_349">
<rect width="42" height="41" fill="white"/>
</clipPath>
</defs>
</svg>
