<svg width="20" height="21" viewBox="0 0 20 21" fill="none" xmlns="http://www.w3.org/2000/svg">
<path d="M9.52735 2.79872C9.73355 2.16409 10.6314 2.16409 10.8376 2.79872L12.193 6.9701C12.2852 7.25391 12.5496 7.44607 12.8481 7.44607H17.2341C17.9014 7.44607 18.1789 8.29996 17.639 8.69218L14.0906 11.2702C13.8492 11.4456 13.7482 11.7566 13.8404 12.0404L15.1957 16.2118C15.4019 16.8464 14.6756 17.3741 14.1357 16.9819L10.5874 14.4038C10.3459 14.2284 10.019 14.2284 9.77758 14.4038L6.2292 16.9819C5.68935 17.3741 4.96299 16.8464 5.16919 16.2118L6.52456 12.0404C6.61677 11.7566 6.51575 11.4456 6.27432 11.2702L2.72594 8.69218C2.18609 8.29996 2.46353 7.44607 3.13082 7.44607H7.51687C7.81529 7.44607 8.07977 7.25391 8.17199 6.9701L9.52735 2.79872Z" fill="white"/>
</svg>
