<svg width="21" height="21" viewBox="0 0 21 21" fill="none" xmlns="http://www.w3.org/2000/svg">
<path d="M9.8147 2.79872C10.0209 2.16409 10.9187 2.16409 11.1249 2.79872L12.4803 6.9701C12.5725 7.25391 12.837 7.44607 13.1354 7.44607H17.5215C18.1888 7.44607 18.4662 8.29996 17.9264 8.69218L14.378 11.2702C14.1365 11.4456 14.0355 11.7566 14.1277 12.0404L15.4831 16.2118C15.6893 16.8464 14.9629 17.3741 14.4231 16.9819L10.8747 14.4038C10.6333 14.2284 10.3064 14.2284 10.0649 14.4038L6.51655 16.9819C5.9767 17.3741 5.25034 16.8464 5.45655 16.2118L6.81191 12.0404C6.90413 11.7566 6.8031 11.4456 6.56168 11.2702L3.01329 8.69218C2.47344 8.29996 2.75088 7.44607 3.41817 7.44607H7.80422C8.10264 7.44607 8.36712 7.25391 8.45934 6.9701L9.8147 2.79872Z" fill="white"/>
</svg>
