<svg width="20" height="21" viewBox="0 0 20 21" fill="none" xmlns="http://www.w3.org/2000/svg">
<path d="M9.66553 2.79872C9.87174 2.16409 10.7696 2.16409 10.9758 2.79872L12.3311 6.9701C12.4234 7.25391 12.6878 7.44607 12.9863 7.44607H17.3723C18.0396 7.44607 18.317 8.29996 17.7772 8.69218L14.2288 11.2702C13.9874 11.4456 13.8863 11.7566 13.9786 12.0404L15.3339 16.2118C15.5401 16.8464 14.8138 17.3741 14.2739 16.9819L10.7255 14.4038C10.4841 14.2284 10.1572 14.2284 9.91577 14.4038L6.36738 16.9819C5.82753 17.3741 5.10117 16.8464 5.30738 16.2118L6.66274 12.0404C6.75496 11.7566 6.65393 11.4456 6.41251 11.2702L2.86412 8.69218C2.32427 8.29996 2.60171 7.44607 3.269 7.44607H7.65505C7.95347 7.44607 8.21795 7.25391 8.31017 6.9701L9.66553 2.79872Z" fill="white"/>
</svg>
