<svg width="20" height="21" viewBox="0 0 20 21" fill="none" xmlns="http://www.w3.org/2000/svg">
<path d="M9.24018 2.79872C9.44638 2.16409 10.3442 2.16409 10.5504 2.79872L11.9058 6.9701C11.998 7.25391 12.2625 7.44607 12.5609 7.44607H16.9469C17.6142 7.44607 17.8917 8.29996 17.3518 8.69218L13.8034 11.2702C13.562 11.4456 13.461 11.7566 13.5532 12.0404L14.9086 16.2118C15.1148 16.8464 14.3884 17.3741 13.8486 16.9819L10.3002 14.4038C10.0588 14.2284 9.73184 14.2284 9.49041 14.4038L5.94203 16.9819C5.40218 17.3741 4.67582 16.8464 4.88202 16.2118L6.23738 12.0404C6.3296 11.7566 6.22858 11.4456 5.98715 11.2702L2.43877 8.69218C1.89892 8.29996 2.17636 7.44607 2.84365 7.44607H7.2297C7.52812 7.44607 7.7926 7.25391 7.88482 6.9701L9.24018 2.79872Z" fill="white"/>
</svg>
