<svg width="21" height="21" viewBox="0 0 21 21" fill="none" xmlns="http://www.w3.org/2000/svg">
<path d="M9.95277 2.79872C10.159 2.16409 11.0568 2.16409 11.263 2.79872L12.6184 6.9701C12.7106 7.25391 12.9751 7.44607 13.2735 7.44607H17.6595C18.3268 7.44607 18.6043 8.29996 18.0644 8.69218L14.516 11.2702C14.2746 11.4456 14.1736 11.7566 14.2658 12.0404L15.6212 16.2118C15.8274 16.8464 15.101 17.3741 14.5612 16.9819L11.0128 14.4038C10.7713 14.2284 10.4444 14.2284 10.203 14.4038L6.65461 16.9819C6.11476 17.3741 5.3884 16.8464 5.59461 16.2118L6.94997 12.0404C7.04219 11.7566 6.94116 11.4456 6.69974 11.2702L3.15135 8.69218C2.6115 8.29996 2.88895 7.44607 3.55623 7.44607H7.94228C8.24071 7.44607 8.50519 7.25391 8.5974 6.9701L9.95277 2.79872Z" fill="white"/>
</svg>
