<svg width="33" height="52" viewBox="0 0 33 52" fill="none" xmlns="http://www.w3.org/2000/svg">
<path d="M28.0274 51.3001L29.7293 52L32.3843 46.4811C33.1669 44.8532 33.2051 42.9723 32.4896 41.3186C31.8356 39.8069 30.6069 38.5742 29.054 37.8562L26.7464 36.7199C27.0958 36.3162 27.3613 35.847 27.501 35.327C27.8336 34.0977 27.447 32.7789 26.4921 31.8724L20.64 25.1699C20.1285 24.2229 19.6236 23.2596 19.3749 22.3652C19.4373 22.3661 19.5016 22.3807 19.5631 22.3807C21.9116 22.3807 23.7552 21.7721 25.0398 20.5721C27.3902 18.3769 27.3501 14.72 27.3212 12.0496L27.3147 11.2206C27.3147 11.1724 27.3119 11.1225 27.3101 11.0743C27.7144 10.6482 27.9417 10.1205 27.9463 9.51872C27.9892 4.83225 24.0924 0.687255 19.0768 0.0820767C16.1218 -0.276898 13.1585 0.552962 10.9432 2.34956C8.7242 4.14788 7.4526 6.74334 7.4526 9.46793C7.4526 10.9701 7.84479 12.4654 8.58726 13.7929C8.8807 14.318 8.93474 14.9033 8.73911 15.4397C8.55652 15.939 8.16991 16.3401 7.64916 16.5691C2.92421 18.6377 0 22.9842 0 25.8241C0 28.6821 2.84503 30.9324 7.4526 32.0171V51.6496H9.31575V37.7443L13.1175 45.9628C13.2638 46.2788 13.601 46.4845 13.9736 46.4845H26.0841C27.6249 46.4845 28.8788 45.3258 28.8788 43.902C28.8788 42.4781 27.6249 41.3194 26.0841 41.3194H19.3609L17.0338 32.63C19.5398 32.4062 21.0499 31.8113 21.7588 30.7895C22.0038 30.4365 22.1258 30.0595 22.1752 29.6687L25.0715 32.9864C25.092 33.0096 25.1143 33.0337 25.1376 33.0544C25.6593 33.5373 25.8726 34.2475 25.6938 34.9087C25.4804 35.6963 24.7501 36.2869 23.8772 36.3756L21.0042 36.6708L21.2101 38.3822L24.0821 38.0869C24.4315 38.0516 24.7641 37.9647 25.0817 37.8493L28.1988 39.3842C29.366 39.9231 30.2753 40.8373 30.7597 41.9556C31.2897 43.1806 31.2618 44.5743 30.6824 45.7795L28.0274 51.3001ZM23.716 19.3608C22.7807 20.2346 21.4216 20.659 19.5631 20.659C19.4485 20.659 19.3274 20.6426 19.2053 20.6237C19.2072 17.5582 20.2161 14.6193 22.1147 12.2519C23.3387 12.3019 24.493 12.2631 25.4581 12.035C25.4581 12.0462 25.4581 12.0557 25.4581 12.0668C25.486 14.5668 25.5205 17.6761 23.716 19.3608ZM17.7269 42.3869C17.8303 42.7717 18.203 43.0411 18.6315 43.0411H26.0841C26.5974 43.0411 27.0157 43.4268 27.0157 43.902C27.0157 44.3772 26.5974 44.7628 26.0841 44.7628H14.5885L9.31575 33.3652V32.3752C10.469 32.5525 11.7006 32.6705 13.0113 32.71C13.5255 32.7264 14.0155 32.7342 14.4823 32.7342C14.7142 32.7342 14.9192 32.7247 15.139 32.7212L17.7269 42.3869ZM20.19 29.8598C19.8481 30.3539 18.4685 31.1579 13.0728 30.9901C6.57785 30.7904 1.86315 28.6167 1.86315 25.8241C1.86315 23.5463 4.56658 19.8231 8.44659 18.1247C9.42754 17.6942 10.1588 16.9367 10.5035 15.9906C10.8575 15.0213 10.7616 13.9323 10.2417 13.0026C9.62689 11.9033 9.31575 10.7136 9.31575 9.46793C9.31575 7.23833 10.3563 5.11547 12.171 3.64256C13.7221 2.38399 15.6477 1.71942 17.6869 1.71942C18.066 1.71942 18.4489 1.7418 18.8346 1.78828C22.9335 2.28327 26.1176 5.6733 26.0832 9.50409C26.0813 9.72447 26.0133 9.87426 25.8568 10.0042C24.8973 10.8048 21.7085 10.5268 20.1761 10.3942C19.087 10.2995 18.6939 10.2711 18.3576 10.3667L18.8132 12.0315C18.9576 12.0143 19.5072 12.0651 19.9627 12.1056C18.0604 14.8689 17.141 18.2004 17.3599 21.618C17.4568 23.1365 18.2756 24.6499 19.0675 26.1151C19.8705 27.5957 20.6987 29.128 20.19 29.8598Z" fill="white" fill-opacity="0.81"/>
</svg>
