<svg width="43" height="65" viewBox="0 0 43 65" fill="none" xmlns="http://www.w3.org/2000/svg">
<path d="M20.0443 5.79269C20.9859 6.90961 21.8398 7.50904 24.2008 8.71005C25.294 9.26204 26.6539 10.0131 27.1721 10.3516C28.2135 11.0179 30.0334 12.4726 30.2993 12.8148C30.5113 13.0793 30.7543 13.2439 30.9656 13.2654C30.9814 13.2669 30.9972 13.2676 31.0116 13.2676C31.1029 13.2676 31.1855 13.2388 31.2524 13.1835C31.6146 12.873 31.3638 10.2956 31.0137 8.84086C30.5128 6.80827 29.5662 5.12929 28.0353 3.55597C26.9421 2.44265 25.8589 1.69228 24.415 1.04757C22.4536 0.168556 20.7487 -0.141939 19.0532 0.058589C18.1771 0.155619 18.0448 0.350397 18.1088 1.44719C18.2123 2.93354 18.8635 4.39618 20.0443 5.79269ZM25.1733 5.73591C25.1201 5.97884 25.1201 5.97884 26.2154 6.7903L26.2571 6.8212C27.2023 7.51982 28.0223 8.32265 28.7612 9.27426C29.1845 9.83919 29.7279 10.808 29.9141 11.235C29.8034 11.1588 29.6481 11.0445 29.4605 10.8943C28.2955 9.95634 26.8875 9.09457 24.7528 8.01215C23.6007 7.43069 22.3041 6.69111 21.9195 6.39499C21.149 5.82216 20.2715 4.84251 19.7849 4.01237C19.4212 3.38276 18.9008 1.78356 18.9008 1.29769C18.9008 1.13454 18.908 1.05476 18.9504 1.01307C19.0216 0.943357 19.3407 0.874357 19.6577 0.874357C20.0127 0.874357 21.1289 0.857108 22.547 1.26823C23.7171 1.60675 25.0568 2.28237 25.8266 2.80201C26.587 3.31879 27.7701 4.43643 28.358 5.19398C29.2794 6.38565 30.0499 8.14224 30.369 9.77594C30.4229 10.0634 30.4603 10.2862 30.4811 10.4429C30.4603 10.4034 30.4359 10.3574 30.4086 10.3035C29.8558 9.21891 29.3441 8.54474 28.2164 7.41704C27.4143 6.60989 25.9811 5.28598 25.4011 5.46063C25.317 5.48579 25.2092 5.55407 25.1733 5.73591ZM36.8269 21.4102C35.7459 19.2353 34.2409 17.1696 32.2974 15.2959C30.8075 13.8785 28.5715 12.3368 26.6014 11.3658C25.2185 10.6851 22.8136 9.86506 21.2389 9.53804C20.1356 9.32098 20.0803 9.29726 19.2609 8.68777C18.2116 7.90003 17.5927 7.58019 16.248 7.14535C14.9535 6.72705 13.0898 6.63289 11.0184 7.05264C9.40845 7.37894 7.73378 8.37368 6.01744 9.91681C4.36002 11.4204 3.33007 12.74 2.21531 14.7863C1.84588 15.4712 1.50447 16.0527 1.41823 16.1648C1.06676 16.604 1.22632 16.8907 1.42254 17.0517C1.5821 17.1869 1.91487 17.2285 2.9053 17.2393C3.55072 17.2494 4.71939 17.3169 5.48198 17.4104C7.91778 17.6864 10.5599 17.3155 12.7211 16.3912C13.7813 15.9327 15.162 14.851 17.1996 12.8838C18.5911 11.5433 19.5901 10.7347 20.1701 10.4789L20.5906 10.292L21.7686 10.586C24.0858 11.1473 26.0386 11.9695 28.1043 13.251C28.3587 13.4077 28.9438 13.7678 29.2212 13.9748C29.2183 13.9741 29.2155 13.9734 29.2119 13.9727C26.633 13.4523 24.5947 13.6068 22.4004 14.4837C20.288 15.3311 18.0031 17.5081 16.9667 19.6608C16.8043 19.9957 16.7295 20.2228 16.8301 20.3975C16.9444 20.598 17.2585 20.6584 17.8328 20.7044C18.2669 20.7446 19.1258 20.8251 19.7216 20.8862C21.0693 21.0213 22.4916 20.9056 23.5223 20.5786C24.7391 20.2106 25.708 19.6291 27.5106 18.1845C29.2952 16.747 30.4625 16.062 31.2955 15.9643C31.7785 15.9082 31.8475 15.9463 33.2634 17.5958C34.5082 19.0326 35.5231 20.5786 36.198 22.0678L36.3432 22.3819L35.8724 22.1857C34.5564 21.6394 33.8276 21.482 32.3283 21.4202C30.4042 21.334 29.1134 21.6351 27.9979 22.4092C27.3237 22.8807 26.1622 23.9962 26.1622 24.3074C26.1622 24.6704 26.6158 25.0614 27.5882 25.5357C28.8935 26.1632 29.449 26.2839 30.7119 26.2236C32.2643 26.1524 33.1441 25.8865 35.1925 24.868C35.5662 24.6783 36.6774 24.1133 36.9031 24.1054C37.0533 24.4382 38.1379 28.6371 38.1379 32.9668C38.1379 38.0439 37.8604 40.1031 36.6357 44.56C35.6913 47.9934 34.7785 50.2783 33.3827 52.7112C31.0971 56.7081 29.0624 59.1763 26.122 61.5122C24.3611 62.9116 23.2104 63.539 21.5012 63.9444C19.8445 64.3376 17.5201 64.3045 13.764 61.9406C13.0726 61.5057 11.5079 60.1531 10.7834 59.4185C9.0807 57.7259 6.45587 54.1868 5.05145 51.6906C3.84469 49.5423 2.24046 44.964 1.47429 41.4831C1.07251 39.6906 0.758423 36.6517 0.839641 35.3494C0.986982 33.1292 1.24573 31.7169 1.67913 30.7696C2.11612 29.8367 3.27401 29.2344 5.43166 28.8189C6.47887 28.6191 8.60418 28.6701 9.97984 28.9296C12.9648 29.4874 15.1346 30.7423 16.0898 32.4651C16.5692 33.3125 17.0278 34.8721 17.1787 36.1731C17.3304 37.4538 17.2506 40.1879 17.017 41.693C16.7741 43.3216 16.5815 44.5119 16.3507 45.8027C16.1524 46.9089 16.1078 47.7491 16.534 48.2536C17.0163 48.8243 18.0477 48.9163 19.6411 48.9113C21.0614 48.894 21.4416 48.8394 21.5803 48.6353C21.6586 48.5203 21.6241 48.388 21.5911 48.3011C21.512 48.0826 21.2712 48.0675 19.7813 48.0775C17.7451 48.0775 17.1529 47.9244 17.0271 47.3681C17.0012 47.2287 17.0558 46.6192 17.1687 46.0119C18.0736 40.9577 18.3043 38.3789 18.0491 36.158C17.8745 34.7076 17.5288 33.3865 17.0501 32.3357C16.7928 31.7708 15.8843 30.3585 13.6634 29.2523C12.3661 28.6062 11.9147 28.4603 10.4758 28.1426C9.58166 27.9528 6.52558 27.5733 4.15878 28.1943C1.19973 28.9706 0.6118 29.8597 0.13887 33.8235C-0.24853 37.0988 0.163307 40.4934 1.51669 45.1738C1.99753 46.8657 3.23951 50.1698 3.849 51.3773C5.16501 53.9899 8.09603 57.8186 10.2156 60.0761C11.5711 61.5194 13.5074 62.8332 15.4789 63.81C19.133 65.6212 21.5005 64.9082 22.3544 64.6207C23.5288 64.2254 24.4049 63.874 25.8877 62.7642C29.4174 60.1042 31.6656 57.4873 34.1827 53.1101C35.5102 50.7807 36.4797 48.4484 37.2351 45.7697C38.692 40.6156 39.0478 38.0835 39.0478 32.8661C39.0514 27.3951 37.7325 23.2322 36.8269 21.4102ZM30.4646 15.2506L30.1311 15.3857C29.2183 15.7594 28.588 16.1799 27.0614 17.4334C25.3767 18.8134 24.5947 19.3028 23.4253 19.7096C22.6469 19.9856 22.4306 20.0172 21.1138 20.0467C20.2966 20.0668 19.2465 20.0287 18.6744 19.9576L17.8508 19.8476L18.2259 19.2511C18.8433 18.2362 19.4622 17.534 20.5079 16.6607C21.6802 15.6768 22.989 15.0486 24.6249 14.6828C25.3946 14.5189 27.1829 14.4973 28.1021 14.6432H28.1036C28.9696 14.7712 29.8192 14.9818 30.3209 15.1924L30.4646 15.2506ZM13.3134 9.67028C11.8126 9.97862 9.48535 10.7764 8.01409 11.4865C6.62405 12.1528 6.15328 12.477 6.14681 12.7724C6.14321 12.9621 6.33081 13.0613 6.39549 13.0958C6.58236 13.1878 6.80517 13.1253 7.31404 12.8406C10.3773 11.1415 14.357 10.0951 17.7393 10.0951C17.7861 10.0951 17.8342 10.0951 17.8817 10.0958C18.2238 10.0979 18.7305 10.1022 18.8476 10.1562C18.8024 10.241 18.5666 10.4415 18.4495 10.5421C18.1303 10.8116 17.2089 11.6526 16.3529 12.4561C14.6308 14.0992 13.7633 14.8172 12.9188 15.3002C12.2058 15.6962 10.8589 16.1691 9.7865 16.4006C8.71702 16.6205 6.65855 16.6873 5.29079 16.5501C4.62308 16.4882 3.66141 16.4279 3.15039 16.4077C2.72705 16.4006 2.50208 16.3725 2.39859 16.3517C2.48052 16.1885 2.69327 15.7889 3.0512 15.1334C3.96831 13.4508 4.67771 12.5129 6.085 11.1142C7.88616 9.30373 9.55507 8.27305 11.3368 7.86984L11.4245 7.85115C12.7247 7.57085 12.7261 7.56941 13.8977 7.60966C14.7932 7.63913 15.1842 7.70597 15.9892 7.96831L15.9907 7.96903C17.0185 8.28815 18.0786 8.79917 18.5716 9.21173L18.6119 9.24479L18.2461 9.21388C17.385 9.13267 14.804 9.37129 13.3134 9.67028ZM27.8247 24.7264C27.5192 24.5755 27.2037 24.4195 27.1893 24.316C27.1742 24.2082 27.4502 23.9602 27.7169 23.7209C28.9366 22.622 29.9018 22.2468 31.6541 22.2468C31.7907 22.2468 31.9323 22.2489 32.0789 22.254C32.8652 22.2741 33.6443 22.3704 33.9433 22.4509C34.6771 22.6521 35.9479 23.1423 36.2232 23.3119C36.0823 23.4514 35.342 23.8302 34.7929 24.1105C32.9651 25.0333 32.0753 25.3115 30.6508 25.4028C29.6625 25.4588 28.9761 25.2971 27.8247 24.7264ZM35.8947 18.5266C36.2871 19.379 37.1309 20.723 37.4256 20.8783C37.5234 20.9272 37.601 20.9523 37.6729 20.9552C37.8008 20.9602 37.9064 20.8912 38.0638 20.7518C38.4376 20.4341 39.2002 19.4264 39.4941 18.8608C40.1575 17.5901 40.417 15.7156 40.1554 14.0841C39.9548 12.8694 39.198 11.2623 38.4318 10.4257C37.8727 9.82409 37.6297 9.61782 37.3063 9.82553C37.0404 9.99012 36.4215 10.9568 36.0456 11.7129C35.3549 13.0491 35.2011 14.2292 35.2011 15.0968C35.2025 16.5278 35.375 17.3931 35.8947 18.5266ZM37.9237 11.1293C38.1084 11.3679 38.4196 11.8452 38.6 12.2002C38.7783 12.5474 39.0313 13.1935 39.1657 13.6392C39.3806 14.3414 39.4065 14.6073 39.3662 15.6753C39.3238 17.0726 39.0837 17.9537 38.4807 18.9255L38.3319 19.1605L38.3197 18.058C38.3097 17.2745 38.2708 16.4365 38.2335 16.2245C38.1681 15.9168 38.0143 15.6883 37.8295 15.6293C37.721 15.5956 37.6139 15.6207 37.5255 15.7019C37.3782 15.8392 37.3774 16.0714 37.4479 16.7024C37.5564 17.5807 37.5025 19.1907 37.4141 19.5141C37.1273 19.2683 36.2922 17.4758 36.1118 16.4624C35.9407 15.4533 36.0205 14.1013 36.2979 13.3179C36.5796 12.5208 37.182 11.3299 37.4889 10.9611L37.6376 10.7908L37.9237 11.1293ZM34.2538 37.6673C34.0892 37.7744 33.9498 37.8722 33.8456 37.9483C34.146 37.921 34.6441 37.8427 34.9215 37.7564C35.1573 37.6781 35.3477 37.6522 35.4994 37.7895C35.6661 37.9289 35.7287 38.0712 35.6834 38.2085C35.6173 38.4062 35.3154 38.6807 33.4639 38.7857C32.7064 38.8274 31.8331 38.9388 31.5183 39.0344C30.0873 39.4426 28.989 39.4059 26.9931 38.8841C26.3161 38.698 25.7813 38.5844 25.6958 38.5844C25.6225 38.5873 25.2128 38.7382 24.7118 38.9783C24.2094 39.2241 23.9176 39.3326 23.7351 39.3326C23.6632 39.3326 23.6078 39.3161 23.564 39.2838C23.4346 39.191 23.4591 39.007 23.4677 38.9467C23.4936 38.7296 23.7185 38.5471 24.3942 38.1992C25.363 37.714 25.7152 37.6709 26.6143 37.9174C29.0386 38.5765 30.1081 38.6211 31.5945 38.1208C32.4455 37.8319 33.7291 37.0665 34.5808 36.3427C34.9503 36.0329 35.1407 35.933 35.3082 35.9632C35.4462 35.9891 35.526 36.1048 35.5727 36.1896C35.6992 36.4411 35.5748 36.6021 35.2816 36.886C35.0595 37.0851 34.5959 37.4452 34.2538 37.6673ZM4.66836 38.1266C4.62811 38.0935 4.55911 38.0439 4.43765 37.9728C3.5536 37.4603 2.87583 36.8005 2.82839 36.4038C2.81258 36.273 2.86289 36.1925 2.90889 36.1472C3.11014 35.9294 3.31354 36.0818 3.92375 36.5827C4.71652 37.2267 5.92472 37.8075 6.93095 38.0267C8.03565 38.2667 9.99206 38.2459 11.3843 37.9757C11.9449 37.8599 12.5939 37.7608 12.7987 37.7608C13.4025 37.7608 14.6452 38.4586 14.6452 38.8899C14.6452 39.0408 14.5963 39.1465 14.5 39.2047C14.4504 39.2342 14.3915 39.25 14.3189 39.25C14.1342 39.25 13.8668 39.1486 13.4657 38.9345L12.8117 38.5787L11.7077 38.7943C10.2465 39.0847 7.87034 39.1192 6.82099 38.8633C6.21293 38.7224 6.0735 38.7864 6.0584 38.7929C5.77881 38.9452 3.72466 38.9294 3.33798 38.8108C3.11732 38.7368 2.95776 38.5851 2.9168 38.4119C2.88805 38.2905 2.92111 38.1747 3.01023 38.0856C3.05048 38.0468 3.14104 37.957 3.92016 38.0655C4.36577 38.1287 4.57205 38.1316 4.66836 38.1266ZM42.2419 41.159C41.7352 40.7715 40.9287 40.6975 40.3221 40.9857C39.7349 41.2589 39.3015 41.8094 39.1642 42.4577C39.0377 43.0543 39.1786 43.64 39.5495 44.0648C39.9872 44.5571 40.3868 44.7483 40.974 44.7483C41.8523 44.7483 42.6041 44.1971 42.8902 43.3453C43.1662 42.5238 42.9117 41.6657 42.2419 41.159ZM40.0885 43.2419C39.9297 42.8171 40.072 42.3305 40.4508 42.0013C40.6736 41.8008 40.9029 41.7009 41.1293 41.7009C41.3664 41.7009 41.5993 41.8094 41.8171 42.0279C42.1693 42.3794 42.221 42.7229 41.9903 43.175C41.7654 43.6063 41.416 43.824 40.9539 43.824C40.5485 43.8247 40.2251 43.607 40.0885 43.2419ZM41.4455 45.5928C41.0401 45.3657 40.5363 45.3851 40.1 45.6496C39.5912 45.9644 39.4007 46.3015 39.4007 46.8938C39.4007 47.3279 39.4632 47.4953 39.7155 47.7476C39.9707 48.0028 40.3056 48.1365 40.6578 48.1365C40.8454 48.1365 41.0365 48.0984 41.2241 48.0215C41.7596 47.7994 42.0931 47.3207 42.0931 46.7723C42.0931 46.2627 41.8509 45.8207 41.4455 45.5928ZM41.1652 46.8772C41.0883 47.0619 40.9043 47.2603 40.6815 47.2603C40.4846 47.2603 40.2229 47.0231 40.2229 46.8435C40.2229 46.6587 40.4091 46.4992 40.5945 46.4223C40.6901 46.382 40.7857 46.3626 40.8705 46.3626C40.9776 46.3626 41.0696 46.3935 41.13 46.4546C41.2234 46.5473 41.2364 46.7055 41.1652 46.8772ZM20.1435 52.3993L19.7015 52.6523L19.3716 52.4705C18.7729 52.1276 18.3869 52.0902 17.7861 52.3109C17.4749 52.4216 16.856 52.763 16.4291 53.0289L15.6672 53.5234L15.172 53.3308C14.901 53.228 14.5561 53.1224 14.4411 53.1224C14.4037 53.1238 14.2894 53.1303 14.0853 53.3883C13.9322 53.5823 13.7173 53.9446 13.7554 54.1509C13.7827 54.2831 13.8675 54.378 13.9883 54.4111C14.1543 54.4563 14.3512 54.3794 14.5065 54.212L14.6596 54.0438L15.1375 54.2206C16.5448 54.741 17.5122 54.894 19.4492 54.9048C21.5134 54.9048 22.2818 54.7848 24.0204 54.1918C24.6615 53.9748 25.031 53.8914 25.1186 53.9417C25.2775 54.0244 25.4615 54.0244 25.5973 53.9417C25.708 53.8749 25.772 53.7627 25.772 53.6341C25.772 53.3739 25.2854 52.9197 25.0072 52.9197C24.8894 52.9197 24.489 53.0814 24.2655 53.182L23.7573 53.4084L23.0896 52.9197C21.8685 52.0299 21.0685 51.8883 20.1435 52.3993ZM22.6728 53.7052C22.4816 53.7764 21.9583 53.9007 21.0003 54.0431C19.8467 54.2177 17.196 54.015 16.7238 53.8353C16.9085 53.6894 17.4741 53.3531 17.8637 53.1885C18.3488 52.9894 18.5228 52.998 19.0273 53.2352C19.5951 53.5198 20.2003 53.4731 20.6474 53.1137C21.0923 52.7723 21.7542 53.0699 22.2307 53.3811C22.4399 53.5205 22.5908 53.6348 22.6728 53.7052ZM22.4191 56.057C22.5096 56.1252 22.5427 56.241 22.5168 56.4012C22.4651 56.7958 21.2439 57.3536 20.2686 57.5512C19.8884 57.6267 19.6332 57.6626 19.3709 57.6626C19.1711 57.6626 18.9655 57.6418 18.6967 57.6023C17.6164 57.429 16.5304 56.8375 16.3723 56.3366C16.327 56.1928 16.3579 56.057 16.4621 55.9549C16.7101 55.6918 17.1392 56.0189 17.2822 56.126C18.4178 56.9841 19.7303 57.0402 21.2935 56.2956C21.926 55.998 22.2502 55.9305 22.4191 56.057Z" fill="white"/>
</svg>
