<svg width="42" height="43" viewBox="0 0 42 43" fill="none" xmlns="http://www.w3.org/2000/svg">
<path d="M36.6576 22.1123C36.1658 21.43 35.5893 20.8535 35.5628 20.8271C34.9546 20.2189 34.3094 19.7165 33.6695 19.3357C33.6483 19.3198 33.6219 19.3092 33.6007 19.2987C33.5848 19.2881 33.569 19.2775 33.5531 19.2722C31.0991 17.7649 28.6346 17.6327 27.9153 17.6327C27.8836 17.6327 27.8518 17.6274 27.8254 17.6327H26.8893C29.5813 15.9403 31.3847 12.9627 31.3847 9.55677C31.3847 4.28918 27.0955 0 21.828 0C16.5551 0 12.2712 4.28918 12.2712 9.55677C12.2712 12.9627 14.0799 15.9403 16.7666 17.6327H15.8041C14.741 17.6327 11.0442 17.8654 8.0772 20.8324C8.05604 20.8588 7.47957 21.4353 6.98772 22.1176C4.90395 24.9946 2.05331 34.16 0.0277221 41.3422C-0.0833416 41.7388 0.149363 42.1513 0.546019 42.2624C0.947964 42.3788 1.3552 42.1408 1.46626 41.7441C4.27988 31.7589 6.67039 25.0951 8.19884 22.9902C8.62194 22.4031 9.12437 21.9007 9.14024 21.8901C11.7 19.3251 14.8944 19.1294 15.8094 19.1294H16.6556L21.0928 34.0172L20.7861 34.0225C19.7442 34.0384 18.734 34.4827 18.0148 35.2495C17.2955 36.0164 16.9306 37.0001 16.9835 38.005C17.0099 39.5969 18.0201 40.9984 19.5273 41.5854C19.5644 41.6066 19.5961 41.6383 19.6384 41.6542C19.649 41.6595 19.6543 41.6542 19.6649 41.6595C19.6754 41.6648 19.6807 41.6701 19.6913 41.6701C19.9822 41.7547 20.437 41.8552 20.913 41.8552H20.9183L21.3414 41.8763C23.1025 41.9662 27.2278 42.1725 31.7126 42.273L33.2622 42.2941C34.0979 42.31 34.9864 42.31 35.8326 42.31H36.3403C36.4461 42.31 36.5571 42.3047 36.6576 42.2941L36.9273 42.2836C38.625 42.0985 40.1376 41.1676 41.079 39.7238C42.0098 38.2958 42.2478 36.5506 41.7348 34.9375C39.54 27.9299 37.9269 23.8576 36.6576 22.1123ZM13.7626 9.55677C13.7626 5.10893 17.3801 1.49143 21.828 1.49143C26.2758 1.49143 29.8933 5.10893 29.8933 9.55677C29.8933 14.0046 26.2758 17.6221 21.828 17.6221C17.3801 17.6221 13.7626 14.0046 13.7626 9.55677ZM26.8364 19.1241L24.5146 25.661L21.4736 19.1241H26.8364ZM18.2052 19.1241H19.8235L23.8007 27.6655L22.14 32.3354L18.2052 19.1241ZM19.4639 39.8878C18.8662 39.4435 18.4855 38.7348 18.4696 37.9468C18.4379 37.328 18.66 36.7304 19.099 36.265C19.5432 35.7943 20.162 35.514 20.8072 35.5087L21.0188 35.5034L19.4639 39.8878ZM32.5271 40.7868L31.7232 40.7763C27.2807 40.6758 23.166 40.4695 21.4101 40.3796L20.95 40.3585C20.9289 40.3585 20.9077 40.3479 20.8866 40.3479L22.7588 35.0697C22.7799 35.0274 22.7905 34.9851 22.8064 34.9375L28.4124 19.1453C29.2798 19.2035 30.8717 19.4626 32.5271 20.404V40.7868ZM39.8309 38.9093C39.138 39.9777 38.0221 40.6652 36.8533 40.7974C36.7634 40.7974 36.6682 40.8027 36.5677 40.808L35.8378 40.8186C35.2455 40.8186 34.632 40.8133 34.0238 40.8027V21.4459C34.1878 21.5887 34.357 21.7262 34.5157 21.8848C34.5315 21.8954 35.034 22.4031 35.4571 22.9902C36.6153 24.5768 38.2019 28.628 40.3174 35.387C40.6876 36.5717 40.5131 37.8569 39.8309 38.9093Z" fill="white"/>
</svg>
