<svg width="22" height="21" viewBox="0 0 22 21" fill="none" xmlns="http://www.w3.org/2000/svg">
<path d="M20.4249 16.6574C20.4249 17.0076 20.3471 17.3675 20.1817 17.7177C20.0164 18.0679 19.8024 18.3986 19.5203 18.7099C19.0437 19.2351 18.5184 19.6145 17.925 19.8577C17.3414 20.1008 16.7091 20.2273 16.0282 20.2273C15.0361 20.2273 13.9758 19.9939 12.8572 19.5172C11.7386 19.0406 10.6199 18.3986 9.51104 17.5912C8.38084 16.7645 7.31434 15.8541 6.32052 14.8676C5.33688 13.8774 4.42966 12.8141 3.60664 11.6868C2.80901 10.5779 2.16702 9.46905 1.70011 8.36987C1.23321 7.26098 0.999756 6.20071 0.999756 5.18909C0.999756 4.52764 1.11648 3.89537 1.34993 3.31174C1.58339 2.71838 1.95302 2.17366 2.46856 1.6873C3.0911 1.07449 3.772 0.772949 4.49181 0.772949C4.76417 0.772949 5.03653 0.831312 5.27971 0.948038C5.53262 1.06476 5.75635 1.23985 5.93143 1.49276L8.18814 4.67355C8.36323 4.91673 8.48968 5.14045 8.57723 5.35445C8.66477 5.55872 8.71341 5.76299 8.71341 5.94781C8.71341 6.18126 8.64532 6.41471 8.50914 6.63844C8.38268 6.86216 8.19787 7.09561 7.96441 7.32907L7.22515 8.09751C7.11815 8.20451 7.06951 8.33097 7.06951 8.4866C7.06951 8.56442 7.07924 8.63251 7.0987 8.71033C7.12788 8.78814 7.15706 8.84651 7.17651 8.90487C7.3516 9.22587 7.65314 9.64413 8.08114 10.1499C8.51886 10.6558 8.98577 11.1713 9.49158 11.6868C10.0168 12.2024 10.5227 12.679 11.0382 13.1167C11.544 13.5447 11.9623 13.8365 12.293 14.0116C12.3416 14.0311 12.4 14.0603 12.4681 14.0895C12.5459 14.1186 12.6237 14.1284 12.7113 14.1284C12.8766 14.1284 13.0031 14.07 13.1101 13.963L13.8494 13.2335C14.0925 12.9903 14.326 12.8055 14.5497 12.6887C14.7734 12.5526 14.9972 12.4845 15.2403 12.4845C15.4252 12.4845 15.6197 12.5234 15.8337 12.6109C16.0477 12.6985 16.2714 12.8249 16.5146 12.9903L19.7343 15.2762C19.9872 15.4513 20.1623 15.6555 20.2693 15.8987C20.3666 16.1419 20.4249 16.3851 20.4249 16.6574Z" stroke="#936F01" stroke-width="1.45908" stroke-miterlimit="10"/>
</svg>
